<?xml version="1.0" encoding="iso-8859-1"?>
<!-- Generator: Adobe Illustrator 19.0.0, SVG Export Plug-In . SVG Version: 6.00 Build 0)  -->
<svg xmlns="http://www.w3.org/2000/svg" xmlns:xlink="http://www.w3.org/1999/xlink" version="1.1" id="Capa_1" x="0px" y="0px" viewBox="0 0 507.901 507.901" style="enable-background:new 0 0 507.901 507.901;" xml:space="preserve">
<g>
	<g>
		<path d="M335.9,32.8v16.5c49.7,0,90.1,40.6,90.1,90.6h16.4C442.5,80.8,394.7,32.8,335.9,32.8z"/>
	</g>
</g>
<g>
	<g>
		<path d="M477.8,148.5c0.5-4.6,0.7-8.7,0.7-12.7c0-74.9-61-135.8-136-135.8C302.3,0,264.9,17.4,239,48c-14.1-5.8-28.8-8.7-43.9-8.7    c-58,0-106.2,41.7-114.9,98.2h-13c-37,0-67.2,30.1-67.2,67.1s30.1,67.1,67.2,67.1h29.2c20.1,25.9,51.2,41.2,83.8,41.2    c32.7,0,63.7-15.3,83.8-41.2h176.7c37,0,67.2-30.1,67.2-67.1C508,181.9,496.6,160.9,477.8,148.5z M440.8,255.1h-185    c0,0-27.7,41.2-75.6,41.2c-45.6,0-75.6-41.2-75.6-41.2H67.2c-28,0-50.8-22.7-50.8-50.7c0-27.9,22.8-50.7,50.8-50.7h27.6l0.7-7.5    c4.7-51.7,47.4-90.7,99.5-90.7c25,0,48.8,12.6,48.8,12.6s34.1-51.8,98.7-51.8c66,0,119.6,53.6,119.6,119.4c0,10.9-2,21.6-2,21.6    s31.4,15.9,31.4,47.1C491.6,232.4,468.8,255.1,440.8,255.1z"/>
	</g>
</g>
<g>
	<g>
		<polygon points="200,378.6 251.6,326.8 240,315.1 160.5,395.1 250.6,395.1 149.9,496.3 161.5,507.9 290.2,378.6   "/>
	</g>
</g>
<g>
	<g>
		<polygon points="67.9,298.7 18.8,348.1 30.4,359.7 79.5,310.3   "/>
	</g>
</g>
<g>
	<g>
		<polygon points="371.1,298.7 321.9,348.1 333.5,359.7 382.7,310.3   "/>
	</g>
</g>
<g>
	<g>
		<polygon points="461.2,298.7 379.3,381 390.9,392.6 472.8,310.3   "/>
	</g>
</g>
<g>
	<g>
		<polygon points="141.7,323.4 43.4,422.2 55,433.8 153.3,335   "/>
	</g>
</g>
<g>
</g>
<g>
</g>
<g>
</g>
<g>
</g>
<g>
</g>
<g>
</g>
<g>
</g>
<g>
</g>
<g>
</g>
<g>
</g>
<g>
</g>
<g>
</g>
<g>
</g>
<g>
</g>
<g>
</g>
</svg>
