<?xml version="1.0" encoding="iso-8859-1"?>
<!-- Generator: Adobe Illustrator 19.0.0, SVG Export Plug-In . SVG Version: 6.00 Build 0)  -->
<svg xmlns="http://www.w3.org/2000/svg" xmlns:xlink="http://www.w3.org/1999/xlink" version="1.1" id="Capa_1" x="0px" y="0px" viewBox="0 0 507.901 507.901" style="enable-background:new 0 0 507.901 507.901;" xml:space="preserve">
<g>
	<g>
		<path d="M335.9,163.8v16.4c49.7,0,90.1,40.4,90.1,90.1h16.4C442.5,211.6,394.7,163.8,335.9,163.8z"/>
	</g>
</g>
<g>
	<g>
		<path d="M477.8,278.9c0.5-4.6,0.7-8.7,0.7-12.7c0-74.5-61-135.2-136-135.2c-40.2,0-77.6,17.3-103.6,47.7    c-8.4-3.4-17.1-5.7-25.9-7.1c0-8.1-1.3-15.9-3.5-23.3l15.5-6.4l-6.3-15.1l-15.5,6.4c-2.5-4.6-5.4-9-8.8-13.1l17.7-17.7l-11.5-11.5    l-17.7,17.7c-4.1-3.3-8.4-6.3-13.1-8.8l6.4-15.5L161.1,78l-6.4,15.5c-5-1.5-10.1-2.6-15.4-3.1v-25h-16.4v25    c-5.3,0.5-10.5,1.6-15.4,3.1L101,78l-15.1,6.3l6.4,15.5c-4.6,2.5-9,5.4-13.1,8.8L61.6,90.9L50,102.4l17.7,17.7    c-3.3,4.1-6.3,8.4-8.8,13.1l-15.5-6.4l-6.3,15.1l15.5,6.4c-1.5,5-2.6,10.1-3.1,15.4h-25v16.4h25.2c0.5,5.3,1.4,10.4,2.9,15.4    l-15.5,6.4l6.3,15.1l15.7-6.5c2.5,4.6,5.3,9.1,8.6,13.1L50,241.5l11.6,11.6l17.8-17.8c2.6,2.1,5.4,4.1,8.3,6    c-3.5,8.4-6.1,17.2-7.6,26.6H67.2c-37,0-67.2,30-67.2,66.8s30.1,66.8,67.2,66.8h29.2c20.1,25.7,51.2,41,83.8,41    c32.7,0,63.7-15.2,83.8-41h176.7c37,0,67.2-30,67.2-66.8C508,312.1,496.6,291.2,477.8,278.9z M65.5,172    c0-36.1,29.4-65.5,65.5-65.5c35.5,0,64.5,28.4,65.5,63.7c-0.5,0-63.7-3.8-101.6,56.5C76.7,214.6,65.5,194.3,65.5,172z M440.8,385    h-185c0,0-26.8,41-75.6,41c-46.3,0-75.5-41-75.5-41H67.2c-28,0-50.8-22.6-50.8-50.4s22.8-50.4,50.8-50.4h27.6l0.7-7.5    c4.7-51.4,47.4-90.2,99.5-90.2c25.7,0,48.8,12.5,48.8,12.5s36.3-51.6,98.7-51.6c66,0,119.6,53.3,119.6,118.8c0,10.9-2,21.5-2,21.5    s31.5,10.3,31.5,46.9C491.6,362.4,468.8,385,440.8,385z"/>
	</g>
</g>
<g>
</g>
<g>
</g>
<g>
</g>
<g>
</g>
<g>
</g>
<g>
</g>
<g>
</g>
<g>
</g>
<g>
</g>
<g>
</g>
<g>
</g>
<g>
</g>
<g>
</g>
<g>
</g>
<g>
</g>
</svg>
