<?xml version="1.0" encoding="iso-8859-1"?>
<!-- Generator: Adobe Illustrator 19.0.0, SVG Export Plug-In . SVG Version: 6.00 Build 0)  -->
<svg xmlns="http://www.w3.org/2000/svg" xmlns:xlink="http://www.w3.org/1999/xlink" version="1.1" id="Capa_1" x="0px" y="0px" viewBox="0 0 508 508" style="enable-background:new 0 0 508 508;" xml:space="preserve">
<g>
	<g>
		<polygon points="286.9,360.6 274.8,360.6 286.3,349.1 274.7,337.6 251.6,360.6 237.7,360.6 237.7,346.8 260.8,323.7 249.2,312.1     237.7,323.6 237.7,311.5 221.3,311.5 221.3,323.6 209.8,312.1 198.2,323.7 221.3,346.7 221.3,360.6 207.4,360.6 184.3,337.6     172.7,349.1 184.2,360.6 172.1,360.6 172.1,377 184.2,377 172.7,388.5 184.3,400.1 207.4,377 221.3,377 221.3,390.9 198.2,414     209.8,425.6 221.3,414.1 221.3,426.1 237.7,426.1 237.7,414.1 249.2,425.6 260.8,414 237.7,390.9 237.7,377 251.6,377     274.7,400.1 286.3,388.5 274.8,377 286.9,377   "/>
	</g>
</g>
<g>
	<g>
		<polygon points="139.3,442.5 127.3,442.5 138.8,431 127.2,419.4 104.1,442.5 90.2,442.5 90.2,428.6 113.3,405.5 101.7,394     90.2,405.5 90.2,393.4 73.8,393.4 73.8,405.5 62.3,394 50.7,405.5 73.8,428.6 73.8,442.5 59.9,442.5 36.8,419.4 25.2,431     36.7,442.5 24.6,442.5 24.6,458.9 36.7,458.9 25.2,470.4 36.8,482 59.9,458.9 73.8,458.9 73.8,472.8 50.7,495.8 62.3,507.4     73.8,495.9 73.8,508 90.2,508 90.2,495.9 101.7,507.4 113.3,495.8 90.2,472.8 90.2,458.9 104.1,458.9 127.2,482 138.8,470.4     127.3,458.9 139.3,458.9   "/>
	</g>
</g>
<g>
	<g>
		<polygon points="434.4,442.5 422.4,442.5 433.9,431 422.3,419.4 399.2,442.5 385.3,442.5 385.3,428.6 408.4,405.5 396.8,394     385.3,405.5 385.3,393.4 368.9,393.4 368.9,405.5 357.4,394 345.8,405.5 368.9,428.6 368.9,442.5 355,442.5 331.9,419.4     320.3,431 331.8,442.5 319.7,442.5 319.7,458.9 331.8,458.9 320.3,470.4 331.9,482 355,458.9 368.9,458.9 368.9,472.8     345.8,495.8 357.4,507.4 368.9,495.9 368.9,508 385.3,508 385.3,495.9 396.8,507.4 408.4,495.8 385.3,472.8 385.3,458.9     399.2,458.9 422.3,482 433.9,470.4 422.4,458.9 434.4,458.9   "/>
	</g>
</g>
<g>
	<g>
		<path d="M82,147.8h16.4c0-18.1,14.7-32.7,32.8-32.7V98.7C104,98.7,82,120.7,82,147.8z"/>
	</g>
</g>
<g>
	<g>
		<path d="M508,144c0-22.4-14.3-41.8-35.2-48.8C463.9,71,442,53.5,416.4,50.1C400,19.5,367.7,0,332.9,0c-23.2,0-45.2,8.5-62.6,24    c-12.9-4.6-26.7-7.2-40.8-7.2c-38.9,0-75.5,18.5-98.7,49.6c-40.6,3.8-73.9,35-80.4,75C21.3,148.4,0,174.7,0,205.1    c0,36.1,29.4,65.5,65.6,65.5h23.6c15.4,15.7,36.5,24.6,58.4,24.6c21.9,0,43-8.9,58.4-24.6h187.5c36.2,0,65.6-29.4,65.6-65.5    c0-3.3-0.3-6.6-0.9-9.8C485.8,194.5,508,171.8,508,144z M393.5,254.2H198.8c0,0-14.8,24.6-51.2,24.6c-36.1,0-51.2-24.6-51.2-24.6    H65.6c-27.1,0-49.2-22-49.2-49.1c0-24.4,18.3-45.3,42.5-48.6l6.5-0.9l0.6-6.5c3.3-36.2,33.3-64.8,69.7-66.6l4-0.2L142,79    c20-28.7,52.7-45.8,87.5-45.8c40.9,0,78.7,24,96.3,61.1l2.1,4.4l4.8,0.3c30.8,2,57.3,23.2,66,52.7l1.3,4.6l4.7,1.1    c22.4,5.2,38,24.9,38,47.8C442.6,232.2,420.6,254.2,393.5,254.2z M456.5,179.1h-3c-7.6-17.4-22.5-30.8-40.6-36.4    c-11.3-32.3-40.4-55.6-74.4-59.6C327,60.9,309.1,43,287.2,31.3c13.3-9.7,29.1-14.9,45.7-14.9c30.1,0,57.9,17.6,70.8,44.9l2.1,4.4    l4.8,0.3c22.4,1.4,41.6,16.8,47.9,38.3l1.3,4.6l4.7,1.1c15.9,3.7,27.1,17.7,27.1,34.1C491.6,163.3,475.9,179.1,456.5,179.1z"/>
	</g>
</g>
<g>
</g>
<g>
</g>
<g>
</g>
<g>
</g>
<g>
</g>
<g>
</g>
<g>
</g>
<g>
</g>
<g>
</g>
<g>
</g>
<g>
</g>
<g>
</g>
<g>
</g>
<g>
</g>
<g>
</g>
</svg>
