<?xml version="1.0" encoding="iso-8859-1"?>
<!-- Generator: Adobe Illustrator 19.0.0, SVG Export Plug-In . SVG Version: 6.00 Build 0)  -->
<svg xmlns="http://www.w3.org/2000/svg" xmlns:xlink="http://www.w3.org/1999/xlink" version="1.1" id="Capa_1" x="0px" y="0px" viewBox="0 0 508 508" style="enable-background:new 0 0 508 508;" xml:space="preserve">
<g>
	<g>
		<polygon points="311.45,360.5 299.35,360.5 310.85,349 299.35,337.4 276.25,360.5 262.35,360.5 262.35,346.6 285.35,323.5     273.85,311.9 262.35,323.4 262.35,311.4 245.95,311.4 245.95,323.4 234.45,311.9 222.85,323.5 245.95,346.6 245.95,360.5     232.05,360.5 208.95,337.4 197.35,349 208.85,360.5 196.75,360.5 196.75,376.9 208.85,376.9 197.35,388.4 208.95,400     232.05,376.9 245.95,376.9 245.95,390.8 222.85,413.9 234.45,425.5 245.95,414 245.95,426.1 262.35,426.1 262.35,414     273.85,425.5 285.35,413.9 262.35,390.8 262.35,376.9 276.25,376.9 299.35,400 310.85,388.4 299.35,376.9 311.45,376.9   "/>
	</g>
</g>
<g>
	<g>
		<polygon points="163.95,442.5 151.85,442.5 163.35,430.9 151.75,419.4 128.65,442.5 114.75,442.5 114.75,428.5 137.85,405.5     126.25,393.9 114.75,405.4 114.75,393.3 98.35,393.3 98.35,405.4 86.85,393.9 75.25,405.5 98.35,428.5 98.35,442.5 84.45,442.5     61.35,419.4 49.75,430.9 61.35,442.5 49.25,442.5 49.25,458.8 61.35,458.8 49.75,470.3 61.35,481.9 84.45,458.8 98.35,458.8     98.35,472.7 75.25,495.8 86.85,507.4 98.35,495.9 98.35,508 114.75,508 114.75,495.9 126.25,507.4 137.85,495.8 114.75,472.7     114.75,458.8 128.65,458.8 151.75,481.9 163.35,470.3 151.85,458.8 163.95,458.8   "/>
	</g>
</g>
<g>
	<g>
		<polygon points="458.95,442.5 446.95,442.5 458.45,430.9 446.85,419.4 423.75,442.5 409.85,442.5 409.85,428.5 432.95,405.5     421.35,393.9 409.85,405.4 409.85,393.3 393.45,393.3 393.45,405.4 381.95,393.9 370.35,405.5 393.45,428.5 393.45,442.5     379.55,442.5 356.45,419.4 344.85,430.9 356.35,442.5 344.25,442.5 344.25,458.8 356.35,458.8 344.85,470.3 356.45,481.9     379.55,458.8 393.45,458.8 393.45,472.7 370.35,495.8 381.95,507.4 393.45,495.9 393.45,508 409.85,508 409.85,495.9     421.35,507.4 432.95,495.8 409.85,472.7 409.85,458.8 423.75,458.8 446.85,481.9 458.45,470.3 446.95,458.8 458.95,458.8   "/>
	</g>
</g>
<g>
	<g>
		<path d="M457.05,139.7c-12.4-36-44.7-61.8-82.5-66.1c-23.2-44.9-70-73.6-120.5-73.6c-43,0-83.5,20.5-109.1,55.1    c-45.1,4.1-82,38.8-89,83.3c-32.3,7.4-55.9,36.4-55.9,70c0,39.6,32.3,71.9,71.9,71.9h26.5c17,17.4,40.3,27.3,64.5,27.3    c24.3,0,47.6-9.9,64.5-27.3h208.6c39.7,0,71.9-32.3,71.9-71.9C508.05,176.4,487.35,148.8,457.05,139.7z M436.15,264h-215.9    c0,0-21.9,27.3-57.3,27.3c-36.7,0-57.3-27.3-57.3-27.3h-33.7c-30.6,0-55.5-24.9-55.5-55.5c0-27.6,20.6-51.2,48-54.9l6.5-0.9    l0.6-6.5c3.7-40.7,37.4-72.9,78.3-74.9l4-0.2l2.3-3.3c22.3-32.1,59-51.3,98-51.3c45.8,0,88.1,26.9,107.8,68.4l2.1,4.4l4.8,0.3    c34.6,2.2,64.3,26,74.1,59.3l1.3,4.6l4.7,1.1c25.3,5.9,42.9,28.1,42.9,54C491.65,239,466.75,264,436.15,264z"/>
	</g>
</g>
<g>
	<g>
		<path d="M90.15,147.4h16.4c0-22.5,18.3-40.9,40.9-40.9V90.1C115.85,90.1,90.15,115.8,90.15,147.4z"/>
	</g>
</g>
<g>
</g>
<g>
</g>
<g>
</g>
<g>
</g>
<g>
</g>
<g>
</g>
<g>
</g>
<g>
</g>
<g>
</g>
<g>
</g>
<g>
</g>
<g>
</g>
<g>
</g>
<g>
</g>
<g>
</g>
</svg>
