<?xml version="1.0" encoding="iso-8859-1"?>
<!-- Generator: Adobe Illustrator 19.0.0, SVG Export Plug-In . SVG Version: 6.00 Build 0)  -->
<svg xmlns="http://www.w3.org/2000/svg" xmlns:xlink="http://www.w3.org/1999/xlink" version="1.1" id="Capa_1" x="0px" y="0px" viewBox="0 0 507.901 507.901" style="enable-background:new 0 0 507.901 507.901;" xml:space="preserve">
<g>
	<g>
		<path d="M335.9,160.3v16.4c49.7,0,90.1,40.4,90.1,90.1h16.4C442.5,208.1,394.7,160.3,335.9,160.3z"/>
	</g>
</g>
<g>
	<g>
		<path d="M477.8,279c0.5-4.6,0.7-8.7,0.7-12.7c0-74.5-61-135.2-136-135.2c-40.2,0-77.6,17.3-103.6,47.7    c-29.6-11.1-54.3-8.2-59.4-7.5c-4.4-31.9-31.8-56.6-64.9-56.6c-36.1,0-65.5,29.4-65.5,65.5c0,26.1,15.7,49.4,39,59.8    c-3.8,8.7-6.6,18-8.1,27.8H67.2c-37,0-67.2,30-67.2,66.8s30.1,66.8,67.2,66.8h29.2c20.1,25.7,51.2,41,83.8,41    c32.7,0,63.7-15.2,83.8-41h176.7c37,0,67.2-30,67.2-66.8C508,312.2,496.6,291.3,477.8,279z M65.6,180.3    c0-27.1,22.1-49.2,49.2-49.2c25.3,0,46.1,19.2,48.9,43.4c-28.3,7.9-52.4,26.1-67.8,51.1C77.7,218.1,65.6,200.2,65.6,180.3z     M440.8,385.1h-185c0,0-23.1,41-75.6,41c-49.2,0-75.6-41-75.6-41H67.2c-28,0-50.8-22.6-50.8-50.4s22.8-50.4,50.8-50.4h27.6    l0.7-7.5c4.7-51.4,47.4-90.2,99.5-90.2c28.1,0,48.8,12.5,48.8,12.5s37.4-51.6,98.7-51.6c66,0,119.6,53.3,119.6,118.8    c0,12.3-1.9,21.5-1.9,21.5l4.9,2.7c16.3,8.9,26.5,25.9,26.5,44.2C491.6,362.5,468.8,385.1,440.8,385.1z"/>
	</g>
</g>
<g>
	<g>
		<rect x="106.5" y="65.5" width="16.4" height="32.8"/>
	</g>
</g>
<g>
	<g>
		<rect x="37.025" y="94.318" transform="matrix(0.7071 -0.7071 0.7071 0.7071 -65.043 64.407)" width="16.4" height="32.8"/>
	</g>
</g>
<g>
	<g>
		<rect y="172.1" width="32.8" height="16.4"/>
	</g>
</g>
<g>
	<g>
		<rect x="28.757" y="241.588" transform="matrix(0.707 -0.7072 0.7072 0.707 -163.421 105.1213)" width="32.8" height="16.4"/>
	</g>
</g>
<g>
	<g>
		<rect x="167.842" y="102.483" transform="matrix(0.7071 -0.7071 0.7071 0.7071 -24.3013 162.6965)" width="32.8" height="16.4"/>
	</g>
</g>
<g>
</g>
<g>
</g>
<g>
</g>
<g>
</g>
<g>
</g>
<g>
</g>
<g>
</g>
<g>
</g>
<g>
</g>
<g>
</g>
<g>
</g>
<g>
</g>
<g>
</g>
<g>
</g>
<g>
</g>
</svg>
