<?xml version="1.0" encoding="iso-8859-1"?>
<!-- Generator: Adobe Illustrator 19.0.0, SVG Export Plug-In . SVG Version: 6.00 Build 0)  -->
<svg xmlns="http://www.w3.org/2000/svg" xmlns:xlink="http://www.w3.org/1999/xlink" version="1.1" id="Capa_1" x="0px" y="0px" viewBox="0 0 507.901 507.901" style="enable-background:new 0 0 507.901 507.901;" xml:space="preserve">
<g>
	<g>
		<path d="M254,382.85c0,0-41,60.4-41,80c0,22.6,18.4,41,41,41c22.6,0,41-18.4,41-41C295,443.15,254,382.85,254,382.85z M254,487.45    c-13.6,0-24.6-11-24.6-24.6c0-8.9,12.8-32.3,24.6-50.7c11.8,18.4,24.6,41.8,24.6,50.7C278.6,476.45,267.6,487.45,254,487.45z"/>
	</g>
</g>
<g>
	<g>
		<path d="M98.4,382.85c0,0-41,60.4-41,80c0,22.6,18.4,41,41,41c22.6,0,41-18.4,41-41C139.4,443.15,98.4,382.85,98.4,382.85z     M98.3,487.45c-13.6,0-24.6-11-24.6-24.6c0-8.9,12.8-32.3,24.6-50.7c11.8,18.4,24.6,41.8,24.6,50.7    C122.9,476.45,111.9,487.45,98.3,487.45z"/>
	</g>
</g>
<g>
	<g>
		<path d="M409.7,382.85c0,0-41,60.4-41,80c0,22.6,18.4,41,41,41c22.6,0,41-18.4,41-41C450.7,443.15,409.7,382.85,409.7,382.85z     M409.7,487.45c-13.6,0-24.6-11-24.6-24.6c0-8.9,12.8-32.3,24.6-50.7c11.8,18.4,24.6,41.8,24.6,50.7    C434.3,476.45,423.2,487.45,409.7,487.45z"/>
	</g>
</g>
<g>
	<g>
		<path d="M335.9,98.85v16.4c49.7,0,90.1,40.4,90.1,90.1h16.4C442.5,146.65,394.7,98.85,335.9,98.85z"/>
	</g>
</g>
<g>
	<g>
		<path d="M477.8,217.45c0.5-4.6,0.7-8.7,0.7-12.7c0-74.5-61-135.2-136-135.2c-40.2,0-77.6,17.3-103.6,47.7    c-29.6-11.1-54.3-8.2-59.4-7.5c-4.4-31.9-31.8-56.6-64.9-56.6c-36.1,0-65.5,29.4-65.5,65.5c0,26.1,15.7,49.4,39,59.8    c-3.8,8.7-6.6,18-8.1,27.8H67.2c-37,0-67.2,30-67.2,66.8c0,36.8,30.1,66.9,67.2,66.9h29.2c20.1,25.7,51.2,41,83.8,41    c32.7,0,63.7-15.2,83.8-41h176.7c37,0,67.2-30,67.2-66.8C508,250.65,496.6,229.85,477.8,217.45z M65.6,118.75    c0-27.1,22.1-49.2,49.2-49.2c25.3,0,46.1,19.2,48.9,43.4c-28.3,7.9-52.4,26.1-67.8,51.1C77.7,156.55,65.6,138.75,65.6,118.75z     M440.8,323.55h-185c0,0-23.1,41-75.6,41c-49.2,0-75.6-41-75.6-41H67.2c-28,0-50.8-22.6-50.8-50.4s22.8-50.4,50.8-50.4h27.6    l0.7-7.5c4.7-51.4,47.4-90.2,99.5-90.2c28.1,0,48.8,12.5,48.8,12.5s37.4-51.6,98.7-51.6c66,0,119.6,53.3,119.6,118.8    c0,12.3-1.9,21.5-1.9,21.5l4.9,2.7c16.3,8.9,26.5,25.9,26.5,44.2C491.6,300.95,468.8,323.55,440.8,323.55z"/>
	</g>
</g>
<g>
	<g>
		<rect x="106.5" y="4.05" width="16.4" height="32.8"/>
	</g>
</g>
<g>
	<g>
		<rect x="36.981" y="32.854" transform="matrix(0.7071 -0.7071 0.7071 0.7071 -21.5945 46.3738)" width="16.4" height="32.8"/>
	</g>
</g>
<g>
	<g>
		<rect y="110.55" width="32.8" height="16.4"/>
	</g>
</g>
<g>
	<g>
		<rect x="28.8" y="180.128" transform="matrix(0.707 -0.7072 0.7072 0.707 -119.9438 87.1443)" width="32.8" height="16.4"/>
	</g>
</g>
<g>
	<g>
		<rect x="167.808" y="41.017" transform="matrix(0.7071 -0.7071 0.7071 0.7071 19.1518 144.6698)" width="32.8" height="16.4"/>
	</g>
</g>
<g>
</g>
<g>
</g>
<g>
</g>
<g>
</g>
<g>
</g>
<g>
</g>
<g>
</g>
<g>
</g>
<g>
</g>
<g>
</g>
<g>
</g>
<g>
</g>
<g>
</g>
<g>
</g>
<g>
</g>
</svg>
