<?xml version="1.0" encoding="iso-8859-1"?>
<!-- Generator: Adobe Illustrator 19.0.0, SVG Export Plug-In . SVG Version: 6.00 Build 0)  -->
<svg xmlns="http://www.w3.org/2000/svg" xmlns:xlink="http://www.w3.org/1999/xlink" version="1.1" id="Capa_1" x="0px" y="0px" viewBox="0 0 508.1 508.1" style="enable-background:new 0 0 508.1 508.1;" xml:space="preserve">
<g>
	<g>
		<path d="M508.1,245.8H508h-54l27-27l-11.6-11.6l-38.6,38.6h-42.4l59.8-59.8l-11.6-11.6l-71.3,71.3H319    c-1.5-11.9-6.2-22.9-13.3-31.9l52.4-52.4l-11.6-11.6l-52.4,52.4c-9.1-7-20-11.8-31.9-13.3v-46.3l71.3-71.3l-11.6-11.6l-59.8,59.8    V77.1l38.6-38.6L289.2,27l-27,27V0h-16.4v54l-27-27l-11.6,11.6l38.6,38.6v42.4L186,59.8l-11.6,11.6l71.3,71.3V189    c-11.9,1.5-22.9,6.2-31.9,13.3l-52.4-52.4l-11.6,11.6l52.4,52.4c-7,9.1-11.8,20-13.3,31.9h-46.3l-71.3-71.3l-11.6,11.6l59.8,59.8    H77.1l-38.6-38.6L27,218.8l27,27H0v16.4h54l-27,27l11.6,11.6l38.6-38.6h42.4L59.8,322l11.6,11.6l71.3-71.3H189    c1.5,12,6.3,23.1,13.4,32.2L149.9,347l11.6,11.6l52.6-52.6c9,6.9,19.9,11.6,31.7,13.1v46.3l-71.3,71.3l11.6,11.6l59.8-59.8v42.4    l-38.6,38.6l11.6,11.6l27-27v54h16.4v-54l27,27l11.6-11.6l-38.6-38.6v-42.4l59.8,59.8l11.6-11.6l-71.3-71.3V319    c11.8-1.5,22.7-6.1,31.7-13.1l52.6,52.6l11.6-11.6l-52.6-52.6c7.2-9.1,11.9-20.1,13.4-32.2h46.3l71.3,71.3l11.6-11.6L388.5,262    h42.4l38.6,38.6l11.6-11.6l-27-27h54V245.8z M254,303.2c-27.1,0-49.2-22.1-49.2-49.2c0-27.1,22.1-49.2,49.2-49.2    c27.1,0,49.2,22.1,49.2,49.2S281.1,303.2,254,303.2z"/>
	</g>
</g>
<g>
</g>
<g>
</g>
<g>
</g>
<g>
</g>
<g>
</g>
<g>
</g>
<g>
</g>
<g>
</g>
<g>
</g>
<g>
</g>
<g>
</g>
<g>
</g>
<g>
</g>
<g>
</g>
<g>
</g>
</svg>
