<?xml version="1.0" encoding="iso-8859-1"?>
<!-- Generator: Adobe Illustrator 19.0.0, SVG Export Plug-In . SVG Version: 6.00 Build 0)  -->
<svg xmlns="http://www.w3.org/2000/svg" xmlns:xlink="http://www.w3.org/1999/xlink" version="1.1" id="Capa_1" x="0px" y="0px" viewBox="0 0 507.901 507.901" style="enable-background:new 0 0 507.901 507.901;" xml:space="preserve">
<g>
	<g>
		<path d="M335.9,63.138v16.4c49.7,0,90.1,40.4,90.1,90.1h16.4C442.5,110.937,394.7,63.138,335.9,63.138z"/>
	</g>
</g>
<g>
	<g>
		<path d="M477.8,181.837c0.5-4.6,0.7-8.7,0.7-12.7c0-74.5-61-135.2-136-135.2c-40.2,0-77.6,17.3-103.6,47.7    c-14.1-5.7-28.8-8.7-43.9-8.7c-58,0-106.2,41.5-114.9,97.7H67.2c-37,0-67.2,30-67.2,66.8s30.1,66.8,67.2,66.8h29.2    c20.1,25.7,51.2,41,83.8,41c32.7,0,63.7-15.2,83.8-41h176.7c37,0,67.2-30,67.2-66.8C508,215.037,496.6,194.137,477.8,181.837z     M440.8,287.938h-185c0,0-26.5,41-75.6,41c-49.7,0-75.6-41-75.6-41H67.2c-28,0-50.8-22.6-50.8-50.4s22.8-50.4,50.8-50.4h27.6    l0.7-7.5c4.7-51.4,47.4-90.2,99.5-90.2c30,0,48.8,12.5,48.8,12.5s34.5-51.6,98.7-51.6c66,0,119.6,53.3,119.6,118.8    c0,11.2-1.9,21.5-1.9,21.5s31.4,11.7,31.4,46.9C491.6,265.337,468.8,287.938,440.8,287.938z"/>
	</g>
</g>
<g>
	<g>
		<rect x="60.786" y="382.104" transform="matrix(0.7071 -0.7071 0.7071 0.7071 -253.0864 169.6025)" width="34.8" height="16.4"/>
	</g>
</g>
<g>
	<g>
		<rect x="118.102" y="382.137" transform="matrix(0.7071 -0.7071 0.7071 0.7071 -236.3224 210.1417)" width="34.8" height="16.4"/>
	</g>
</g>
<g>
	<g>
		<rect x="175.49" y="382.12" transform="matrix(0.7071 -0.7071 0.7071 0.7071 -219.5016 250.7157)" width="34.8" height="16.4"/>
	</g>
</g>
<g>
	<g>
		<rect x="232.807" y="382.153" transform="matrix(0.7071 -0.7071 0.7071 0.7071 -202.7374 291.2545)" width="34.8" height="16.4"/>
	</g>
</g>
<g>
	<g>
		<rect x="290.194" y="382.125" transform="matrix(0.7071 -0.7071 0.7071 0.7071 -185.9095 331.8256)" width="34.8" height="16.4"/>
	</g>
</g>
<g>
	<g>
		<rect x="347.511" y="382.159" transform="matrix(0.7071 -0.7071 0.7071 0.7071 -169.1452 372.3644)" width="34.8" height="16.4"/>
	</g>
</g>
<g>
	<g>
		<rect x="404.894" y="382.119" transform="matrix(0.7071 -0.7071 0.7071 0.7071 -152.3103 412.9284)" width="34.8" height="16.4"/>
	</g>
</g>
<g>
	<g>
		<rect x="81.298" y="447.661" transform="matrix(0.7071 -0.7071 0.7071 0.7071 -293.4352 203.3089)" width="34.8" height="16.4"/>
	</g>
</g>
<g>
	<g>
		<rect x="138.62" y="447.624" transform="matrix(0.7071 -0.7071 0.7071 0.7071 -276.619 243.8305)" width="34.8" height="16.4"/>
	</g>
</g>
<g>
	<g>
		<rect x="195.955" y="447.596" transform="matrix(0.7071 -0.7071 0.7071 0.7071 -259.8064 284.3635)" width="34.8" height="16.4"/>
	</g>
</g>
<g>
	<g>
		<rect x="253.346" y="447.64" transform="matrix(0.7071 -0.7071 0.7071 0.7071 -243.0277 324.9584)" width="34.8" height="16.4"/>
	</g>
</g>
<g>
	<g>
		<rect x="310.668" y="447.612" transform="matrix(0.7071 -0.7071 0.7071 0.7071 -226.2188 365.4834)" width="34.8" height="16.4"/>
	</g>
</g>
<g>
	<g>
		<rect x="368.061" y="447.645" transform="matrix(0.7071 -0.7071 0.7071 0.7071 -209.4323 406.0769)" width="34.8" height="16.4"/>
	</g>
</g>
<g>
</g>
<g>
</g>
<g>
</g>
<g>
</g>
<g>
</g>
<g>
</g>
<g>
</g>
<g>
</g>
<g>
</g>
<g>
</g>
<g>
</g>
<g>
</g>
<g>
</g>
<g>
</g>
<g>
</g>
</svg>
