<?xml version="1.0" encoding="iso-8859-1"?>
<!-- Generator: Adobe Illustrator 19.0.0, SVG Export Plug-In . SVG Version: 6.00 Build 0)  -->
<svg xmlns="http://www.w3.org/2000/svg" xmlns:xlink="http://www.w3.org/1999/xlink" version="1.1" id="Capa_1" x="0px" y="0px" viewBox="0 0 507.901 507.901" style="enable-background:new 0 0 507.901 507.901;" xml:space="preserve">
<g>
	<g>
		<path d="M335.9,66.627v16.4c49.7,0,90.1,40.4,90.1,90.1h16.4C442.5,114.427,394.7,66.627,335.9,66.627z"/>
	</g>
</g>
<g>
	<g>
		<path d="M477.8,181.827c0.5-4.6,0.7-8.7,0.7-12.7c0-74.5-61-135.2-136-135.2c-40.2,0-77.6,17.3-103.5,47.7    c-14.1-5.7-28.9-8.7-44-8.7c-58,0-106.2,41.5-114.9,97.7H67.2c-37,0-67.2,30-67.2,66.8s30.1,66.8,67.2,66.8h29.2    c20.1,25.7,51.2,41,83.8,41c32.7,0,63.7-15.2,83.8-41h176.7c37,0,67.2-30,67.2-66.8C508,215.027,496.6,194.127,477.8,181.827z     M440.8,287.927h-185c0,0-27,41-75.6,41c-52,0-75.6-41-75.6-41H67.2c-28,0-50.8-22.6-50.8-50.4s22.8-50.4,50.8-50.4h27.6l0.7-7.5    c4.7-51.4,47.4-90.2,99.5-90.2c23.8,0,48.8,12.5,48.8,12.5s33.1-51.6,98.7-51.6c66,0,119.6,53.3,119.6,118.8c0,11.2-2,21.5-2,21.5    s31.4,10.7,31.4,46.9C491.6,265.327,468.8,287.927,440.8,287.927z"/>
	</g>
</g>
<g>
	<g>
		<rect x="67.014" y="443.606" transform="matrix(0.7071 -0.7071 0.7071 0.7071 -293.0668 196.0861)" width="46.3" height="16.4"/>
	</g>
</g>
<g>
	<g>
		<rect x="173.473" y="443.539" transform="matrix(0.7071 -0.7071 0.7071 0.7071 -261.8383 271.3445)" width="46.3" height="16.4"/>
	</g>
</g>
<g>
	<g>
		<rect x="280.001" y="443.553" transform="matrix(0.7071 -0.7071 0.7071 0.7071 -230.6469 346.6756)" width="46.3" height="16.4"/>
	</g>
</g>
<g>
	<g>
		<rect x="386.535" y="443.557" transform="matrix(0.7071 -0.7071 0.7071 0.7071 -199.4465 422.007)" width="46.3" height="16.4"/>
	</g>
</g>
<g>
	<g>
		<rect x="148.898" y="378.033" transform="matrix(0.7071 -0.7071 0.7071 0.7071 -222.7165 234.7808)" width="46.3" height="16.4"/>
	</g>
</g>
<g>
	<g>
		<rect x="255.404" y="378.047" transform="matrix(0.7071 -0.7071 0.7071 0.7071 -191.5315 310.0965)" width="46.3" height="16.4"/>
	</g>
</g>
<g>
	<g>
		<rect x="361.91" y="378.061" transform="matrix(0.7071 -0.7071 0.7071 0.7071 -160.3464 385.4118)" width="46.3" height="16.4"/>
	</g>
</g>
<g>
</g>
<g>
</g>
<g>
</g>
<g>
</g>
<g>
</g>
<g>
</g>
<g>
</g>
<g>
</g>
<g>
</g>
<g>
</g>
<g>
</g>
<g>
</g>
<g>
</g>
<g>
</g>
<g>
</g>
</svg>
