<?xml version="1.0" encoding="iso-8859-1"?>
<!-- Generator: Adobe Illustrator 19.0.0, SVG Export Plug-In . SVG Version: 6.00 Build 0)  -->
<svg xmlns="http://www.w3.org/2000/svg" xmlns:xlink="http://www.w3.org/1999/xlink" version="1.1" id="Capa_1" x="0px" y="0px" viewBox="0 0 508 508" style="enable-background:new 0 0 508 508;" xml:space="preserve">
<g>
	<g>
		<path d="M333.6,176.45v16.6c32.1,0,58.1,26.1,58.1,58.1h16.6C408.3,209.95,374.8,176.45,333.6,176.45z"/>
	</g>
</g>
<g>
	<g>
		<path d="M449.8,246.75c-2.4-62-53.6-111.8-116.2-111.8c-27.7,0-53.7,9.7-74.2,26.9l-48.1-9.8l7.1-59l-54.1,24.5l-28.9-51.9    l-29.4,51.7l-54-25l6.6,59.1l-58.3,11.5l40.1,43.9L0,250.45l58.2,12l-7.1,59l26.7-12.1c-1.1,5.4-10.8,50,34.1,85    c8.2,28.4,33.9,48,63.8,48c23.7,0,45.7-12.9,57.5-33.2h191.7c45.8,0,83.1-37.3,83.1-83.1C508,289.15,484.4,257.45,449.8,246.75z     M80.5,289.75l-9.4,4.3l5.4-44.8l-44.3-9.1l30.7-33.2l-30.5-33.4l44.3-8.8l-5-44.9l41.1,19l22.3-39.3l21.9,39.4l41.2-18.7    l-5.4,44.9l51.7,11.2c0,0-4.3,5.4-5.1,6.6c-9.6-4.3-30.5-10-54.9-2.4c-10.2-17.9-29.2-29.1-50.3-29.1c-32.1,0-58.1,26.1-58.1,58.1    c0,22.3,12.5,41.6,31.2,51.3c-10.5,8.3-18.8,19.1-24.2,31.4C82,291.85,81,290.95,80.5,289.75z M169.5,187.75    c-0.1,0.1-28.7,12.5-35.2,59c0,0-6.2,2.2-9.1,3.5c0,0,0,0-0.1,0c-19-4.1-32.5-20.8-32.5-40.5c0-22.9,18.6-41.5,41.5-41.5    C148.7,168.15,162.1,175.85,169.5,187.75z M424.9,392.35H223c0,0-9.9,33.2-47.2,33.2c-41.8,0-49.2-41.8-49.2-41.8l-2.9-1.8    c-19.4-12.3-31-33.3-31-56.1c0-31.2,21.3-57.9,51.8-64.8l6.6-1.5l-0.3-8.5c0-32.1,26.1-58.1,58.1-58.1c10.2,0,20.2,2.7,29.1,7.9    l6.9,4l4.3-6.8c18.4-29.2,49.9-46.6,84.3-46.6c55,0,99.7,44.7,99.6,100.1l-0.2,8l6.6,1.5c30.5,6.9,51.8,33.5,51.8,64.8    C491.4,362.55,461.6,392.35,424.9,392.35z"/>
	</g>
</g>
<g>
</g>
<g>
</g>
<g>
</g>
<g>
</g>
<g>
</g>
<g>
</g>
<g>
</g>
<g>
</g>
<g>
</g>
<g>
</g>
<g>
</g>
<g>
</g>
<g>
</g>
<g>
</g>
<g>
</g>
</svg>
