<?xml version="1.0" encoding="iso-8859-1"?>
<!-- Generator: Adobe Illustrator 19.0.0, SVG Export Plug-In . SVG Version: 6.00 Build 0)  -->
<svg xmlns="http://www.w3.org/2000/svg" xmlns:xlink="http://www.w3.org/1999/xlink" version="1.1" id="Capa_1" x="0px" y="0px" viewBox="0 0 508 508" style="enable-background:new 0 0 508 508;" xml:space="preserve">
<g>
	<g>
		<path d="M335.95,98.8v16.5c49.7,0,90.1,40.6,90.1,90.6h16.4C442.55,146.8,394.75,98.8,335.95,98.8z"/>
	</g>
</g>
<g>
	<g>
		<path d="M477.85,214.4c0.5-4.6,0.7-8.7,0.7-12.7c0-74.9-61-135.8-136-135.8c-40.2,0-77.6,17.4-103.5,48    c-8.4-3.5-17.1-5.8-25.9-7.1c0-8.1-1.3-16-3.5-23.4l15.5-6.5l-6.3-15.2l-15.5,6.5c-2.5-4.7-5.4-9.1-8.8-13.1l17.7-17.8l-11.6-11.6    l-17.7,17.8c-4.1-3.3-8.4-6.3-13.1-8.8l6.4-15.6l-15.1-6.3l-6.4,15.6c-5-1.5-10.1-2.6-15.4-3.1V0h-16.4v25.1    c-5.3,0.5-10.5,1.6-15.4,3.1l-6.5-15.6l-15.1,6.3l6.4,15.6c-4.6,2.5-9,5.5-13.1,8.8l-17.6-17.8l-11.6,11.7L67.75,55    c-3.3,4.1-6.3,8.5-8.8,13.1l-15.5-6.5l-6.3,15.2l15.5,6.5c-1.5,5-2.6,10.2-3.1,15.5h-25v16.5h25.2c0.5,5.3,1.4,10.5,2.9,15.5    l-15.6,6.5l6.3,15.2l15.7-6.5c2.5,4.6,5.3,9.1,8.6,13.2l-17.6,17.7l11.6,11.6l17.8-17.9c2.6,2.1,5.4,4.1,8.2,6    c-3.5,8.4-6.1,17.3-7.5,26.7h-12.9c-37,0-67.2,30.1-67.2,67.1c0,37,30.1,67.1,67.2,67.1h29.2c20.1,25.9,51.2,41.2,83.8,41.2    c32.7,0,63.7-15.3,83.8-41.2h176.7c37,0,67.2-30.1,67.2-67.1C508.05,247.8,496.65,226.9,477.85,214.4z M65.55,107    c0-36.3,29.4-65.9,65.5-65.9c35.5,0,64.5,28.5,65.5,64c-0.5,0-66.4-4.2-101.6,56.8C76.75,149.8,65.55,129.4,65.55,107z     M440.85,321.1h-185c0,0-30,41.2-75.6,41.2c-48,0-75.6-41.2-75.6-41.2h-37.4c-28,0-50.8-22.7-50.8-50.7    c0-27.9,22.8-50.7,50.8-50.7h27.6l0.7-7.5c4.7-51.7,47.4-90.7,99.5-90.7c29.4,0,48.8,12.6,48.8,12.6s29.8-51.8,98.7-51.8    c66,0,119.6,53.6,119.6,119.4c0,13.3-2,21.6-2,21.6s31.4,14.6,31.4,47.1C491.65,298.3,468.85,321.1,440.85,321.1z"/>
	</g>
</g>
<g>
	<g>
		<polygon points="100.75,463.4 67.95,496.4 79.55,508 112.35,475.1   "/>
	</g>
</g>
<g>
	<g>
		<polygon points="207.25,463.4 174.55,496.4 186.15,508 218.85,475.1   "/>
	</g>
</g>
<g>
	<g>
		<polygon points="313.85,463.4 281.05,496.4 292.65,508 325.35,475.1   "/>
	</g>
</g>
<g>
	<g>
		<polygon points="420.35,463.4 387.55,496.4 399.15,508 431.95,475.1   "/>
	</g>
</g>
<g>
	<g>
		<polygon points="182.75,397.6 149.95,430.5 161.55,442.1 194.25,409.2   "/>
	</g>
</g>
<g>
	<g>
		<polygon points="289.25,397.6 256.45,430.5 268.05,442.1 300.85,409.2   "/>
	</g>
</g>
<g>
	<g>
		<polygon points="395.75,397.6 362.95,430.5 374.55,442.1 407.35,409.2   "/>
	</g>
</g>
<g>
</g>
<g>
</g>
<g>
</g>
<g>
</g>
<g>
</g>
<g>
</g>
<g>
</g>
<g>
</g>
<g>
</g>
<g>
</g>
<g>
</g>
<g>
</g>
<g>
</g>
<g>
</g>
<g>
</g>
</svg>
