<?xml version="1.0" encoding="iso-8859-1"?>
<!-- Generator: Adobe Illustrator 19.0.0, SVG Export Plug-In . SVG Version: 6.00 Build 0)  -->
<svg xmlns="http://www.w3.org/2000/svg" xmlns:xlink="http://www.w3.org/1999/xlink" version="1.1" id="Capa_1" x="0px" y="0px" viewBox="0 0 508 508" style="enable-background:new 0 0 508 508;" xml:space="preserve">
<g>
	<g>
		<path d="M98.3,225.25h16.4c0-31.6,25.7-57.4,57.4-57.4v-16.4C131.4,151.55,98.3,184.65,98.3,225.25z"/>
	</g>
</g>
<g>
	<g>
		<path d="M450.1,214.85c-5.4-77.3-68.9-137-147-137c-39.4,0-77.4,16.1-105.1,44.2c-8.5-2.1-17.3-3.2-26-3.2    c-53.8,0-99,40.5-105.6,93.3C27.6,222.55,0,258.25,0,299.05c0,49.7,40.4,90.1,90.1,90.1h178.4c20.1,25.7,51.2,41,83.8,41    c33.8,0,65.6-16.1,85.7-43.3c40.8-9.3,70-45.7,70-87.8C508,261.25,485,228.15,450.1,214.85z M431.7,371.45l-3.3,0.6    c0,0-26.2,41.7-76,41.7c-48.8,0-75.6-41-75.6-41H90.1c-40.7,0-73.7-33.1-73.7-73.7c0-35.1,24.9-65.5,59.3-72.3l6.2-1.2l0.4-6.3    c3.1-47.1,42.6-84.1,89.8-84.1c18.3,0,31.1,5.4,31.1,5.4s35.7-46.4,100-46.4c71.1,0,128.6,55.7,130.9,126.8l0.2,5.8    c0,0,57.4,14.5,57.4,72.2C491.6,334.35,466.4,364.85,431.7,371.45z"/>
	</g>
</g>
<g>
</g>
<g>
</g>
<g>
</g>
<g>
</g>
<g>
</g>
<g>
</g>
<g>
</g>
<g>
</g>
<g>
</g>
<g>
</g>
<g>
</g>
<g>
</g>
<g>
</g>
<g>
</g>
<g>
</g>
</svg>
