<?xml version="1.0" encoding="iso-8859-1"?>
<!-- Generator: Adobe Illustrator 19.0.0, SVG Export Plug-In . SVG Version: 6.00 Build 0)  -->
<svg xmlns="http://www.w3.org/2000/svg" xmlns:xlink="http://www.w3.org/1999/xlink" version="1.1" id="Capa_1" x="0px" y="0px" viewBox="0 0 508 508" style="enable-background:new 0 0 508 508;" xml:space="preserve">
<g>
	<g>
		<path d="M450.1,158.03c-5.4-77.3-68.9-137-147-137c-39.4,0-77.4,16.1-105.1,44.2c-8.5-2.1-17.3-3.2-26-3.2    c-53.8,0-99,40.5-105.6,93.3C27.6,165.83,0,201.43,0,242.23c0,49.7,40.4,90.1,90.1,90.1h178.4c20.1,25.7,51.2,41,83.8,41    c33.8,0,65.6-16.1,85.7-43.3c40.8-9.3,70-45.7,70-87.8C508,204.53,485,171.33,450.1,158.03z M431.7,314.63l-3.3,0.6    c0,0-25.3,41.7-76,41.7c-49.5,0-75.6-41-75.6-41H90.1c-40.7,0-73.7-33.1-73.7-73.7c0-35.1,24.9-65.5,59.3-72.3l6.2-1.2l0.4-6.3    c3.1-47.1,42.6-84.1,89.8-84.1c16.6,0,31.1,5.4,31.1,5.4s33.6-46.4,100-46.4c71.1,0,128.6,55.7,130.9,126.8l0.2,5.8    c0,0,57.4,13.4,57.4,72.2C491.6,277.63,466.4,308.03,431.7,314.63z"/>
	</g>
</g>
<g>
	<g>
		<path d="M295,62.03v16.4c54.2,0,98.3,44.1,98.3,98.3h16.4C409.7,113.43,358.2,62.03,295,62.03z"/>
	</g>
</g>
<g>
	<g>
		<path d="M70,407.03c0,0-46.3,18.1-53.7,32.1c-5.8,11-7.4,32,13.9,44.2c6.8,3.9,31.3,9.5,44.2-13.9    C82.1,455.53,70,407.03,70,407.03z M59.9,461.93c-4.1,7.8-14.1,10.5-22.1,6.9c-4.1-1.8-12.3-11.3-6.9-22.1    c2.3-4.7,14.9-11.9,27.6-17.5C61.1,443.03,62.2,457.43,59.9,461.93z"/>
	</g>
</g>
<g>
	<g>
		<path d="M205.5,407.13c0,0-46.3,18.1-53.7,32.1c-5.8,11-7.4,32,13.9,44.2c6.8,3.9,31.3,9.5,44.2-13.9    C217.6,455.63,205.5,407.13,205.5,407.13z M195.4,462.03c-4.1,7.8-14.1,10.5-22.1,6.9c-4.1-1.8-12.3-11.3-6.9-22.1    c2.3-4.7,14.9-11.9,27.6-17.5C196.6,443.13,197.7,457.53,195.4,462.03z"/>
	</g>
</g>
<g>
	<g>
		<path d="M340.7,407.13c0,0-46.3,18.1-53.7,32.1c-5.8,11-7.4,32,13.9,44.2c6.8,3.9,31.3,9.5,44.2-13.9    C352.8,455.63,340.7,407.13,340.7,407.13z M330.5,462.03c-4.1,7.8-14.1,10.5-22.1,6.9c-4.1-1.8-12.3-11.3-6.9-22.1    c2.3-4.7,14.9-11.9,27.6-17.5C331.8,443.13,332.9,457.53,330.5,462.03z"/>
	</g>
</g>
<g>
</g>
<g>
</g>
<g>
</g>
<g>
</g>
<g>
</g>
<g>
</g>
<g>
</g>
<g>
</g>
<g>
</g>
<g>
</g>
<g>
</g>
<g>
</g>
<g>
</g>
<g>
</g>
<g>
</g>
</svg>
