<?xml version="1.0" encoding="iso-8859-1"?>
<!-- Generator: Adobe Illustrator 19.0.0, SVG Export Plug-In . SVG Version: 6.00 Build 0)  -->
<svg xmlns="http://www.w3.org/2000/svg" xmlns:xlink="http://www.w3.org/1999/xlink" version="1.1" id="Capa_1" x="0px" y="0px" viewBox="0 0 508 508" style="enable-background:new 0 0 508 508;" xml:space="preserve">
<g>
	<g>
		<polygon points="278.6,393.3 266.5,393.3 278,381.8 266.4,370.2 243.3,393.3 229.4,393.3 229.4,379.4 252.5,356.3 240.9,344.7     229.4,356.2 229.4,344.1 213,344.1 213,356.2 201.5,344.7 189.9,356.3 213,379.4 213,393.3 199.1,393.3 176,370.2 164.5,381.8     176,393.3 163.9,393.3 163.9,409.7 176,409.7 164.5,421.2 176,432.8 199.1,409.7 213,409.7 213,423.6 189.9,446.7 201.5,458.3     213,446.8 213,458.8 229.4,458.8 229.4,446.8 240.9,458.3 252.5,446.7 229.4,423.6 229.4,409.7 243.3,409.7 266.4,432.8     278,421.2 266.5,409.7 278.6,409.7   "/>
	</g>
</g>
<g>
	<g>
		<polygon points="114.7,434.3 102.6,434.3 114.1,422.8 102.5,411.2 79.5,434.3 65.5,434.3 65.5,420.4 88.6,397.3 77.1,385.7     65.5,397.2 65.5,385.1 49.2,385.1 49.2,397.2 37.7,385.7 26.1,397.3 49.2,420.4 49.2,434.3 35.3,434.3 12.2,411.2 0.6,422.8     12.1,434.3 0,434.3 0,450.6 12.1,450.6 0.6,462.1 12.2,473.7 35.3,450.6 49.2,450.6 49.2,464.5 26.1,487.6 37.7,499.2 49.2,487.7     49.2,499.8 65.5,499.8 65.5,487.7 77.1,499.2 88.6,487.6 65.5,464.5 65.5,450.6 79.5,450.6 102.5,473.7 114.1,462.1 102.6,450.6     114.7,450.6   "/>
	</g>
</g>
<g>
	<g>
		<polygon points="442.5,434.3 430.4,434.3 441.9,422.8 430.3,411.2 407.2,434.3 393.3,434.3 393.3,420.4 416.4,397.3 404.8,385.7     393.3,397.2 393.3,385.1 376.9,385.1 376.9,397.2 365.4,385.7 353.8,397.3 376.9,420.4 376.9,434.3 363,434.3 339.9,411.2     328.3,422.8 339.8,434.3 327.7,434.3 327.7,450.6 339.8,450.6 328.3,462.1 339.9,473.7 363,450.6 376.9,450.6 376.9,464.5     353.8,487.6 365.4,499.2 376.9,487.7 376.9,499.8 393.3,499.8 393.3,487.7 404.8,499.2 416.4,487.6 393.3,464.5 393.3,450.6     407.2,450.6 430.3,473.7 441.9,462.1 430.4,450.6 442.5,450.6   "/>
	</g>
</g>
<g>
	<g>
		<path d="M450.1,145.2c-5.4-77.3-68.9-137-147-137c-39.4,0-77.4,16.1-105.1,44.2c-8.5-2.1-17.3-3.2-26-3.2    c-53.8,0-99,40.5-105.6,93.3C27.6,153,0,188.6,0,229.4c0,49.7,40.4,90.1,90.1,90.1h178.4c20.1,25.7,51.2,41,83.8,41    c33.8,0,65.6-16.1,85.7-43.3c40.8-9.3,70-45.7,70-87.8C508,191.7,485,158.5,450.1,145.2z M431.7,301.8l-3.3,0.6    c0,0-27.7,41.7-76,41.7c-48.7,0-75.6-41-75.6-41H90.1c-40.7,0-73.7-33.1-73.7-73.7c0-35.1,24.9-65.5,59.3-72.3l6.2-1.2l0.4-6.3    c3.1-47.1,42.6-84.1,89.8-84.1c17.9,0,31.1,5.4,31.1,5.4s37.8-46.4,100-46.4c71.1,0,128.6,55.7,130.9,126.8l0.2,5.8    c0,0,57.4,15.8,57.4,72.2C491.6,264.8,466.4,295.2,431.7,301.8z"/>
	</g>
</g>
<g>
	<g>
		<path d="M295,49.2v16.4c54.2,0,98.3,44.1,98.3,98.3h16.4C409.7,100.6,358.2,49.2,295,49.2z"/>
	</g>
</g>
<g>
</g>
<g>
</g>
<g>
</g>
<g>
</g>
<g>
</g>
<g>
</g>
<g>
</g>
<g>
</g>
<g>
</g>
<g>
</g>
<g>
</g>
<g>
</g>
<g>
</g>
<g>
</g>
<g>
</g>
</svg>
