<?xml version="1.0" encoding="iso-8859-1"?>
<!-- Generator: Adobe Illustrator 19.0.0, SVG Export Plug-In . SVG Version: 6.00 Build 0)  -->
<svg xmlns="http://www.w3.org/2000/svg" xmlns:xlink="http://www.w3.org/1999/xlink" version="1.1" id="Capa_1" x="0px" y="0px" viewBox="0 0 508 508" style="enable-background:new 0 0 508 508;" xml:space="preserve">
<g>
	<g>
		<rect x="371.6" y="163.9" width="54.4" height="16.4"/>
	</g>
</g>
<g>
	<g>
		<path d="M335.9,353V196.6h-16.4V353c-27.7,4-49.2,27.9-49.2,56.7c0,31.6,25.7,57.4,57.4,57.4c31.6,0,57.4-25.7,57.4-57.4    C385.1,380.8,363.7,357,335.9,353z M327.7,450.6c-22.6,0-41-18.4-41-41c0-22.6,18.4-41,41-41c22.6,0,41,18.4,41,41    C368.7,432.3,350.3,450.6,327.7,450.6z"/>
	</g>
</g>
<g>
	<g>
		<path d="M368.7,320.4V41c0-22.6-18.4-41-41-41c-22.6,0-41,18.4-41,41v70.3l-37.9,37.9c-3.4-2.2-7.2-3.8-11.3-4.7V98L278,57.6    L266.4,46l-28.8,28.8v-42h-16.4v42.1L192.4,46l-11.6,11.6L221.2,98v46.5c-4.9,1.1-9.3,3.2-13.3,6.1l-34.3-34.3V59.1h-16.4v40.8    l-29.7-29.7L116,81.8l29.7,29.7h-40.8v16.4h57.2l35.1,35.1c-1.5,2.8-2.8,5.8-3.5,9.1h-51.3L102,131.6l-11.6,11.6l28.8,28.8H81.9    v16.4h37.3l-28.8,28.8l11.6,11.6l40.4-40.4h51.3c0.9,4.1,2.5,7.8,4.7,11.2L162.1,236h-57.2v16.4h40.8l-26.4,26.4l11.6,11.6    l26.4-26.4v40.8h16.4v-57.2l36.3-36.3c3.4,2.2,7.2,3.8,11.3,4.7v51.3l-40.4,40.4l11.6,11.6l28.8-28.8v37.3h16.4v-37.3l28.8,28.8    l11.6-11.6l-40.4-40.4V216c3.2-0.7,6.2-2,9.1-3.5l40.1,40.1v67.8c-35,16-57.4,50.5-57.4,89.3c0,54.2,44.1,98.3,98.3,98.3    s98.3-44.1,98.3-98.3C426.1,370.8,403.7,336.4,368.7,320.4z M286.8,134.5v37.6h-21.6c-0.9-4.1-2.5-7.8-4.7-11.2L286.8,134.5z     M229.4,200.6c-11.2,0-20.3-9.1-20.3-20.3s9.1-20.3,20.3-20.3c11.2,0,20.3,9.1,20.3,20.3C249.8,191.5,240.6,200.6,229.4,200.6z     M286.8,229.3l-27.7-27.6c2.8-3.9,4.9-8.4,6.1-13.3h21.6V229.3z M327.7,491.6c-45.2,0-81.9-36.8-81.9-81.9    c0-60.6,57.4-78.3,57.4-78.3V41c0-13.6,11-24.6,24.6-24.6c13.6,0,24.6,11,24.6,24.6v290.4c0,0,57.4,17,57.4,78.3    C409.7,454.9,372.9,491.6,327.7,491.6z"/>
	</g>
</g>
<g>
	<g>
		<rect x="385.1" y="65.5" width="41" height="16.4"/>
	</g>
</g>
<g>
	<g>
		<rect x="385.1" y="114.7" width="24.6" height="16.4"/>
	</g>
</g>
<g>
	<g>
		<rect x="385.1" y="213" width="24.6" height="16.4"/>
	</g>
</g>
<g>
	<g>
		<rect x="385.1" y="262.2" width="41" height="16.4"/>
	</g>
</g>
<g>
</g>
<g>
</g>
<g>
</g>
<g>
</g>
<g>
</g>
<g>
</g>
<g>
</g>
<g>
</g>
<g>
</g>
<g>
</g>
<g>
</g>
<g>
</g>
<g>
</g>
<g>
</g>
<g>
</g>
</svg>
