<?xml version="1.0" encoding="iso-8859-1"?>
<!-- Generator: Adobe Illustrator 19.0.0, SVG Export Plug-In . SVG Version: 6.00 Build 0)  -->
<svg xmlns="http://www.w3.org/2000/svg" xmlns:xlink="http://www.w3.org/1999/xlink" version="1.1" id="Capa_1" x="0px" y="0px" viewBox="0 0 507.999 507.999" style="enable-background:new 0 0 507.999 507.999;" xml:space="preserve">
<g>
	<g>
		<path d="M286.799,295.1c-40.7,0-73.8,33.1-73.8,73.8s33.1,73.8,73.8,73.8s73.8-33.1,73.8-73.8    C360.6,328.2,327.5,295.1,286.799,295.1z M286.799,426.3c-31.6,0-57.4-25.7-57.4-57.4c0-31.7,25.7-57.4,57.4-57.4    c31.6,0,57.4,25.7,57.4,57.4C344.2,400.6,318.4,426.3,286.799,426.3z"/>
	</g>
</g>
<g>
	<g>
		<path d="M336,256.3V49.2c0-27.1-22.1-49.2-49.2-49.2c-27.1,0-49.2,22.1-49.2,49.2v207.1c-44.4,19.4-73.8,64-73.8,112.6    c0,67.8,55.2,123,123,123s123-55.2,123-123C409.799,320.3,380.299,275.7,336,256.3z M286.799,475.5    c-58.8,0-106.6-47.8-106.6-106.6c0-79.7,73.8-101.5,73.8-101.5V49.2c0-18.1,14.7-32.8,32.8-32.8c18.1,0,32.8,14.7,32.8,32.8v218.2    c0,0,73.8,22.7,73.8,101.5C393.4,427.6,345.6,475.5,286.799,475.5z"/>
	</g>
</g>
<g>
	<g>
		<rect x="162.657" y="228.414" transform="matrix(0.7071 -0.7071 0.7071 0.7071 -128.8651 194.9192)" width="16.4" height="49.2"/>
	</g>
</g>
<g>
	<g>
		<rect x="98.2" y="360.7" width="49.2" height="16.4"/>
	</g>
</g>
<g>
	<g>
		<rect x="146.228" y="476.606" transform="matrix(0.7071 -0.7071 0.7071 0.7071 -292.7751 262.7898)" width="49.2" height="16.4"/>
	</g>
</g>
<g>
	<g>
		<rect x="352.4" y="49.2" width="49.2" height="16.4"/>
	</g>
</g>
<g>
	<g>
		<rect x="352.4" y="90.2" width="32.8" height="16.4"/>
	</g>
</g>
<g>
	<g>
		<rect x="352.4" y="131.2" width="49.2" height="16.4"/>
	</g>
</g>
<g>
	<g>
		<rect x="352.4" y="172.1" width="32.8" height="16.4"/>
	</g>
</g>
<g>
	<g>
		<rect x="352.4" y="213.1" width="49.2" height="16.4"/>
	</g>
</g>
<g>
</g>
<g>
</g>
<g>
</g>
<g>
</g>
<g>
</g>
<g>
</g>
<g>
</g>
<g>
</g>
<g>
</g>
<g>
</g>
<g>
</g>
<g>
</g>
<g>
</g>
<g>
</g>
<g>
</g>
</svg>
