<?xml version="1.0" encoding="iso-8859-1"?>
<!-- Generator: Adobe Illustrator 19.0.0, SVG Export Plug-In . SVG Version: 6.00 Build 0)  -->
<svg xmlns="http://www.w3.org/2000/svg" xmlns:xlink="http://www.w3.org/1999/xlink" version="1.1" id="Capa_1" x="0px" y="0px" viewBox="0 0 507.9 507.9" style="enable-background:new 0 0 507.9 507.9;" xml:space="preserve">
<g>
	<g>
		<path d="M106.5,169.253h16.4c0-54.2,44.1-98.3,98.3-98.3v-16.4C158,54.553,106.5,105.953,106.5,169.253z"/>
	</g>
</g>
<g>
	<g>
		<path d="M450.5,195.653c-3.2-54.2-47.1-97.6-101.5-100.1c-26.4-45.6-74.9-73.8-127.8-73.8c-78.9,0-143.6,62.3-147.3,140.7    c-42.6,7.7-73.9,44.6-73.9,88.7c0,49.7,40.4,90.1,90.1,90.1h344.1c40.7,0,73.7-33.1,73.7-73.7    C508,232.853,483.7,203.153,450.5,195.653z M434.3,324.953H90.1c-40.7,0-73.7-33.1-73.7-73.7c0-38.1,28.5-69.6,66.4-73.4l7.4-1.1    v-7.4c0-72.3,58.8-131.1,131.1-131.1c88.4,0,118,73.7,118,73.7h4.9c49.7,0,90.1,40.4,90.1,89.8v8.1c0,0,57.4,8,57.4,57.7    C491.6,299.153,465.9,324.953,434.3,324.953z"/>
	</g>
</g>
<g>
	<g>
		<rect x="77.54" y="386.192" transform="matrix(0.7071 -0.7071 0.7071 0.7071 -247.6872 190.8139)" width="57.899" height="16.4"/>
	</g>
</g>
<g>
	<g>
		
			<rect x="175.918" y="386.134" transform="matrix(0.7071 -0.7071 0.7071 0.7071 -218.8315 260.3612)" width="57.899" height="16.4"/>
	</g>
</g>
<g>
	<g>
		
			<rect x="274.216" y="386.156" transform="matrix(0.7071 -0.7071 0.7071 0.7071 -190.0563 329.8748)" width="57.899" height="16.4"/>
	</g>
</g>
<g>
	<g>
		
			<rect x="372.505" y="386.129" transform="matrix(0.7071 -0.7071 0.7071 0.7071 -161.2494 399.3673)" width="57.899" height="16.4"/>
	</g>
</g>
<g>
	<g>
		
			<rect x="110.352" y="451.645" transform="matrix(0.7071 -0.7071 0.7071 0.7071 -284.3588 233.1865)" width="57.899" height="16.4"/>
	</g>
</g>
<g>
	<g>
		
			<rect x="208.684" y="451.657" transform="matrix(0.7071 -0.7071 0.7071 0.7071 -255.5664 302.7209)" width="57.899" height="16.4"/>
	</g>
</g>
<g>
	<g>
		
			<rect x="307.026" y="451.679" transform="matrix(0.7071 -0.7071 0.7071 0.7071 -226.7784 372.2657)" width="57.899" height="16.4"/>
	</g>
</g>
<g>
</g>
<g>
</g>
<g>
</g>
<g>
</g>
<g>
</g>
<g>
</g>
<g>
</g>
<g>
</g>
<g>
</g>
<g>
</g>
<g>
</g>
<g>
</g>
<g>
</g>
<g>
</g>
<g>
</g>
</svg>
