<?xml version="1.0" encoding="iso-8859-1"?>
<!-- Generator: Adobe Illustrator 19.0.0, SVG Export Plug-In . SVG Version: 6.00 Build 0)  -->
<svg xmlns="http://www.w3.org/2000/svg" xmlns:xlink="http://www.w3.org/1999/xlink" version="1.1" id="Capa_1" x="0px" y="0px" viewBox="0 0 507.9 507.9" style="enable-background:new 0 0 507.9 507.9;" xml:space="preserve">
<g>
	<g>
		<path d="M106.5,150.15h16.4c0-54.2,44.1-98.3,98.3-98.3v-16.4C158,35.45,106.5,86.85,106.5,150.15z"/>
	</g>
</g>
<g>
	<g>
		<path d="M450.5,176.55c-3.2-54.2-47.1-97.6-101.5-100c-26.4-45.7-74.9-73.9-127.8-73.9c-78.9,0-143.6,62.3-147.3,140.7    c-42.6,7.7-73.9,44.6-73.9,88.7c0,49.7,40.4,90.1,90.1,90.1H152l-43.4,73.5h74L146,505.25l198.3-183.1h89.9    c40.7,0,73.7-33.1,73.7-73.7C508,213.75,483.7,184.05,450.5,176.55z M181.7,450.05l23.6-70.7h-68l96.8-163.9h78.6l-47.5,73.7H356    L181.7,450.05z M434.3,305.85h-72.2l35.8-33H295.2l47.5-73.7h-118l-63.1,106.8H90.1c-40.7,0-73.7-33.1-73.7-73.7    c0-38.1,28.5-69.6,66.4-73.4l7.4-1.1v-7.4c0-72.3,58.8-131.1,131.1-131.1c84.6,0,118,73.7,118,73.7h4.9    c49.7,0,90.1,40.4,90.1,89.8v8.1c0,0,57.4,6.1,57.4,57.7C491.6,280.05,465.9,305.85,434.3,305.85z"/>
	</g>
</g>
<g>
</g>
<g>
</g>
<g>
</g>
<g>
</g>
<g>
</g>
<g>
</g>
<g>
</g>
<g>
</g>
<g>
</g>
<g>
</g>
<g>
</g>
<g>
</g>
<g>
</g>
<g>
</g>
<g>
</g>
</svg>
