<?xml version="1.0" encoding="iso-8859-1"?>
<!-- Generator: Adobe Illustrator 19.0.0, SVG Export Plug-In . SVG Version: 6.00 Build 0)  -->
<svg xmlns="http://www.w3.org/2000/svg" xmlns:xlink="http://www.w3.org/1999/xlink" version="1.1" id="Capa_1" x="0px" y="0px" viewBox="0 0 508.1 508.1" style="enable-background:new 0 0 508.1 508.1;" xml:space="preserve">
<g>
	<g>
		<path d="M106.6,147.5H123c0-54.2,44.1-98.3,98.3-98.3V32.8C158.1,32.8,106.6,84.2,106.6,147.5z"/>
	</g>
</g>
<g>
	<g>
		<path d="M450.6,173.9c-3.2-54.2-47.1-97.6-101.5-100.1C322.7,28.2,274.2,0,221.3,0C142.4,0,77.7,62.3,74,140.7    c-42.6,7.7-73.9,44.6-73.9,88.7c0,49.7,40.4,90.1,90.1,90.1h344.1c40.7,0,73.7-33.1,73.7-73.7    C508.1,211.1,483.8,181.4,450.6,173.9z M434.4,303.2H90.2c-40.7,0-73.7-33.1-73.7-73.7c0-38.1,28.5-69.6,66.4-73.4l7.4-1.1v-7.4    c0-72.3,58.8-131.1,131.1-131.1c86.3,0,118,73.7,118,73.7h4.9c49.7,0,90.1,40.4,90.1,90.3l-0.3,7.5l7.5,0.9    c28.6,3.6,50.2,28,50.2,56.9C491.7,277.4,466,303.2,434.4,303.2z"/>
	</g>
</g>
<g>
	<g>
		<path d="M254.1,335.9c-18.1,0-32.8,14.7-32.8,32.8c0,18.1,14.7,32.8,32.8,32.8c18.1,0,32.8-14.7,32.8-32.8    S272.2,335.9,254.1,335.9z M254.1,385.1c-9,0-16.4-7.3-16.4-16.4c0-9,7.4-16.4,16.4-16.4s16.4,7.3,16.4,16.4    C270.5,377.7,263.1,385.1,254.1,385.1z"/>
	</g>
</g>
<g>
	<g>
		<path d="M385.2,335.9c-18.1,0-32.8,14.7-32.8,32.8c0,18.1,14.7,32.8,32.8,32.8s32.8-14.7,32.8-32.8S403.3,335.9,385.2,335.9z     M385.2,385.1c-9,0-16.4-7.3-16.4-16.4c0-9,7.4-16.4,16.4-16.4s16.4,7.3,16.4,16.4C401.6,377.7,394.2,385.1,385.2,385.1z"/>
	</g>
</g>
<g>
	<g>
		<path d="M123,335.9c-18.1,0-32.8,14.7-32.8,32.8c0,18.1,14.7,32.8,32.8,32.8c18.1,0,32.8-14.7,32.8-32.8S141.1,335.9,123,335.9z     M123,385.1c-9,0-16.4-7.3-16.4-16.4c0-9,7.4-16.4,16.4-16.4s16.4,7.3,16.4,16.4C139.4,377.7,132,385.1,123,385.1z"/>
	</g>
</g>
<g>
	<g>
		<path d="M188.6,442.5c-18.1,0-32.8,14.7-32.8,32.8s14.7,32.8,32.8,32.8c18.1,0,32.8-14.7,32.8-32.8    C221.3,457.2,206.6,442.5,188.6,442.5z M188.6,491.6c-9,0-16.4-7.3-16.4-16.4c0-9,7.4-16.4,16.4-16.4s16.4,7.3,16.4,16.4    C204.9,484.3,197.6,491.6,188.6,491.6z"/>
	</g>
</g>
<g>
	<g>
		<path d="M319.6,442.5c-18.1,0-32.8,14.7-32.8,32.8s14.7,32.8,32.8,32.8c18.1,0,32.8-14.7,32.8-32.8S337.7,442.5,319.6,442.5z     M319.6,491.6c-9,0-16.4-7.3-16.4-16.4c0-9,7.4-16.4,16.4-16.4s16.4,7.3,16.4,16.4C336,484.3,328.7,491.6,319.6,491.6z"/>
	</g>
</g>
<g>
	<g>
		<path d="M450.7,442.5c-18.1,0-32.8,14.7-32.8,32.8s14.7,32.8,32.8,32.8s32.8-14.7,32.8-32.8S468.8,442.5,450.7,442.5z     M450.7,491.6c-9,0-16.4-7.3-16.4-16.4c0-9,7.4-16.4,16.4-16.4s16.4,7.3,16.4,16.4C467.1,484.3,459.8,491.6,450.7,491.6z"/>
	</g>
</g>
<g>
	<g>
		<path d="M57.5,442.5c-18.1,0-32.8,14.7-32.8,32.8s14.7,32.8,32.8,32.8c18.1,0,32.8-14.7,32.8-32.8    C90.2,457.2,75.5,442.5,57.5,442.5z M57.5,491.6c-9,0-16.4-7.3-16.4-16.4c0-9,7.4-16.4,16.4-16.4s16.4,7.3,16.4,16.4    C73.8,484.3,66.5,491.6,57.5,491.6z"/>
	</g>
</g>
<g>
</g>
<g>
</g>
<g>
</g>
<g>
</g>
<g>
</g>
<g>
</g>
<g>
</g>
<g>
</g>
<g>
</g>
<g>
</g>
<g>
</g>
<g>
</g>
<g>
</g>
<g>
</g>
<g>
</g>
</svg>
