<?xml version="1.0" encoding="iso-8859-1"?>
<!-- Generator: Adobe Illustrator 19.0.0, SVG Export Plug-In . SVG Version: 6.00 Build 0)  -->
<svg xmlns="http://www.w3.org/2000/svg" xmlns:xlink="http://www.w3.org/1999/xlink" version="1.1" id="Capa_1" x="0px" y="0px" viewBox="0 0 508 508" style="enable-background:new 0 0 508 508;" xml:space="preserve">
<g>
	<g>
		<path d="M229.4,376.8c0,0-24.6,37.3-24.6,48c0,13.8,11,25,24.6,25c13.6,0,24.6-11.2,24.6-25C254,414.1,229.4,376.8,229.4,376.8z     M229.4,433c-4.5,0-8.2-3.7-8.2-8.3c0.1-2.5,3.5-9.8,8.2-17.9c4.7,8.1,8.1,15.3,8.2,17.9C237.6,429.3,233.9,433,229.4,433z"/>
	</g>
</g>
<g>
	<g>
		<path d="M131.1,376.8c0,0-24.6,37.3-24.6,48c0,13.8,11,25,24.6,25c13.6,0,24.6-11.2,24.6-25C155.7,414.1,131.1,376.8,131.1,376.8z     M131.1,433c-4.5,0-8.2-3.7-8.2-8.3c0.1-2.5,3.5-9.8,8.2-17.9c4.7,8.1,8.1,15.3,8.2,17.9C139.3,429.3,135.6,433,131.1,433z"/>
	</g>
</g>
<g>
	<g>
		<path d="M327.7,376.8c0,0-24.6,37.3-24.6,48c0,13.8,11,25,24.6,25c13.6,0,24.6-11.2,24.6-25C352.3,414.1,327.7,376.8,327.7,376.8z     M327.7,433c-4.5,0-8.2-3.7-8.2-8.3c0.1-2.5,3.5-9.8,8.2-17.9c4.7,8.1,8.1,15.3,8.2,17.9C335.9,429.3,332.3,433,327.7,433z"/>
	</g>
</g>
<g>
	<g>
		<path d="M426.1,376.7c0,0-24.6,37.4-24.6,48c0,13.8,11,25,24.6,25c13.6,0,24.6-11.2,24.6-25C450.7,414.1,426.1,376.7,426.1,376.7z     M426.1,433c-4.5,0-8.2-3.7-8.2-8.3c0.1-2.5,3.5-9.8,8.2-17.9c4.7,8.1,8.1,15.3,8.2,17.9C434.3,429.3,430.6,433,426.1,433z"/>
	</g>
</g>
<g>
	<g>
		<path d="M180.3,435c0,0-24.6,37.4-24.6,48c0,13.8,11,25,24.6,25c13.6,0,24.6-11.2,24.6-25C204.9,472.4,180.3,435,180.3,435z     M180.3,491.3c-4.5,0-8.2-3.7-8.2-8.3c0.1-2.5,3.5-9.8,8.2-17.9c4.7,8.1,8.1,15.3,8.2,17.9C188.5,487.6,184.8,491.3,180.3,491.3z"/>
	</g>
</g>
<g>
	<g>
		<path d="M278.6,435c0,0-24.6,37.4-24.6,48c0,13.8,11,25,24.6,25c13.6,0,24.6-11.2,24.6-25C303.2,472.4,278.6,435,278.6,435z     M278.6,491.3c-4.5,0-8.2-3.7-8.2-8.3c0.1-2.5,3.5-9.8,8.2-17.9c4.7,8.1,8.1,15.3,8.2,17.9C286.8,487.6,283.1,491.3,278.6,491.3z"/>
	</g>
</g>
<g>
	<g>
		<path d="M376.9,435c0,0-24.6,37.4-24.6,48c0,13.8,11,25,24.6,25c13.6,0,24.6-11.2,24.6-25C401.5,472.4,376.9,435,376.9,435z     M376.9,491.3c-4.5,0-8.2-3.7-8.2-8.3c0.1-2.5,3.5-9.8,8.2-17.9c4.7,8.1,8.1,15.3,8.2,17.9C385.1,487.6,381.4,491.3,376.9,491.3z"/>
	</g>
</g>
<g>
	<g>
		<rect x="106.5" width="16.4" height="33.3"/>
	</g>
</g>
<g>
	<g>
		<polygon points="190,28.3 166.9,51.8 178.4,63.6 201.6,40   "/>
	</g>
</g>
<g>
	<g>
		<polygon points="51,169.6 27.8,193.1 39.4,204.9 62.6,181.4   "/>
	</g>
</g>
<g>
	<g>
		<rect y="108.3" width="32.8" height="16.7"/>
	</g>
</g>
<g>
	<g>
		<polygon points="39.4,28.3 27.8,40 51,63.6 62.6,51.8   "/>
	</g>
</g>
<g>
	<g>
		<path d="M318.8,99.1v16.7c39.8,0,72.3,32.5,72.3,72.5h16.4C407.4,139,367.7,99.1,318.8,99.1z"/>
	</g>
</g>
<g>
	<g>
		<path d="M447.6,184.6c-1.9-69.8-58.9-126-128.8-126c-32.1,0-62.5,11.8-86.2,33.4c-28.5-5.5-45.8-1.2-55.6,2.1    c-9.2-26.4-34-44.8-62.3-44.8c-36.5,0-66.1,30.2-66.1,67.2c0,35.3,27,64.3,61.1,67c0,0.4-0.1,0.7-0.1,1.1    c-35.9,12.2-60.4,46-60.4,84.4c0,49.1,39.8,89.1,88.6,89.1h281.6c48.9,0,88.6-40,88.6-89.1C508,230.6,483.5,196.8,447.6,184.6z     M65,116.6C65,88.7,87.3,66,114.7,66c21.6,0,40.5,14.2,47.1,34.6c-25.2,13.5-43.8,37.7-50,66.4C85.7,165.5,65,143.5,65,116.6z     M419.4,341.4H137.8c-39.8,0-72.3-32.5-72.3-72.5c0-33,22.3-61.8,54.3-70.1l6.3-1.6l-0.3-9.1c0-45.5,36.9-82.6,82.3-82.6    c14.8,0,28.8,5.1,28.8,5.1l3.5-3.4c21.1-20.6,49-32,78.3-32c62,0,112.5,50.6,112.4,113.7c0,0.6-0.2,8.3-0.2,8.3l6.3,1.6    c32,8.3,54.3,37.1,54.3,70.1C491.6,308.9,459.2,341.4,419.4,341.4z"/>
	</g>
</g>
<g>
</g>
<g>
</g>
<g>
</g>
<g>
</g>
<g>
</g>
<g>
</g>
<g>
</g>
<g>
</g>
<g>
</g>
<g>
</g>
<g>
</g>
<g>
</g>
<g>
</g>
<g>
</g>
<g>
</g>
</svg>
