<?xml version="1.0" encoding="iso-8859-1"?>
<!-- Generator: Adobe Illustrator 19.0.0, SVG Export Plug-In . SVG Version: 6.00 Build 0)  -->
<svg xmlns="http://www.w3.org/2000/svg" xmlns:xlink="http://www.w3.org/1999/xlink" version="1.1" id="Capa_1" x="0px" y="0px" viewBox="0 0 508 508" style="enable-background:new 0 0 508 508;" xml:space="preserve">
<g>
	<g>
		<path d="M106.55,147.5h16.4c0-54.2,44.1-98.3,98.3-98.3V32.8C158.05,32.8,106.55,84.2,106.55,147.5z"/>
	</g>
</g>
<g>
	<g>
		<path d="M450.55,173.9c-3.2-54.2-47.1-97.6-101.5-100.1C322.65,28.2,274.15,0,221.25,0c-78.9,0-143.6,62.3-147.3,140.7    c-42.6,7.7-73.9,44.6-73.9,88.7c0,49.7,40.4,90.1,90.1,90.1h344.1c40.7,0,73.7-33.1,73.7-73.7    C508.05,211.1,483.75,181.4,450.55,173.9z M434.35,303.2H90.15c-40.7,0-73.7-33.1-73.7-73.7c0-38.1,28.5-69.6,66.4-73.4l7.4-1.1    v-7.4c0-72.3,58.8-131.1,131.1-131.1c82.5,0,118,73.7,118,73.7h4.9c49.7,0,90.1,40.4,90.1,89.8v8.1l7.2,0.9    c28.6,3.6,50.2,28,50.2,56.9C491.65,277.4,465.95,303.2,434.35,303.2z"/>
	</g>
</g>
<g>
	<g>
		<path d="M122.95,331.9c0,0-32.8,37.3-32.8,53.2c0,18.1,14.7,32.8,32.8,32.8c18.1,0,32.8-14.7,32.8-32.8    C155.75,369.2,122.95,331.9,122.95,331.9z M122.95,401.5c-9,0-16.4-7.3-16.4-16.4c0-5.2,7.7-17.4,16.4-28.3    c8.7,10.9,16.4,23.1,16.4,28.3C139.35,394.1,131.95,401.5,122.95,401.5z"/>
	</g>
</g>
<g>
	<g>
		<path d="M254.05,331.9c0,0-32.8,37.3-32.8,53.2c0,18.1,14.7,32.8,32.8,32.8c18.1,0,32.8-14.7,32.8-32.8    C286.85,369.2,254.05,331.9,254.05,331.9z M254.05,401.5c-9,0-16.4-7.3-16.4-16.4c0-5.2,7.7-17.4,16.4-28.3    c8.7,10.9,16.4,23.1,16.4,28.3C270.45,394.1,263.05,401.5,254.05,401.5z"/>
	</g>
</g>
<g>
	<g>
		<path d="M385.15,331.9c0,0-32.8,37.3-32.8,53.2c0,18.1,14.7,32.8,32.8,32.8c18.1,0,32.8-14.7,32.8-32.8    C417.95,369.2,385.15,331.9,385.15,331.9z M385.15,401.5c-9,0-16.4-7.3-16.4-16.4c0-5.2,7.7-17.4,16.4-28.3    c8.7,10.9,16.4,23.1,16.4,28.3C401.55,394.1,394.15,401.5,385.15,401.5z"/>
	</g>
</g>
<g>
	<g>
		<path d="M57.45,422c0,0-32.8,37.3-32.8,53.2c0,18.1,14.7,32.8,32.8,32.8c18.1,0,32.8-14.7,32.8-32.8    C90.25,459.3,57.45,422,57.45,422z M57.45,491.6c-9,0-16.4-7.3-16.4-16.4c0-5.2,7.7-17.4,16.4-28.3c8.7,10.9,16.4,23.1,16.4,28.3    C73.75,484.3,66.45,491.6,57.45,491.6z"/>
	</g>
</g>
<g>
	<g>
		<path d="M188.55,422c0,0-32.8,37.3-32.8,53.2c0,18.1,14.7,32.8,32.8,32.8c18.1,0,32.8-14.7,32.8-32.8    C221.35,459.3,188.55,422,188.55,422z M188.55,491.6c-9,0-16.4-7.3-16.4-16.4c0-5.2,7.7-17.4,16.4-28.3    c8.7,10.9,16.4,23.1,16.4,28.3C204.85,484.3,197.55,491.6,188.55,491.6z"/>
	</g>
</g>
<g>
	<g>
		<path d="M319.65,422c0,0-32.8,37.3-32.8,53.2c0,18.1,14.7,32.8,32.8,32.8c18.1,0,32.8-14.7,32.8-32.8    C352.45,459.3,319.65,422,319.65,422z M319.55,491.6c-9,0-16.4-7.3-16.4-16.4c0-5.2,7.7-17.4,16.4-28.3    c8.7,10.9,16.4,23.1,16.4,28.3C335.95,484.3,328.65,491.6,319.55,491.6z"/>
	</g>
</g>
<g>
	<g>
		<path d="M450.75,422c0,0-32.8,37.3-32.8,53.2c0,18.1,14.7,32.8,32.8,32.8s32.8-14.7,32.8-32.8C483.55,459.3,450.75,422,450.75,422    z M450.65,491.6c-9,0-16.4-7.3-16.4-16.4c0-5.2,7.7-17.4,16.4-28.3c8.7,10.9,16.4,23.1,16.4,28.3    C467.05,484.3,459.75,491.6,450.65,491.6z"/>
	</g>
</g>
<g>
</g>
<g>
</g>
<g>
</g>
<g>
</g>
<g>
</g>
<g>
</g>
<g>
</g>
<g>
</g>
<g>
</g>
<g>
</g>
<g>
</g>
<g>
</g>
<g>
</g>
<g>
</g>
<g>
</g>
</svg>
