<?xml version="1.0" encoding="iso-8859-1"?>
<!-- Generator: Adobe Illustrator 19.0.0, SVG Export Plug-In . SVG Version: 6.00 Build 0)  -->
<svg xmlns="http://www.w3.org/2000/svg" xmlns:xlink="http://www.w3.org/1999/xlink" version="1.1" id="Capa_1" x="0px" y="0px" viewBox="0 0 508 508" style="enable-background:new 0 0 508 508;" xml:space="preserve">
<g>
	<g>
		<path d="M262.2,328.3V188.5h-16.4v139.9c-32.3,4.1-57.4,31.6-57.4,65c0,36.1,29.4,65.5,65.5,65.5c36.1,0,65.5-29.4,65.5-65.5    C319.5,359.9,294.5,332.4,262.2,328.3z M254,442.5c-27.1,0-49.2-22.1-49.2-49.2c0-27.1,22.1-49.2,49.2-49.2    c27.1,0,49.2,22.1,49.2,49.2C303.2,420.4,281.1,442.5,254,442.5z"/>
	</g>
</g>
<g>
	<g>
		<path d="M295,286.2V41c0-22.6-18.4-41-41-41c-22.6,0-41,18.4-41,41v245.2c-44.4,16.9-73.7,59.2-73.7,107.1    c0,63.3,51.5,114.7,114.7,114.7c63.3,0,114.7-51.5,114.7-114.7C368.7,345.4,339.3,303.1,295,286.2z M254,491.6    c-54.2,0-98.3-44.1-98.3-98.3c0-74.6,73.7-95.4,73.7-95.4V41c0-13.6,11-24.6,24.6-24.6c13.6,0,24.6,11,24.6,24.6v257    c0,0,73.7,19.8,73.7,95.4C352.3,447.5,308.2,491.6,254,491.6z"/>
	</g>
</g>
<g>
	<g>
		<rect x="311.4" y="237.6" width="41" height="16.4"/>
	</g>
</g>
<g>
	<g>
		<rect x="311.4" y="188.5" width="24.6" height="16.4"/>
	</g>
</g>
<g>
	<g>
		<rect x="311.4" y="139.3" width="41" height="16.4"/>
	</g>
</g>
<g>
	<g>
		<rect x="311.4" y="90.1" width="24.6" height="16.4"/>
	</g>
</g>
<g>
	<g>
		<rect x="311.4" y="41" width="41" height="16.4"/>
	</g>
</g>
<g>
</g>
<g>
</g>
<g>
</g>
<g>
</g>
<g>
</g>
<g>
</g>
<g>
</g>
<g>
</g>
<g>
</g>
<g>
</g>
<g>
</g>
<g>
</g>
<g>
</g>
<g>
</g>
<g>
</g>
</svg>
