<?xml version="1.0" encoding="iso-8859-1"?>
<!-- Generator: Adobe Illustrator 19.0.0, SVG Export Plug-In . SVG Version: 6.00 Build 0)  -->
<svg xmlns="http://www.w3.org/2000/svg" xmlns:xlink="http://www.w3.org/1999/xlink" version="1.1" id="Capa_1" x="0px" y="0px" viewBox="0 0 508 508" style="enable-background:new 0 0 508 508;" xml:space="preserve">
<g>
	<g>
		<path d="M428.1,245.4h-2.4c-4.2-51.5-47.5-92.2-100-92.2c-11.1,0-22.1,1.8-32.6,5.5c-24.5-23.4-56.4-36.2-90.3-36.2    c-69.7,0-126.8,54.6-130.9,123.3C31.6,249.8,0,284,0,325.3c0,44,35.8,79.9,79.9,79.9H83c20.4,25,50.2,39.3,82.5,39.3    c16,0,31.8-3.6,46.1-10.5c22.9,19.5,51.6,30.2,81.7,30.2c43.2,0,83.6-22.5,106.7-59h28.1c44,0,79.9-35.8,79.9-79.9    C508,281.3,472.2,245.4,428.1,245.4z M428.1,388.8h-37.4c0,0-31.3,59-97.4,59c-48,0-79.2-33.7-79.2-33.7s-19.3,14-48.6,14    c-49.2,0-74.4-39.3-74.4-39.3H79.9c-35,0-63.5-28.5-63.5-63.5s28.5-63.5,63.5-63.5h8.2v-8.2c0-63.3,51.5-114.7,114.7-114.7    c57.4,0,86.2,39,86.2,39s17.2-8.3,36.7-8.3c46.3,0,84,37.7,84,84v8.2h18.4c35,0,63.5,28.5,63.5,63.5S463.1,388.8,428.1,388.8z"/>
	</g>
</g>
<g>
	<g>
		<rect x="196.6" y="43.8" width="16.4" height="49.2"/>
	</g>
</g>
<g>
	<g>
		<rect x="69.169" y="96.609" transform="matrix(0.7071 -0.7071 0.7071 0.7071 -63.0465 90.2093)" width="16.4" height="49.2"/>
	</g>
</g>
<g>
	<g>
		<rect x="307.689" y="112.988" transform="matrix(0.7071 -0.7071 0.7071 0.7071 11.6321 270.4589)" width="49.2" height="16.4"/>
	</g>
</g>
<g>
	<g>
		<rect x="130.773" y="73.289" transform="matrix(0.9238 -0.3828 0.3828 0.9238 -23.7477 60.0317)" width="16.4" height="32.799"/>
	</g>
</g>
<g>
	<g>
		<rect x="37.692" y="166.415" transform="matrix(0.3827 -0.9239 0.9239 0.3827 -140.569 155.2517)" width="16.4" height="32.801"/>
	</g>
</g>
<g>
	<g>
		<polygon points="269.4,71.4 256.8,101.7 272,108 284.5,77.7   "/>
	</g>
</g>
<g>
	<g>
		<path d="M114.7,248.6h16.4c0-40.7,33.1-73.7,73.7-73.7v-16.4C155.1,158.5,114.7,198.9,114.7,248.6z"/>
	</g>
</g>
<g>
</g>
<g>
</g>
<g>
</g>
<g>
</g>
<g>
</g>
<g>
</g>
<g>
</g>
<g>
</g>
<g>
</g>
<g>
</g>
<g>
</g>
<g>
</g>
<g>
</g>
<g>
</g>
<g>
</g>
</svg>
