<?xml version="1.0" encoding="iso-8859-1"?>
<!-- Generator: Adobe Illustrator 19.0.0, SVG Export Plug-In . SVG Version: 6.00 Build 0)  -->
<svg xmlns="http://www.w3.org/2000/svg" xmlns:xlink="http://www.w3.org/1999/xlink" version="1.1" id="Capa_1" x="0px" y="0px" viewBox="0 0 508.1 508.1" style="enable-background:new 0 0 508.1 508.1;" xml:space="preserve">
<g>
	<g>
		<path d="M440.3,274.85h-0.7c-4.1-42.9-40.3-76.5-84.3-76.5c-9.1,0-18.1,1.5-26.7,4.3c-20.5-19.3-54.1-34.9-90.1-28.7    c0.1-1.7,5.2-79.6-72-114.1L141,48.95c0,0,32.4,35.2,32.4,77.1c0,53-43.1,96.2-96.2,96.2c-38.6,0.1-77.2-32.3-77.2-32.3l10.9,25.6    c17.7,41.4,56.9,68.9,101.3,71.9c-17.2,12.3-28.5,32.4-28.5,55.1c0,37.3,30.4,67.7,67.7,67.7h1.9c17.2,20.8,42.1,32.6,69.1,32.6    c13.2,0,26.2-2.9,38.1-8.5c19.1,16,43,24.8,68,24.8c36.1,0,69.8-18.6,89.3-49h22.6c37.3,0,67.7-30.4,67.7-67.7    C508,305.25,477.7,274.85,440.3,274.85z M39.5,232.15c12,4.3,24.7,6.5,37.6,6.5c62,0,112.5-50.5,112.5-112.5    c0-12.9-2.2-25.6-6.5-37.6c45.5,39.5,39.1,86,38.8,89c-41.7,12.3-72.1,47.9-77.8,91C136.3,270.45,80.3,276.85,39.5,232.15z     M440.3,393.85h-31.8c0,0-21.7,49-80,49c-42.7,0-65.5-28.3-65.5-28.3s-16.4,12-40.6,12c-43.7,0-61.1-32.6-61.1-32.6h-10    c-28.3,0-51.3-23-51.3-51.3s23-51.3,51.3-51.3h8.2v-8.3c0-51.7,42.1-93.8,93.8-93.8c44.7,0,71.2,32.6,71.2,32.6s14.8-7.1,30.8-7.1    c37.7,0,68.3,30.7,68.3,68.3v8.2h16.7c28.3,0,51.3,23,51.3,51.3S468.7,393.85,440.3,393.85z"/>
	</g>
</g>
<g>
	<g>
		<path d="M344.8,230.65v16.3c27,0,49,22,49,49h16.3C410.1,259.95,380.8,230.65,344.8,230.65z"/>
	</g>
</g>
<g>
</g>
<g>
</g>
<g>
</g>
<g>
</g>
<g>
</g>
<g>
</g>
<g>
</g>
<g>
</g>
<g>
</g>
<g>
</g>
<g>
</g>
<g>
</g>
<g>
</g>
<g>
</g>
<g>
</g>
</svg>
