<?xml version="1.0" encoding="iso-8859-1"?>
<!-- Generator: Adobe Illustrator 19.0.0, SVG Export Plug-In . SVG Version: 6.00 Build 0)  -->
<svg xmlns="http://www.w3.org/2000/svg" xmlns:xlink="http://www.w3.org/1999/xlink" version="1.1" id="Capa_1" x="0px" y="0px" viewBox="0 0 508.1 508.1" style="enable-background:new 0 0 508.1 508.1;" xml:space="preserve">
<g>
	<g>
		<path d="M487.1,79.95L213,39.75v21l-57.4,31.9v-59.8c0.1-18.1-14.6-32.8-32.7-32.8c-18.1,0-32.8,14.7-32.8,32.8v458.8H0v16.4    h245.8v-16.4h-90.1v-305.6l57.4,31.9v21l274.2-40.2c12-1.9,20.8-12.1,20.8-24.3v-70.3C508,92.05,499.3,81.75,487.1,79.95z     M139.3,491.65h-32.8V32.85c0-9,7.3-16.4,16.4-16.4c9,0,16.4,7.3,16.4,16.4V491.65z M213,199.15l-57.3-31.9v-55.9l57.3-31.8    V199.15z M303.1,209.15l-73.7,10.8V58.65h0l73.7,10.8V209.15z M409.7,193.55l-90.1,13.2V71.95l90.1,13.2V193.55z M484.7,182.55    l-58.7,8.6V87.55l58.6,8.6c4,0.6,6.9,4,6.9,8.1v70.2h0.1C491.6,178.55,488.7,181.95,484.7,182.55z"/>
	</g>
</g>
<g>
</g>
<g>
</g>
<g>
</g>
<g>
</g>
<g>
</g>
<g>
</g>
<g>
</g>
<g>
</g>
<g>
</g>
<g>
</g>
<g>
</g>
<g>
</g>
<g>
</g>
<g>
</g>
<g>
</g>
</svg>
