<?xml version="1.0" encoding="iso-8859-1"?>
<!-- Generator: Adobe Illustrator 19.0.0, SVG Export Plug-In . SVG Version: 6.00 Build 0)  -->
<svg xmlns="http://www.w3.org/2000/svg" xmlns:xlink="http://www.w3.org/1999/xlink" version="1.1" id="Capa_1" x="0px" y="0px" viewBox="0 0 508.1 508.1" style="enable-background:new 0 0 508.1 508.1;" xml:space="preserve">
<g>
	<g>
		<path d="M440.1,265.5h-0.7c-4.1-43-40.5-76.8-84.6-76.8c-9.1,0-18.1,1.5-26.8,4.4c-20.6-19.4-47.2-30-75.6-30    c-18,0-35,4.4-50.1,12.2c-2.6-41.6-37.1-74.6-79.3-74.6c-43.9,0-79.6,35.7-79.6,79.6c0,43.9,35.7,79.6,79.6,79.6    c6.9,0,13.6-1,20.2-2.7c-0.5,3-0.9,5.9-1.1,9c-33.7,3.9-60,32.7-60,67.5c0,37.5,30.5,67.9,67.9,67.9h1.9    c17.2,20.9,42.3,32.8,69.4,32.8c13.2,0,26.3-2.9,38.2-8.5c19.2,16.1,43.2,24.9,68.3,24.9c36.2,0,70.1-18.7,89.7-49.2h22.7    c37.5,0,67.9-30.5,67.9-67.9C508,296,477.5,265.5,440.1,265.5z M122.9,243.3c-34.8,0-63.2-28.3-63.2-63.2    c0-34.8,28.3-63.2,63.2-63.2c34.8,0,63.2,28.3,63.2,63.2c0,1.6-0.1,3.3-0.3,5.2c-17.8,13.4-31.2,31.9-38.3,52.9    C139.7,241.6,131.4,243.3,122.9,243.3z M440.1,385h-32c0,0-21.3,49.2-80.3,49.2c-42.6,0-65.8-28.4-65.8-28.4s-15.3,12-40.7,12    c-42.7,0-61.3-32.8-61.3-32.8h-10c-28.4,0-51.5-23.1-51.5-51.5c0-28.4,23.1-51.6,51.5-51.6h8.2v-8.2c0-52,42.3-94.2,94.2-94.2    c47.8,0,71.5,32.7,71.5,32.7s12.6-7.1,30.9-7.1c37.8,0,68.6,30.8,68.6,68.6v8.2h16.7c28.4,0,51.5,23.1,51.5,51.6    C491.6,361.9,468.5,385,440.1,385z"/>
	</g>
</g>
<g>
	<g>
		<path d="M344.1,221.1v16.4c27.1,0,49.2,22.1,49.2,49.2h16.4C409.7,250.5,380.3,221.1,344.1,221.1z"/>
	</g>
</g>
<g>
	<g>
		<rect x="114.7" y="57.3" width="16.4" height="31.7"/>
	</g>
</g>
<g>
	<g>
		<rect x="75.966" y="76.855" transform="matrix(0.9239 -0.3826 0.3826 0.9239 -26.7889 38.8028)" width="16.4" height="19.8"/>
	</g>
</g>
<g>
	<g>
		<rect x="21.287" y="131.6" transform="matrix(0.3827 -0.9239 0.9239 0.3827 -112.526 114.5922)" width="16.4" height="19.8"/>
	</g>
</g>
<g>
	<g>
		<rect x="151.721" y="78.504" transform="matrix(0.3828 -0.9238 0.9238 0.3828 19.6519 202.8226)" width="19.799" height="16.4"/>
	</g>
</g>
<g>
	<g>
		
			<rect x="74.332" y="265.287" transform="matrix(0.3828 -0.9238 0.9238 0.3828 -200.6673 246.6091)" width="19.799" height="16.4"/>
	</g>
</g>
<g>
	<g>
		<polygon points="35.5,207.5 17.2,215.1 23.5,230.2 41.8,222.6   "/>
	</g>
</g>
<g>
	<g>
		<rect x="206.387" y="133.251" transform="matrix(0.9239 -0.3827 0.3827 0.9239 -37.6675 93.5383)" width="19.801" height="16.4"/>
	</g>
</g>
<g>
	<g>
		<rect x="182.763" y="96.256" transform="matrix(0.7071 -0.7071 0.7071 0.7071 -15.6891 171.0348)" width="31.7" height="16.4"/>
	</g>
</g>
<g>
	<g>
		<rect x="31.357" y="247.654" transform="matrix(0.7071 -0.7071 0.7071 0.7071 -167.0896 108.3185)" width="31.7" height="16.4"/>
	</g>
</g>
<g>
	<g>
		<polygon points="11.9,172 0,172 0,188.4 11.9,188.4 31.7,188.4 31.7,172   "/>
	</g>
</g>
<g>
	<g>
		<polygon points="50.2,95.9 41.8,87.5 30.2,99 38.6,107.5 52.6,121.5 64.2,109.9   "/>
	</g>
</g>
<g>
</g>
<g>
</g>
<g>
</g>
<g>
</g>
<g>
</g>
<g>
</g>
<g>
</g>
<g>
</g>
<g>
</g>
<g>
</g>
<g>
</g>
<g>
</g>
<g>
</g>
<g>
</g>
<g>
</g>
</svg>
