<?xml version="1.0" encoding="iso-8859-1"?>
<!-- Generator: Adobe Illustrator 19.0.0, SVG Export Plug-In . SVG Version: 6.00 Build 0)  -->
<svg xmlns="http://www.w3.org/2000/svg" xmlns:xlink="http://www.w3.org/1999/xlink" version="1.1" id="Capa_1" x="0px" y="0px" viewBox="0 0 508 508" style="enable-background:new 0 0 508 508;" xml:space="preserve">
<g>
	<g>
		<path d="M254,139.3c-63.3,0-114.7,51.5-114.7,114.7S190.7,368.7,254,368.7S368.7,317.2,368.7,254S317.3,139.3,254,139.3z     M254,352.3c-54.2,0-98.3-44.1-98.3-98.3c0-54.2,44.1-98.3,98.3-98.3s98.3,44.1,98.3,98.3C352.3,308.2,308.2,352.3,254,352.3z"/>
	</g>
</g>
<g>
	<g>
		<rect x="245.8" width="16.4" height="106.5"/>
	</g>
</g>
<g>
	<g>
		<rect x="245.8" y="401.5" width="16.4" height="106.5"/>
	</g>
</g>
<g>
	<g>
		
			<rect x="342.722" y="103.891" transform="matrix(0.7071 -0.7071 0.7071 0.7071 36.7173 312.8243)" width="106.499" height="16.4"/>
	</g>
</g>
<g>
	<g>
		
			<rect x="58.771" y="387.72" transform="matrix(0.7071 -0.7071 0.7071 0.7071 -247.1473 195.1725)" width="106.499" height="16.4"/>
	</g>
</g>
<g>
	<g>
		<rect x="401.5" y="245.8" width="106.5" height="16.4"/>
	</g>
</g>
<g>
	<g>
		<rect y="245.8" width="106.5" height="16.4"/>
	</g>
</g>
<g>
	<g>
		
			<rect x="387.775" y="342.664" transform="matrix(0.7071 -0.7071 0.7071 0.7071 -163.9748 395.9573)" width="16.4" height="106.499"/>
	</g>
</g>
<g>
	<g>
		
			<rect x="103.815" y="58.835" transform="matrix(0.7071 -0.7071 0.7071 0.7071 -46.4476 112.0352)" width="16.4" height="106.499"/>
	</g>
</g>
<g>
</g>
<g>
</g>
<g>
</g>
<g>
</g>
<g>
</g>
<g>
</g>
<g>
</g>
<g>
</g>
<g>
</g>
<g>
</g>
<g>
</g>
<g>
</g>
<g>
</g>
<g>
</g>
<g>
</g>
</svg>
