<?xml version="1.0" encoding="iso-8859-1"?>
<!-- Generator: Adobe Illustrator 19.0.0, SVG Export Plug-In . SVG Version: 6.00 Build 0)  -->
<svg xmlns="http://www.w3.org/2000/svg" xmlns:xlink="http://www.w3.org/1999/xlink" version="1.1" id="Capa_1" x="0px" y="0px" viewBox="0 0 507.901 507.901" style="enable-background:new 0 0 507.901 507.901;" xml:space="preserve">
<g>
	<g>
		<path d="M335.9,57.8v16.4c49.7,0,90.1,40.4,90.1,90.1h16.4C442.5,105.6,394.7,57.8,335.9,57.8z"/>
	</g>
</g>
<g>
	<g>
		<path d="M477.8,176.5c0.5-4.6,0.7-8.7,0.7-12.7c0-74.5-61-135.2-136-135.2c-40.2,0-77.6,17.3-103.6,47.7    c-14.1-5.7-28.8-8.7-43.9-8.7c-58,0-106.2,41.5-114.9,97.7H67.2c-37,0-67.2,30-67.2,66.8s30.1,66.8,67.2,66.8h29.2    c20.1,25.7,51.2,41,83.8,41c32.7,0,63.7-15.2,83.8-41h176.7c37,0,67.2-30,67.2-66.8C508,209.7,496.6,188.8,477.8,176.5z     M440.8,282.6h-185c0,0-27.8,41-75.6,41c-48.2,0-75.6-41-75.6-41H67.2c-28,0-50.8-22.6-50.8-50.4s22.8-50.4,50.8-50.4h27.6    l0.7-7.5c4.7-51.4,47.4-90.2,99.5-90.2c25,0,48.8,12.5,48.8,12.5S275,45,342.5,45c66,0,119.6,53.3,119.6,118.8    c0,10.3-1.9,21.5-1.9,21.5s31.4,9.3,31.4,46.9C491.6,260,468.8,282.6,440.8,282.6z"/>
	</g>
</g>
<g>
	<g>
		<path d="M254,358.3c0,0-41,60.3-41,80c0,22.6,18.4,41,41,41c22.6,0,41-18.4,41-41C295,418.6,254,358.3,254,358.3z M254,462.8    c-13.6,0-24.6-11-24.6-24.6c0-8.9,12.8-32.3,24.6-50.7c11.8,18.4,24.6,41.8,24.6,50.7C278.6,451.8,267.6,462.8,254,462.8z"/>
	</g>
</g>
<g>
	<g>
		<path d="M98.4,358.3c0,0-41,60.3-41,80c0,22.6,18.4,41,41,41c22.6,0,41-18.4,41-41C139.4,418.6,98.4,358.3,98.4,358.3z     M98.3,462.8c-13.6,0-24.6-11-24.6-24.6c0-8.9,12.8-32.3,24.6-50.7c11.8,18.4,24.6,41.8,24.6,50.7    C122.9,451.8,111.9,462.8,98.3,462.8z"/>
	</g>
</g>
<g>
	<g>
		<path d="M409.7,358.3c0,0-41,60.3-41,80c0,22.6,18.4,41,41,41c22.6,0,41-18.4,41-41C450.7,418.6,409.7,358.3,409.7,358.3z     M409.7,462.8c-13.6,0-24.6-11-24.6-24.6c0-8.9,12.8-32.3,24.6-50.7c11.8,18.4,24.6,41.8,24.6,50.7    C434.3,451.8,423.2,462.8,409.7,462.8z"/>
	</g>
</g>
<g>
</g>
<g>
</g>
<g>
</g>
<g>
</g>
<g>
</g>
<g>
</g>
<g>
</g>
<g>
</g>
<g>
</g>
<g>
</g>
<g>
</g>
<g>
</g>
<g>
</g>
<g>
</g>
<g>
</g>
</svg>
