<?xml version="1.0" encoding="iso-8859-1"?>
<!-- Generator: Adobe Illustrator 19.0.0, SVG Export Plug-In . SVG Version: 6.00 Build 0)  -->
<svg xmlns="http://www.w3.org/2000/svg" xmlns:xlink="http://www.w3.org/1999/xlink" version="1.1" id="Capa_1" x="0px" y="0px" viewBox="0 0 508 508" style="enable-background:new 0 0 508 508;" xml:space="preserve">
<g>
	<g>
		<path d="M335.9,74.059v16.4c49.7,0,90.1,40.4,90.1,90.1h16.4C442.5,121.859,394.7,74.059,335.9,74.059z"/>
	</g>
</g>
<g>
	<g>
		<path d="M150.8,328.159c0,0-78.4,24.3-93.7,51.7c-20.4,36.6,1.8,70.3,21.2,80.7c13.9,7.5,55.6,15.9,79.4-25.6    C173.3,407.659,150.8,328.159,150.8,328.159z M143.3,427.159c-8.2,15.6-31.2,32.2-57.2,19.1c-21.2-10.6-25.4-40.3-14.7-58.5    c9.3-15.8,46.7-31.7,68-38.9C144.8,370.759,151.9,410.959,143.3,427.159z"/>
	</g>
</g>
<g>
	<g>
		<path d="M508,244.859c0-22.5-11.4-43.3-30.2-55.7c0.5-4.6,0.7-8.7,0.7-12.7c0-74.5-61-135.2-136-135.2    c-40.2,0-77.6,17.3-103.6,47.7c-14.1-5.7-28.8-8.7-43.9-8.7c-58,0-106.2,41.5-114.9,97.7H67.2c-37.1,0.1-67.2,30.1-67.2,66.9    s30.1,66.8,67.2,66.8h123.6c3.6,19,16.4,34,28.2,40.4c13.9,7.5,55.6,15.9,79.4-25.6c2.3-3.9,3.7-9,4.5-14.7h30.6    c-15.6,34.5,5.3,65.5,23.8,75.5c13.9,7.5,55.6,15.9,79.4-25.6c6.3-11,6.4-30.5,4.3-49.9C477.9,311.559,508,281.659,508,244.859z     M284,318.559c-8.2,15.6-31.2,32.2-57.2,19.1c-21.2-10.6-25.4-40.3-14.7-58.5c9.3-15.8,46.7-31.7,68-38.9    C285.5,262.159,292.6,302.359,284,318.559z M422.3,353.659c-8.2,15.6-31.2,32.2-57.2,19.1c-21.2-10.6-25.4-40.3-14.7-58.5    c9.3-15.8,46.7-31.7,68-38.9C423.8,297.259,430.8,337.459,422.3,353.659z M440.8,295.259h-1.9c-1.9-11.2-9.2-40.5-9.2-40.5    s-0.2,0.1-0.3,0.1l-0.1-0.4c0,0-60.1,16.6-84.9,40.8H304c0-30.9-12.6-75.6-12.6-75.6s-0.2,0.1-0.3,0.1l-0.1-0.4    c0,0-76,20.9-93.7,51.7c-4.3,7.5-6.7,15.8-7.5,24.2H67.2c-28,0-50.8-22.6-50.8-50.4s22.8-50.4,50.8-50.4h27.6l0.7-7.5    c4.7-51.4,47.4-90.2,99.5-90.2c28.6,0,48.8,12.5,48.8,12.5s34.1-51.6,98.7-51.6c66,0,119.6,53.3,119.6,118.8    c0,13.5-1.9,21.5-1.9,21.5s31.4,13.4,31.4,46.9C491.6,272.659,468.8,295.259,440.8,295.259z"/>
	</g>
</g>
<g>
</g>
<g>
</g>
<g>
</g>
<g>
</g>
<g>
</g>
<g>
</g>
<g>
</g>
<g>
</g>
<g>
</g>
<g>
</g>
<g>
</g>
<g>
</g>
<g>
</g>
<g>
</g>
<g>
</g>
</svg>
