<?xml version="1.0" encoding="iso-8859-1"?>
<!-- Generator: Adobe Illustrator 19.0.0, SVG Export Plug-In . SVG Version: 6.00 Build 0)  -->
<svg xmlns="http://www.w3.org/2000/svg" xmlns:xlink="http://www.w3.org/1999/xlink" version="1.1" id="Capa_1" x="0px" y="0px" viewBox="0 0 507.801 507.801" style="enable-background:new 0 0 507.801 507.801;" xml:space="preserve">
<g>
	<g>
		<path d="M57.4,147.401h16.4c0-31.6,25.7-57.4,57.4-57.4v-16.4C90.4,73.601,57.4,106.701,57.4,147.401z"/>
	</g>
</g>
<g>
	<g>
		<path d="M446.9,147.501c-10.6-34.2-41.9-57.5-78.2-57.5c-3.4,0-6.7,0.2-10.1,0.6c-19.3-44.7-63.8-74.3-112.8-74.3    c-29.7,0-58.2,10.7-80.6,30.3c-11.1-3.8-22.5-5.7-34.1-5.7c-58.7,0-106.5,47.7-106.5,106.5c0,4.5,0.3,9,0.9,13.7    c-16.1,12.4-25.5,31.4-25.5,51.8c0,36.1,29.4,65.5,65.5,65.5h8.2c15.5,20.6,39.6,32.8,65.5,32.8c25.9,0,50.1-12.2,65.5-32.8h237.6    c36.1,0,65.5-29.4,65.5-65.5C508,178.301,481,149.801,446.9,147.501z M442.5,262.101H196.2c0,0-14.7,32.8-56.9,32.8    c-39.3,0-56.9-32.8-56.9-32.8H65.5c-27.1,0-49.2-22.1-49.2-49.2c0-16.7,8.4-32.1,22.5-41.2l4.6-3c0,0-2.5-9.6-2.5-21.3    c0-49.7,40.4-90.1,90.1-90.1c19.4,0,37.8,8.2,37.8,8.2s27.7-32.8,76.9-32.8c44.5,0,84.6,28.1,99.9,70l2.4,6.7    c0,0,8.9-2.9,20.5-2.9c30.8,0,57,21,63.9,51l1.5,6.4h8.4c27.1,0,49.2,22.1,49.2,49.2C491.5,240.201,469.6,262.101,442.5,262.101z"/>
	</g>
</g>
<g>
	<g>
		<path d="M254,323.601c0,0-32.8,37.3-32.8,53.2c0,18.1,14.7,32.8,32.8,32.8c18.1,0,32.8-14.7,32.8-32.8    C286.8,360.901,254,323.601,254,323.601z M254,393.201c-9,0-16.4-7.3-16.4-16.4c0-5.2,7.7-17.4,16.4-28.3    c8.7,10.9,16.4,23.1,16.4,28.3C270.4,385.801,263,393.201,254,393.201z"/>
	</g>
</g>
<g>
	<g>
		<path d="M122.9,323.601c0,0-32.8,37.3-32.8,53.2c0,18.1,14.7,32.8,32.8,32.8c18.1,0,32.8-14.7,32.8-32.8    C155.7,360.901,122.9,323.601,122.9,323.601z M122.9,393.201c-9,0-16.4-7.3-16.4-16.4c0-5.2,7.7-17.4,16.4-28.3    c8.7,10.9,16.4,23.1,16.4,28.3C139.3,385.801,131.9,393.201,122.9,393.201z"/>
	</g>
</g>
<g>
	<g>
		<path d="M319.6,405.501c0,0-32.8,37.3-32.8,53.2c0,18.1,14.7,32.8,32.8,32.8c18.1,0,32.8-14.7,32.8-32.8    C352.4,442.801,319.6,405.501,319.6,405.501z M319.5,475.101c-9,0-16.4-7.3-16.4-16.4c0-5.2,7.7-17.4,16.4-28.3    c8.7,10.9,16.4,23.1,16.4,28.3C335.9,467.801,328.6,475.101,319.5,475.101z"/>
	</g>
</g>
<g>
	<g>
		<path d="M188.5,405.501c0,0-32.8,37.3-32.8,53.2c0,18.1,14.7,32.8,32.8,32.8c18.1,0,32.8-14.7,32.8-32.8    C221.3,442.801,188.5,405.501,188.5,405.501z M188.5,475.101c-9,0-16.4-7.3-16.4-16.4c0-5.2,7.7-17.4,16.4-28.3    c8.7,10.9,16.4,23.1,16.4,28.3C204.8,467.801,197.5,475.101,188.5,475.101z"/>
	</g>
</g>
<g>
	<g>
		<path d="M385.1,323.601c0,0-32.8,37.3-32.8,53.2c0,18.1,14.7,32.8,32.8,32.8c18.1,0,32.8-14.7,32.8-32.8    C417.9,360.901,385.1,323.601,385.1,323.601z M385.1,393.201c-9,0-16.4-7.3-16.4-16.4c0-5.2,7.7-17.4,16.4-28.3    c8.7,10.9,16.4,23.1,16.4,28.3C401.5,385.801,394.1,393.201,385.1,393.201z"/>
	</g>
</g>
<g>
</g>
<g>
</g>
<g>
</g>
<g>
</g>
<g>
</g>
<g>
</g>
<g>
</g>
<g>
</g>
<g>
</g>
<g>
</g>
<g>
</g>
<g>
</g>
<g>
</g>
<g>
</g>
<g>
</g>
</svg>
