<?xml version="1.0" encoding="iso-8859-1"?>
<!-- Generator: Adobe Illustrator 19.0.0, SVG Export Plug-In . SVG Version: 6.00 Build 0)  -->
<svg xmlns="http://www.w3.org/2000/svg" xmlns:xlink="http://www.w3.org/1999/xlink" version="1.1" id="Capa_1" x="0px" y="0px" viewBox="0 0 508 508" style="enable-background:new 0 0 508 508;" xml:space="preserve">
<g>
	<g>
		<path d="M342.3,158.3v16.4c34.1,0,61.8,27.7,61.8,61.8h16.4C420.5,193.4,385.4,158.3,342.3,158.3z"/>
	</g>
</g>
<g>
	<g>
		<path d="M455.4,232.7c-2-60.7-52-109.4-113.2-109.4c-28,0-54.6,10.2-75.4,28.8c-6.8-1.7-13.8-2.5-20.9-2.5c-7.5,0-14.7,1-21.6,2.8    c-15.1-18.2-37.5-29.1-61.3-29.1c-19.2,0-37.5,6.8-52,19.4c-4.4-1-9-1.5-13.5-1.5c-32.6,0-59.4,25.4-61.7,57.4    C14.5,206.7,0,227.4,0,250.6c0,30.8,25.1,55.9,55.9,55.9h50.6c0,43.1,35.1,78.2,78.2,78.2h245.1c43.1,0,78.2-35.1,78.2-78.2    C508,273.1,486.7,243.6,455.4,232.7z M55.9,290.1c-21.8,0-39.5-17.7-39.5-39.5c0-18,12.2-33.7,29.7-38.2l6.3-1.6l-0.3-7.9    c0-25.1,20.4-45.4,45.4-45.4c10.5,0,18,3.4,18,3.4l3.5-3.4c11.9-11.6,27.5-17.9,44.1-17.9c16.9,0,33,6.9,44.8,18.8    c-27.8,13.6-47.4,41.6-48.8,74.3c-26,9-45.1,31-50.8,57.4H55.9z M429.8,368.3H184.7c-34.1,0-61.8-27.7-61.8-61.8    c0-28.1,19.1-52.7,46.5-59.8l6.3-1.6l-0.2-8.6c0-38.9,31.7-70.6,70.6-70.6c7,0,14,1,20.7,3.1l4.6,1.4l3.5-3.4    c18.2-17.7,42.2-27.4,67.4-27.4c53.4,0,96.8,43.4,96.8,97.5l-0.2,7.9l6.3,1.6c27.4,7.1,46.5,31.7,46.5,59.8    C491.6,340.6,463.9,368.3,429.8,368.3z"/>
	</g>
</g>
<g>
</g>
<g>
</g>
<g>
</g>
<g>
</g>
<g>
</g>
<g>
</g>
<g>
</g>
<g>
</g>
<g>
</g>
<g>
</g>
<g>
</g>
<g>
</g>
<g>
</g>
<g>
</g>
<g>
</g>
</svg>
