<?xml version="1.0" encoding="iso-8859-1"?>
<!-- Generator: Adobe Illustrator 19.0.0, SVG Export Plug-In . SVG Version: 6.00 Build 0)  -->
<svg xmlns="http://www.w3.org/2000/svg" xmlns:xlink="http://www.w3.org/1999/xlink" version="1.1" id="Capa_1" x="0px" y="0px" viewBox="0 0 508 508" style="enable-background:new 0 0 508 508;" xml:space="preserve">
<g>
	<g>
		<path d="M508,245.8h-29.4l27-27L494,207.2l-38.6,38.6h-26l59.8-59.8l-11.6-11.6l-71.3,71.3h-95.6c-1.4-9.7-5.2-18.6-10.8-26.1    l61.8-61.8h100.9v-16.4h-84.5l24.2-24.2h54.5V101h-38.2l20.8-20.8l-11.6-11.6L407,89.4V51.2h-16.4v54.5l-24.2,24.2V45.4H350v100.9    l-61.8,61.8c-7.5-5.6-16.4-9.4-26.1-10.8v-87.4l71.3-71.3L321.9,27l-59.8,59.8V52.6L300.8,14L289.2,2.4l-27,27V0h-16.4v29.4    l-27-27L207.2,14l38.6,38.6v34.2L186.1,27l-11.6,11.6l71.3,71.3v87.4c-11.1,1.6-21.2,6.4-29.3,13.4l-64.4-64.4V45.4h-16.4v84.5    l-24.2-24.2V51.2H95.2v38.2L74.4,68.6L62.8,80.2L83.6,101H45.4v16.4H100l24.2,24.2H39.6V158h100.9l65.2,65.2    c-4.3,6.7-7.2,14.4-8.4,22.7h-95.6l-71.3-71.3l-11.6,11.6L78.6,246h-26L14,207.2L2.4,218.8l27,27H0v16.4h29.4l-27,27L14,300.8    l38.6-38.6h26L18.8,322l11.6,11.6l71.3-71.3h95.6c1.4,9.7,5.2,18.6,10.8,26.1L140.5,356H39.6v16.4h84.5l-18.4,18.4H51.2V407h38.2    l-20.8,20.8l11.6,11.6l20.8-20.8v38.2h16.4v-54.5l18.4-18.4v84.5h16.4V367.5l67.6-67.6c7.5,5.6,16.4,9.4,26.1,10.8v95.6    l-71.3,71.3l11.6,11.6l59.8-59.8v26L207.2,494l11.6,11.6l27-27V508h16.4v-29.4l27,27l11.6-11.6l-38.6-38.6v-26l59.8,59.8    l11.6-11.6l-71.3-71.3v-95.6c8.3-1.2,15.9-4.1,22.7-8.4l65.2,65.2v100.9h16.4v-84.5l18.4,18.4v54.5h16.4v-38.2l20.8,20.8    l11.6-11.6l-21-20.8H451v-16.4h-54.5l-18.4-18.4h84.5v-16.4H361.7l-64.4-64.4c7-8.1,11.8-18.2,13.4-29.3h95.6l71.3,71.3l11.6-11.6    L429.4,262h26l38.6,38.6l11.6-11.6l-27-27H508V245.8z M254,294.9c-22.6,0-40.9-18.3-40.9-40.9c0-22.6,18.4-40.9,40.9-40.9    c22.6,0,40.9,18.4,40.9,40.9C294.9,276.6,276.5,294.9,254,294.9z"/>
	</g>
</g>
<g>
</g>
<g>
</g>
<g>
</g>
<g>
</g>
<g>
</g>
<g>
</g>
<g>
</g>
<g>
</g>
<g>
</g>
<g>
</g>
<g>
</g>
<g>
</g>
<g>
</g>
<g>
</g>
<g>
</g>
</svg>
