<?xml version="1.0" encoding="iso-8859-1"?>
<!-- Generator: Adobe Illustrator 19.0.0, SVG Export Plug-In . SVG Version: 6.00 Build 0)  -->
<svg xmlns="http://www.w3.org/2000/svg" xmlns:xlink="http://www.w3.org/1999/xlink" version="1.1" id="Capa_1" x="0px" y="0px" viewBox="0 0 507.801 507.801" style="enable-background:new 0 0 507.801 507.801;" xml:space="preserve">
<g>
	<g>
		<polygon points="311.4,368.651 299.3,368.651 310.8,357.151 299.2,345.551 276.1,368.651 262.2,368.651 262.2,354.751     285.3,331.651 273.7,320.051 262.2,331.551 262.2,319.451 245.8,319.451 245.8,331.551 234.3,320.051 222.7,331.651     245.8,354.751 245.8,368.651 231.9,368.651 208.8,345.551 197.2,357.151 208.7,368.651 196.6,368.651 196.6,385.051     208.7,385.051 197.2,396.551 208.8,408.151 231.9,385.051 245.8,385.051 245.8,398.951 222.7,422.051 234.3,433.651     245.8,422.151 245.8,434.251 262.2,434.251 262.2,422.151 273.7,433.651 285.3,422.051 262.2,398.951 262.2,385.051     276.1,385.051 299.2,408.151 310.8,396.551 299.3,385.051 311.4,385.051   "/>
	</g>
</g>
<g>
	<g>
		<polygon points="147.5,434.251 135.4,434.251 146.9,422.751 135.3,411.151 112.2,434.251 98.3,434.251 98.3,420.351     121.4,397.251 109.8,385.651 98.3,397.151 98.3,385.051 81.9,385.051 81.9,397.151 70.4,385.651 58.8,397.251 81.9,420.351     81.9,434.251 68,434.251 44.9,411.151 33.4,422.751 44.9,434.251 32.8,434.251 32.8,450.551 44.9,450.551 33.4,462.151     44.9,473.651 68,450.551 81.9,450.551 81.9,464.551 58.8,487.551 70.4,499.151 81.9,487.651 81.9,499.751 98.3,499.751     98.3,487.651 109.8,499.151 121.4,487.551 98.3,464.551 98.3,450.551 112.2,450.551 135.3,473.651 146.9,462.151 135.4,450.551     147.5,450.551   "/>
	</g>
</g>
<g>
	<g>
		<polygon points="475.2,434.251 463.1,434.251 474.6,422.751 463.1,411.151 440,434.251 426.1,434.251 426.1,420.351     449.2,397.251 437.6,385.651 426.1,397.151 426.1,385.051 409.7,385.051 409.7,397.151 398.2,385.651 386.6,397.251     409.7,420.351 409.7,434.251 395.8,434.251 372.7,411.151 361.1,422.751 372.6,434.251 360.5,434.251 360.5,450.551     372.6,450.551 361.1,462.151 372.7,473.651 395.8,450.551 409.7,450.551 409.7,464.551 386.6,487.551 398.2,499.151     409.7,487.651 409.7,499.751 426.1,499.751 426.1,487.651 437.6,499.151 449.2,487.551 426.1,464.551 426.1,450.551 440,450.551     463.1,473.651 474.6,462.151 463.1,450.551 475.2,450.551   "/>
	</g>
</g>
<g>
	<g>
		<path d="M57.4,139.251h16.4c0-31.6,25.7-57.4,57.4-57.4v-16.4C90.4,65.451,57.4,98.551,57.4,139.251z"/>
	</g>
</g>
<g>
	<g>
		<path d="M446.9,139.351c-10.6-34.2-41.9-57.5-78.2-57.5c-3.4,0-6.7,0.2-10.1,0.6c-19.3-44.8-63.8-74.4-112.8-74.4    c-29.7,0-58.2,10.7-80.6,30.3c-11.1-3.8-22.5-5.7-34.1-5.7c-58.7,0-106.5,47.8-106.5,106.5c0,4.5,0.3,9,0.9,13.7    c-16.1,12.5-25.5,31.5-25.5,51.9c0,36.1,29.4,65.5,65.5,65.5h8.2c15.5,20.6,39.6,32.8,65.5,32.8s50.1-12.2,65.5-32.8h237.6    c36.1,0,65.5-29.4,65.5-65.5C508,170.151,481,141.651,446.9,139.351z M442.5,253.951H196.2c0,0-15.6,32.8-56.9,32.8    c-40.7,0-56.9-32.8-56.9-32.8H65.5c-27.1,0-49.2-22.1-49.2-49.2c0-33,27-44.2,27-44.2s-2.5-7.5-2.5-21.3    c0-49.7,40.4-90.1,90.1-90.1c19.1,0,37.8,8.2,37.8,8.2s26.4-32.8,76.9-32.8c44.5,0,84.6,28.1,99.9,70l2.4,6.7c0,0,11-2.9,20.5-2.9    c30.8,0,57,21,63.9,51l1.5,6.4h8.4c27.1,0,49.2,22.1,49.2,49.2C491.4,232.051,469.6,253.951,442.5,253.951z"/>
	</g>
</g>
<g>
</g>
<g>
</g>
<g>
</g>
<g>
</g>
<g>
</g>
<g>
</g>
<g>
</g>
<g>
</g>
<g>
</g>
<g>
</g>
<g>
</g>
<g>
</g>
<g>
</g>
<g>
</g>
<g>
</g>
</svg>
