<?xml version="1.0" encoding="iso-8859-1"?>
<!-- Generator: Adobe Illustrator 19.0.0, SVG Export Plug-In . SVG Version: 6.00 Build 0)  -->
<svg xmlns="http://www.w3.org/2000/svg" xmlns:xlink="http://www.w3.org/1999/xlink" version="1.1" id="Capa_1" x="0px" y="0px" viewBox="0 0 508.1 508.1" style="enable-background:new 0 0 508.1 508.1;" xml:space="preserve">
<g>
	<g>
		<path d="M311.45,241.8V57.4c0-31.7-25.8-57.4-57.4-57.4c-31.6,0-57.4,25.7-57.4,57.4v184.5c-50,22.5-81.9,71.8-81.9,126.9    c0,76.8,62.5,139.3,139.3,139.3s139.3-62.5,139.3-139.3C393.35,313.6,361.35,264.4,311.45,241.8z M254.05,491.6    c-67.8,0-122.9-55.1-122.9-122.9c0-50.3,30.2-95,76.8-113.9l5.1-2.1V57.4c0-22.6,18.4-41,41-41c22.6,0,41,18.4,41,41v195.4    l5.1,2.1c46.7,18.9,76.8,63.6,76.8,113.9C376.95,436.5,321.85,491.6,254.05,491.6z"/>
	</g>
</g>
<g>
	<g>
		<path d="M278.65,282V57.4c0-13.6-11-24.6-24.6-24.6c-13.6,0-24.6,11-24.6,24.6V282c-38.4,10.9-65.5,46.3-65.5,86.7    c0,49.7,40.4,90.1,90.1,90.1s90.1-40.4,90.1-90.1C344.15,328.3,316.95,292.8,278.65,282z M254.05,442.5    c-40.7,0-73.7-33.1-73.7-73.7c0-34.9,24.8-65.3,59-72.3l6.6-1.3V57.4c0-4.5,3.7-8.2,8.2-8.2s8.2,3.7,8.2,8.2v237.8l6.6,1.3    c34.2,6.9,59,37.3,59,72.3C327.75,409.4,294.75,442.5,254.05,442.5z"/>
	</g>
</g>
<g>
	<g>
		<rect x="327.75" y="41" width="49.2" height="16.4"/>
	</g>
</g>
<g>
	<g>
		<rect x="327.75" y="73.7" width="32.8" height="16.4"/>
	</g>
</g>
<g>
	<g>
		<rect x="327.75" y="106.5" width="49.2" height="16.4"/>
	</g>
</g>
<g>
	<g>
		<rect x="327.75" y="139.3" width="32.8" height="16.4"/>
	</g>
</g>
<g>
	<g>
		<rect x="327.75" y="172.1" width="49.2" height="16.4"/>
	</g>
</g>
<g>
	<g>
		<rect x="327.75" y="204.8" width="32.8" height="16.4"/>
	</g>
</g>
<g>
</g>
<g>
</g>
<g>
</g>
<g>
</g>
<g>
</g>
<g>
</g>
<g>
</g>
<g>
</g>
<g>
</g>
<g>
</g>
<g>
</g>
<g>
</g>
<g>
</g>
<g>
</g>
<g>
</g>
</svg>
