<?xml version="1.0" encoding="iso-8859-1"?>
<!-- Generator: Adobe Illustrator 19.0.0, SVG Export Plug-In . SVG Version: 6.00 Build 0)  -->
<svg xmlns="http://www.w3.org/2000/svg" xmlns:xlink="http://www.w3.org/1999/xlink" version="1.1" id="Capa_1" x="0px" y="0px" viewBox="0 0 508.1 508.1" style="enable-background:new 0 0 508.1 508.1;" xml:space="preserve">
<g>
	<g>
		<path d="M508.1,132.6h-55l-17-52.3l-17,52.3h-55l44.5,32.3l-17,52.3l44.5-32.3l44.5,32.3l-17-52.3L508.1,132.6z M449.1,174.2    l-13.2-9.6l-13.2,9.6l5-15.5l-13.2-9.6H431l5-15.5l5,15.5h16.3l-13.2,9.6L449.1,174.2z"/>
	</g>
</g>
<g>
	<g>
		<path d="M434,267.3c-56.4,0-102.4-46-102.4-102.5c0-34.7,27.3-73.9,27.3-73.9l-23.1,9.8c-44.2,18.7-72.7,61.7-72.7,109.6    c0,3.9,0.2,7.9,0.7,11.9c-0.2,0-0.3,0-0.5,0c-8.8,0-17.4,1.4-25.8,4.2c-19.9-18.6-45.6-28.8-73-28.8    c-56.4,0-102.7,43.8-106.7,99.2C25.3,300.6,0,328.4,0,362c0,36.3,29.5,65.8,65.8,65.8h279.7c36.3,0,65.8-29.5,65.8-65.8    c0-12.6-3.6-24.4-9.8-34.4c34.3-5.7,64.5-26.1,82.7-56.6l12.8-21.5C497,249.5,465.2,267.3,434,267.3z M345.6,411.4H65.8    c-27.2,0-49.4-22.1-49.4-49.4c0-27.2,22.1-49.4,49.4-49.4H74v-8.2c0-49.9,40.6-90.5,90.5-90.5c45.3,0,68.9,31.6,68.9,31.6    s15.1-6.9,29.9-6.9c36.3,0,65.8,29.5,65.8,65.8v8.2h16.5c27.2,0,49.4,22.1,49.4,49.4C394.9,389.3,372.8,411.4,345.6,411.4z     M388.9,312.6c-26.9-20.4-43.8-16.4-43.8-16.4c-3.6-35.3-29.8-64.7-64.6-72.2c-0.6-4.6-8.5-59.1,40.6-96.2    c-3.9,11.9-5.9,24.3-5.9,36.9c0,65.6,53.4,119,119,119c7.2,0,14.3-0.6,21.3-1.9C437.9,299.8,414.4,310.9,388.9,312.6z"/>
	</g>
</g>
<g>
	<g>
		<path d="M90.5,304.4H107c0-31.8,25.8-57.6,57.6-57.6v-16.5C123.7,230.4,90.5,263.6,90.5,304.4z"/>
	</g>
</g>
<g>
</g>
<g>
</g>
<g>
</g>
<g>
</g>
<g>
</g>
<g>
</g>
<g>
</g>
<g>
</g>
<g>
</g>
<g>
</g>
<g>
</g>
<g>
</g>
<g>
</g>
<g>
</g>
<g>
</g>
</svg>
