<?xml version="1.0" encoding="iso-8859-1"?>
<!-- Generator: Adobe Illustrator 19.0.0, SVG Export Plug-In . SVG Version: 6.00 Build 0)  -->
<svg xmlns="http://www.w3.org/2000/svg" xmlns:xlink="http://www.w3.org/1999/xlink" version="1.1" id="Capa_1" x="0px" y="0px" viewBox="0 0 507.9 507.9" style="enable-background:new 0 0 507.9 507.9;" xml:space="preserve">
<g>
	<g>
		<path d="M319.5,127.05v16.4c49.7,0,90.1,40.4,90.1,90.1H426C426.1,174.85,378.3,127.05,319.5,127.05z"/>
	</g>
</g>
<g>
	<g>
		<path d="M466.1,249.05c0.6-5.5,0.9-10.6,0.9-15.5c0-81.3-66.1-147.5-147.5-147.5c-47.5,0-91.8,22.7-119.5,61.1    c-9.2-2.5-18.6-3.8-28-3.8c-56.1,0-102.2,43.6-106.2,98.7c-37,4-65.8,35.3-65.8,73.3c0,37.6,28.5,69.1,65.5,73.2    c18.7,21.2,45.4,33.3,73.7,33.3c28.1,0,54.6-11.9,73.3-32.8h221.7c40.7,0,73.7-33.1,73.7-73.7    C508,287.15,491.4,261.25,466.1,249.05z M434.3,372.85H205c0,0-22.9,32.8-65.7,32.8c-41.9,0-65.6-32.7-65.6-32.7l-3.6-0.2    c-30.1-1.9-53.7-27-53.7-57.2c0-31.6,25.7-57.4,57.4-57.4H82v-8.2c0-49.7,40.4-90.1,90.1-90.1c18.6,0,34.7,6.8,34.7,6.8l3.5-5.2    c24.4-36.9,65.3-58.9,109.3-58.9c72.3,0,131.1,58.8,131.1,131.1c0,14.6-2.6,25.9-2.6,25.9l6.2,2.3c22.3,8.3,37.3,29.9,37.3,53.7    C491.6,347.15,465.9,372.85,434.3,372.85z"/>
	</g>
</g>
<g>
</g>
<g>
</g>
<g>
</g>
<g>
</g>
<g>
</g>
<g>
</g>
<g>
</g>
<g>
</g>
<g>
</g>
<g>
</g>
<g>
</g>
<g>
</g>
<g>
</g>
<g>
</g>
<g>
</g>
</svg>
