<?xml version="1.0" encoding="iso-8859-1"?>
<!-- Generator: Adobe Illustrator 19.0.0, SVG Export Plug-In . SVG Version: 6.00 Build 0)  -->
<svg xmlns="http://www.w3.org/2000/svg" xmlns:xlink="http://www.w3.org/1999/xlink" version="1.1" id="Capa_1" x="0px" y="0px" viewBox="0 0 508 508" style="enable-background:new 0 0 508 508;" xml:space="preserve">
<g>
	<g>
		<path d="M463.6,409.276c0,0-46.3,17.9-53.6,32c-8.4,16-2.2,35.9,13.8,44.2c16,8.4,35.9,2.2,44.2-13.8    C475.4,457.576,463.6,409.276,463.6,409.276z M453.5,464.076c-4.2,8-14.1,11.1-22.1,6.9s-11.1-14.1-6.9-22.1    c2.4-4.6,14.9-11.9,27.6-17.5C454.8,445.076,455.9,459.376,453.5,464.076z"/>
	</g>
</g>
<g>
	<g>
		<path d="M340.7,409.276c0,0-46.3,17.9-53.6,32c-8.4,16-2.2,35.9,13.8,44.2c16,8.4,35.9,2.2,44.2-13.8    C352.5,457.576,340.7,409.276,340.7,409.276z M330.6,464.076c-4.2,8-14.1,11.1-22.1,6.9s-11.1-14.1-6.9-22.1    c2.4-4.6,14.9-11.9,27.6-17.5C331.9,445.076,333,459.376,330.6,464.076z"/>
	</g>
</g>
<g>
	<g>
		<path d="M217.8,409.276c0,0-46.3,17.9-53.6,32c-8.4,16-2.2,35.9,13.8,44.2c16,8.4,35.9,2.2,44.2-13.8    C229.6,457.576,217.8,409.276,217.8,409.276z M207.7,464.076c-4.2,8-14.1,11.1-22.1,6.9s-11.1-14.1-6.9-22.1    c2.4-4.6,14.9-11.9,27.6-17.5C209,445.076,210.1,459.376,207.7,464.076z"/>
	</g>
</g>
<g>
	<g>
		<path d="M94.9,409.276c0,0-46.3,17.9-53.6,32c-8.4,16-2.2,35.9,13.8,44.2c16,8.4,35.9,2.2,44.2-13.8    C106.7,457.576,94.9,409.276,94.9,409.276z M84.8,464.076c-4.2,8-14.1,11.1-22.1,6.9s-11.1-14.1-6.9-22.1    c2.4-4.6,14.9-11.9,27.6-17.5C86.1,445.076,87.2,459.376,84.8,464.076z"/>
	</g>
</g>
<g>
	<g>
		<path d="M424.2,151.076h-0.8c-4.2-48.1-44.6-85.9-93.8-85.9c-8.4,0-16.9,1.2-25.1,3.5c-26.8-31.8-65.6-49.9-107.3-49.9    c-76.2,0-138.5,61.1-140.4,136.9c-33.8,11.5-56.8,43.2-56.8,79.3c0,42.2,30.8,77.3,72.1,83c23,30.2,58.9,48.1,96.8,48.1    c29.9,0,58.1-10.7,80.4-30.3c22.2,19.6,50.5,30.3,80.4,30.3c37.5,0,73.1-17.6,96.1-47.3c45.5-0.8,82.2-38.1,82.2-83.8    C508,188.676,470.4,151.076,424.2,151.076z M424.2,302.376h-6.7c0,0-30.6,47.3-87.8,47.3c-51.2,0-80.4-36.8-80.4-36.8    s-25.9,36.8-80.4,36.8c-59.3,0-87.8-47.2-87.8-47.2s-64.7-4.1-64.7-67.5c0-56.3,57-66.9,57-66.9s-0.2-7.5-0.3-8.8    c0-68.5,55.7-124.2,124.2-124.2c68.4,0,101.5,52.6,101.5,52.6s15.9-6.2,30.8-6.2c42.9,0,77.7,34.9,77.7,77.7v8.2h16.8    c37.2,0,67.4,30.3,67.4,67.4C491.6,272.076,461.4,302.376,424.2,302.376z"/>
	</g>
</g>
<g>
	<g>
		<path d="M104,159.276h16.4c0-42.4,34.5-76.9,76.9-76.9v-16.4C145.8,65.976,104,107.876,104,159.276z"/>
	</g>
</g>
<g>
</g>
<g>
</g>
<g>
</g>
<g>
</g>
<g>
</g>
<g>
</g>
<g>
</g>
<g>
</g>
<g>
</g>
<g>
</g>
<g>
</g>
<g>
</g>
<g>
</g>
<g>
</g>
<g>
</g>
</svg>
