<?xml version="1.0" encoding="iso-8859-1"?>
<!-- Generator: Adobe Illustrator 19.0.0, SVG Export Plug-In . SVG Version: 6.00 Build 0)  -->
<svg xmlns="http://www.w3.org/2000/svg" xmlns:xlink="http://www.w3.org/1999/xlink" version="1.1" id="Capa_1" x="0px" y="0px" viewBox="0 0 508 508" style="enable-background:new 0 0 508 508;" xml:space="preserve">
<g>
	<g>
		<path d="M204.9,313.3c0,0-24.6,36.7-24.6,47.2c0,13.6,11,24.6,24.6,24.6c13.6,0,24.6-11,24.6-24.6    C229.5,350,204.9,313.3,204.9,313.3z M204.9,368.7c-4.5,0-8.2-3.7-8.2-8.2c0.1-2.5,3.5-9.6,8.2-17.6c4.7,7.9,8.1,15.1,8.2,17.6    C213.1,365,209.5,368.7,204.9,368.7z"/>
	</g>
</g>
<g>
	<g>
		<path d="M106.6,313.3c0,0-24.6,36.7-24.6,47.2c0,13.6,11,24.6,24.6,24.6s24.6-11,24.6-24.6C131.2,350,106.6,313.3,106.6,313.3z     M106.6,368.7c-4.5,0-8.2-3.7-8.2-8.2c0.1-2.5,3.5-9.6,8.2-17.6c4.7,7.9,8.1,15.1,8.2,17.6C114.8,365,111.1,368.7,106.6,368.7z"/>
	</g>
</g>
<g>
	<g>
		<path d="M303.3,313.3c0,0-24.6,36.7-24.6,47.2c0,13.6,11,24.6,24.6,24.6c13.6,0,24.6-11,24.6-24.6    C327.8,350,303.3,313.3,303.3,313.3z M303.3,368.7c-4.5,0-8.2-3.7-8.2-8.2c0.1-2.5,3.5-9.6,8.2-17.6c4.7,7.9,8.1,15.1,8.2,17.6    C311.5,365,307.8,368.7,303.3,368.7z"/>
	</g>
</g>
<g>
	<g>
		<path d="M401.6,313.3c0,0-24.6,36.7-24.6,47.2c0,13.6,11,24.6,24.6,24.6c13.6,0,24.6-11,24.6-24.6    C426.2,350,401.6,313.3,401.6,313.3z M401.6,368.7c-4.5,0-8.2-3.7-8.2-8.2c0.1-2.5,3.5-9.6,8.2-17.6c4.7,7.9,8.1,15.1,8.2,17.6    C409.8,365,406.1,368.7,401.6,368.7z"/>
	</g>
</g>
<g>
	<g>
		<path d="M155.8,403.4c0,0-24.6,36.8-24.6,47.2c0,13.6,11,24.6,24.6,24.6c13.6,0,24.6-11,24.6-24.6    C180.4,440.1,155.8,403.4,155.8,403.4z M155.8,458.8c-4.5,0-8.2-3.7-8.2-8.2c0.1-2.5,3.5-9.6,8.2-17.6c4.7,7.9,8.1,15.1,8.2,17.6    C164,455.2,160.3,458.8,155.8,458.8z"/>
	</g>
</g>
<g>
	<g>
		<path d="M254.1,403.4c0,0-24.6,36.8-24.6,47.2c0,13.6,11,24.6,24.6,24.6c13.6,0,24.6-11,24.6-24.6    C278.7,440.1,254.1,403.4,254.1,403.4z M254.1,458.8c-4.5,0-8.2-3.7-8.2-8.2c0.1-2.5,3.5-9.6,8.2-17.6c4.7,7.9,8.1,15.1,8.2,17.6    C262.3,455.2,258.6,458.8,254.1,458.8z"/>
	</g>
</g>
<g>
	<g>
		<path d="M352.4,403.4c0,0-24.6,36.8-24.6,47.2c0,13.6,11,24.6,24.6,24.6c13.6,0,24.6-11,24.6-24.6    C377,440.1,352.4,403.4,352.4,403.4z M352.4,458.8c-4.5,0-8.2-3.7-8.2-8.2c0.1-2.5,3.5-9.6,8.2-17.6c4.7,7.9,8.1,15.1,8.2,17.6    C360.6,455.2,356.9,458.8,352.4,458.8z"/>
	</g>
</g>
<g>
	<g>
		<path d="M453.3,147.1C450.4,83.6,398.9,32.8,336,32.8c-28.2,0-55.2,10.3-76.6,29.1c-10.4-4.5-21.4-6.8-32.7-6.8    c-31.5,0-60.1,17.8-74.7,45.8c-33.9-6.2-66.6,12.7-80,43.6c-39.8,1-72,34.3-72,75.2C0.1,261.2,33.2,295,73.8,295h360.5    c40.7,0,73.7-33.7,73.7-75.2C508.1,185.3,485.5,155.7,453.3,147.1z M434.4,278.6H73.8c-31.6,0-57.4-26.4-57.4-58.8    c0-32.5,25.7-58.8,57.4-58.8h9.6l1.9-5.5c9.8-28.2,39.1-45.4,69-37.1l6.9,1.9l2.8-6.6c10.9-25.6,35.4-42.1,62.6-42.1    c10.6,0,20.9,2.5,30.5,7.4l5.2,2.7l4.2-4.1c18.9-18.3,43.5-28.4,69.3-28.4c55.7,0,101.1,46.4,101.1,103.4l-0.2,8l7,1.2    c27.7,4.7,47.9,29.1,47.9,58C491.7,252.2,466,278.6,434.4,278.6z"/>
	</g>
</g>
<g>
	<g>
		<path d="M336,73.7v16.4c31.6,0,57.4,25.7,57.4,57.4h16.4C409.8,106.8,376.7,73.7,336,73.7z"/>
	</g>
</g>
<g>
</g>
<g>
</g>
<g>
</g>
<g>
</g>
<g>
</g>
<g>
</g>
<g>
</g>
<g>
</g>
<g>
</g>
<g>
</g>
<g>
</g>
<g>
</g>
<g>
</g>
<g>
</g>
<g>
</g>
</svg>
