<?xml version="1.0" encoding="iso-8859-1"?>
<!-- Generator: Adobe Illustrator 19.0.0, SVG Export Plug-In . SVG Version: 6.00 Build 0)  -->
<svg xmlns="http://www.w3.org/2000/svg" xmlns:xlink="http://www.w3.org/1999/xlink" version="1.1" id="Capa_1" x="0px" y="0px" viewBox="0 0 508 508" style="enable-background:new 0 0 508 508;" xml:space="preserve">
<g>
	<g>
		<path d="M412.1,268.45c26.8-13.2,44.9-41,44.9-71.7c0-44.2-35.9-80.1-80.1-80.1c-38.6,0-70.8,26.9-78.4,63.8    c-13.3-2.5-26.1,0.1-33.1,2c-23.4-27.5-57.1-43.1-93.3-43.1c-66.5,0-120.8,53-122.8,119c-29.4,10.2-49.3,38-49.3,69.4    c0,37,26.8,67.7,63,72.9c20.1,26.2,51.4,41.8,84.5,41.8c25.9,0,50.3-9.2,69.6-25.9c19.3,16.8,43.8,25.9,69.6,25.9    c32.7,0,63.7-15.2,83.9-41c39.8-1,71.8-33.7,71.8-73.7C442.5,303.35,430.4,281.85,412.1,268.45z M376.9,132.95    c35.1,0,63.7,28.6,63.7,63.7c0,28.8-19.8,54.3-47.5,61.6c-7.8-2.8-15.9-4.2-24.1-4.2c-3.1-31.8-24.4-59-54.6-69.6    C320.1,154.65,345.9,132.95,376.9,132.95z M368.7,385.15h-6.4c0,0-22.1,41-75.6,41c-45.7,0-69.6-32.4-69.6-32.4    s-24.9,32.4-69.6,32.4c-53.1,0-75.5-40.9-75.5-40.9l-3.7-0.4c-29.6-2.8-51.9-27.3-51.9-57.1c0-48.2,49.3-57.1,49.3-57.1    s-0.1-7.4-0.2-8.5c0-58.7,47.8-106.5,106.5-106.5c33,0,63.6,15,84,41.2l3.6,4.6c0,0,12.9-5.6,27.1-5.6c36.5,0,66.3,29.7,66.3,66.3    v8.2h15.7c31.6,0,57.4,25.7,57.4,57.4C426.1,359.45,400.3,385.15,368.7,385.15z"/>
	</g>
</g>
<g>
	<g>
		<path d="M90.1,262.25h16.4c0-36.1,29.4-65.5,65.5-65.5v-16.4C126.9,180.35,90.1,217.05,90.1,262.25z"/>
	</g>
</g>
<g>
	<g>
		<rect x="368.7" y="65.55" width="16.4" height="42.3"/>
	</g>
</g>
<g>
	<g>
		<rect x="329.874" y="90.26" transform="matrix(0.9238 -0.3828 0.3828 0.9238 -13.6621 137.2605)" width="16.4" height="25.399"/>
	</g>
</g>
<g>
	<g>
		<polygon points="479.3,145.45 455.8,155.15 462.1,170.25 485.5,160.55   "/>
	</g>
</g>
<g>
	<g>
		<rect x="274.898" y="145.147" transform="matrix(0.3827 -0.9239 0.9239 0.3827 28.928 358.9883)" width="16.4" height="25.401"/>
	</g>
</g>
<g>
	<g>
		<rect x="462.406" y="222.738" transform="matrix(0.3826 -0.9239 0.9239 0.3826 72.9791 580.1869)" width="16.4" height="25.5"/>
	</g>
</g>
<g>
	<g>
		<rect x="402.991" y="94.712" transform="matrix(0.3828 -0.9238 0.9238 0.3828 161.4864 447.5421)" width="25.399" height="16.4"/>
	</g>
</g>
<g>
	<g>
		<rect x="433.479" y="110.826" transform="matrix(0.7071 -0.7071 0.7071 0.7071 48.9934 356.3331)" width="42.3" height="16.4"/>
	</g>
</g>
<g>
	<g>
		<rect x="465.7" y="188.55" width="42.3" height="16.4"/>
	</g>
</g>
<g>
	<g>
		<rect x="446.445" y="253.291" transform="matrix(0.7071 -0.7071 0.7071 0.7071 -60.8961 401.8644)" width="16.4" height="42.3"/>
	</g>
</g>
<g>
	<g>
		<rect x="291.028" y="97.786" transform="matrix(0.7072 -0.7071 0.7071 0.7072 3.4962 246.4157)" width="16.401" height="42.403"/>
	</g>
</g>
<g>
</g>
<g>
</g>
<g>
</g>
<g>
</g>
<g>
</g>
<g>
</g>
<g>
</g>
<g>
</g>
<g>
</g>
<g>
</g>
<g>
</g>
<g>
</g>
<g>
</g>
<g>
</g>
<g>
</g>
</svg>
