<?xml version="1.0" encoding="iso-8859-1"?>
<!-- Generator: Adobe Illustrator 19.0.0, SVG Export Plug-In . SVG Version: 6.00 Build 0)  -->
<svg xmlns="http://www.w3.org/2000/svg" xmlns:xlink="http://www.w3.org/1999/xlink" version="1.1" id="Capa_1" x="0px" y="0px" viewBox="0 0 508 508" style="enable-background:new 0 0 508 508;" xml:space="preserve">
<g>
	<g>
		<path d="M319.4,245.9V65.5C319.4,29.4,290,0,253.9,0c-36.1,0-65.5,29.4-65.5,65.5v180.4c-45.6,24.3-73.7,70.9-73.7,122.8    c0,76.8,62.5,139.3,139.3,139.3s139.3-62.5,139.3-139.3C393.2,316.8,365.1,270.3,319.4,245.9z M253.9,491.6    c-67.8,0-122.9-55.1-122.9-122.9c0-84.5,73.7-112.6,73.7-112.6V65.5c0-27.1,22.1-49.2,49.2-49.2c27.1,0,49.2,22.1,49.2,49.2V256    c0,0,73.7,28.2,73.7,112.6C376.8,436.5,321.7,491.6,253.9,491.6z"/>
	</g>
</g>
<g>
	<g>
		<path d="M278.5,282V139.3c0-13.6-11-24.6-24.6-24.6c-13.6,0-24.6,11-24.6,24.6V282c-38.4,10.9-65.5,46.3-65.5,86.7    c0,49.7,40.4,90.1,90.1,90.1s90.1-40.4,90.1-90.1C344,328.3,316.8,292.8,278.5,282z M253.9,442.5c-40.7,0-73.7-33.1-73.7-73.7    c0-66.6,65.5-73.6,65.5-73.6V139.3c0-4.5,3.7-8.2,8.2-8.2c4.5,0,8.2,3.7,8.2,8.2v155.8c0,0,65.5,11.4,65.5,73.6    C327.6,409.4,294.6,442.5,253.9,442.5z"/>
	</g>
</g>
<g>
	<g>
		<rect x="335.8" y="57.4" width="41" height="16.4"/>
	</g>
</g>
<g>
	<g>
		<rect x="335.8" y="98.3" width="24.6" height="16.4"/>
	</g>
</g>
<g>
	<g>
		<rect x="335.8" y="139.3" width="41" height="16.4"/>
	</g>
</g>
<g>
	<g>
		<rect x="335.8" y="180.3" width="24.6" height="16.4"/>
	</g>
</g>
<g>
	<g>
		<rect x="335.8" y="221.2" width="41" height="16.4"/>
	</g>
</g>
<g>
</g>
<g>
</g>
<g>
</g>
<g>
</g>
<g>
</g>
<g>
</g>
<g>
</g>
<g>
</g>
<g>
</g>
<g>
</g>
<g>
</g>
<g>
</g>
<g>
</g>
<g>
</g>
<g>
</g>
</svg>
