<?xml version="1.0" encoding="iso-8859-1"?>
<!-- Generator: Adobe Illustrator 19.0.0, SVG Export Plug-In . SVG Version: 6.00 Build 0)  -->
<svg xmlns="http://www.w3.org/2000/svg" xmlns:xlink="http://www.w3.org/1999/xlink" version="1.1" id="Capa_1" x="0px" y="0px" viewBox="0 0 507.901 507.901" style="enable-background:new 0 0 507.901 507.901;" xml:space="preserve">
<g>
	<g>
		<polygon points="155.7,417.9 134.5,417.9 149.5,402.9 137.9,391.3 122.9,406.3 122.9,385.1 106.5,385.1 106.5,406.3 91.5,391.3     80,402.9 94.9,417.9 73.7,417.9 73.7,434.3 94.9,434.3 80,449.2 91.5,460.8 106.5,445.8 106.5,467 122.9,467 122.9,445.8     137.9,460.8 149.5,449.2 134.5,434.3 155.7,434.3   "/>
	</g>
</g>
<g>
	<g>
		<polygon points="295,417.9 273.8,417.9 288.8,402.9 277.2,391.3 262.2,406.3 262.2,385.1 245.8,385.1 245.8,406.3 230.8,391.3     219.2,402.9 234.2,417.9 213,417.9 213,434.3 234.2,434.3 219.2,449.2 230.8,460.8 245.8,445.8 245.8,467 262.2,467 262.2,445.8     277.2,460.8 288.8,449.2 273.8,434.3 295,434.3   "/>
	</g>
</g>
<g>
	<g>
		<polygon points="434.3,417.9 413.1,417.9 428,402.9 416.5,391.3 401.5,406.3 401.5,385.1 385.1,385.1 385.1,406.3 370.1,391.3     358.5,402.9 373.5,417.9 352.3,417.9 352.3,434.3 373.5,434.3 358.5,449.2 370.1,460.8 385.1,445.8 385.1,467 401.5,467     401.5,445.8 416.5,460.8 428,449.2 413.1,434.3 434.3,434.3   "/>
	</g>
</g>
<g>
	<g>
		<path d="M473.2,212.5c1.3-8,2-16.1,2-24.1c0-81.3-66.2-147.5-147.5-147.5c-53.7,0-102.1,28.5-128.3,75    c-13.7-6.2-28.7-9.4-43.8-9.4c-56.5,0-102.9,44.2-106.3,100.4C20.8,214.2,0,240.4,0,270.4c0,36.1,29.4,65.5,65.5,65.5h376.9    c36.1,0,65.5-29.4,65.5-65.5C508,245.9,494.6,223.8,473.2,212.5z M442.5,319.5h-377c-27.1,0-49.2-22.1-49.2-49.2    c0-24.3,18.1-45.2,42.2-48.6l7-1.6V213c0-49.7,40.4-90.1,90.1-90.1c31.2,0,50.8,15.2,50.8,15.2S240,57.3,327.6,57.3    c72.3,0,131.1,58.8,131.1,131.1c0,16.9-4.2,33.8-4.2,33.8l6.3,2.6c18.6,7.6,30.7,25.4,30.7,45.5    C491.6,297.5,469.6,319.5,442.5,319.5z"/>
	</g>
</g>
<g>
	<g>
		<path d="M81.9,221.2h16.4c0-36.1,29.4-65.5,65.5-65.5v-16.4C118.7,139.3,81.9,176,81.9,221.2z"/>
	</g>
</g>
<g>
</g>
<g>
</g>
<g>
</g>
<g>
</g>
<g>
</g>
<g>
</g>
<g>
</g>
<g>
</g>
<g>
</g>
<g>
</g>
<g>
</g>
<g>
</g>
<g>
</g>
<g>
</g>
<g>
</g>
</svg>
