<?xml version="1.0" encoding="iso-8859-1"?>
<!-- Generator: Adobe Illustrator 19.0.0, SVG Export Plug-In . SVG Version: 6.00 Build 0)  -->
<svg xmlns="http://www.w3.org/2000/svg" xmlns:xlink="http://www.w3.org/1999/xlink" version="1.1" id="Capa_1" x="0px" y="0px" viewBox="0 0 508 508" style="enable-background:new 0 0 508 508;" xml:space="preserve">
<g>
	<g>
		<path d="M254,139.3c-63.3,0-114.7,51.5-114.7,114.7c0,63.3,51.5,114.7,114.7,114.7c63.3,0,114.7-51.5,114.7-114.7    C368.7,190.7,317.3,139.3,254,139.3z M254,352.3c-54.2,0-98.3-44.1-98.3-98.3c0-54.2,44.1-98.3,98.3-98.3s98.3,44.1,98.3,98.3    C352.3,308.2,308.2,352.3,254,352.3z"/>
	</g>
</g>
<g>
	<g>
		<rect x="245.8" width="16.4" height="81.9"/>
	</g>
</g>
<g>
	<g>
		<rect x="245.8" y="425.9" width="16.4" height="82.1"/>
	</g>
</g>
<g>
	<g>
		<rect x="170.586" y="47.765" transform="matrix(0.9239 -0.3827 0.3827 0.9239 -14.0838 73.929)" width="16.4" height="49.201"/>
	</g>
</g>
<g>
	<g>
		
			<rect x="321.047" y="410.884" transform="matrix(0.9239 -0.3827 0.3827 0.9239 -141.6304 159.1575)" width="16.4" height="49.401"/>
	</g>
</g>
<g>
	<g>
		<polygon points="455.3,161.8 409.8,180.6 416.1,195.7 461.5,176.9   "/>
	</g>
</g>
<g>
	<g>
		<rect x="47.698" y="321.017" transform="matrix(0.9239 -0.3827 0.3827 0.9239 -120.4769 52.7673)" width="49.401" height="16.4"/>
	</g>
</g>
<g>
	<g>
		<polygon points="52.8,161.8 46.5,176.9 91.9,195.7 98.2,180.6   "/>
	</g>
</g>
<g>
	<g>
		
			<rect x="427.351" y="304.514" transform="matrix(0.3827 -0.9239 0.9239 0.3827 -35.2834 605.6239)" width="16.4" height="49.401"/>
	</g>
</g>
<g>
	<g>
		<rect x="304.694" y="64.12" transform="matrix(0.3828 -0.9238 0.9238 0.3828 136.4245 348.8445)" width="49.199" height="16.4"/>
	</g>
</g>
<g>
	<g>
		
			<rect x="154.091" y="427.375" transform="matrix(0.3828 -0.9238 0.9238 0.3828 -292.0483 434.0036)" width="49.399" height="16.399"/>
	</g>
</g>
<g>
	<g>
		<rect x="363.674" y="95.12" transform="matrix(0.7071 -0.7071 0.7071 0.7071 45.4534 316.3739)" width="81.899" height="16.4"/>
	</g>
</g>
<g>
	<g>
		<rect x="62.394" y="396.4" transform="matrix(0.7071 -0.7071 0.7071 0.7071 -255.7977 191.65)" width="82.099" height="16.4"/>
	</g>
</g>
<g>
	<g>
		<rect x="426.1" y="245.8" width="81.9" height="16.4"/>
	</g>
</g>
<g>
	<g>
		<rect y="245.8" width="82.1" height="16.4"/>
	</g>
</g>
<g>
	<g>
		
			<rect x="396.405" y="363.711" transform="matrix(0.7071 -0.7071 0.7071 0.7071 -167.6325 404.6211)" width="16.4" height="81.899"/>
	</g>
</g>
<g>
	<g>
		<rect x="95.265" y="62.37" transform="matrix(0.7071 -0.7071 0.7071 0.7071 -42.8247 103.4521)" width="16.4" height="82.099"/>
	</g>
</g>
<g>
	<g>
		<path d="M254,106.5c-81.3,0-147.5,66.2-147.5,147.5S172.7,401.5,254,401.5S401.5,335.3,401.5,254S335.3,106.5,254,106.5z     M254,385.1c-72.3,0-131.1-58.8-131.1-131.1S181.7,122.9,254,122.9S385.1,181.7,385.1,254S326.3,385.1,254,385.1z"/>
	</g>
</g>
<g>
</g>
<g>
</g>
<g>
</g>
<g>
</g>
<g>
</g>
<g>
</g>
<g>
</g>
<g>
</g>
<g>
</g>
<g>
</g>
<g>
</g>
<g>
</g>
<g>
</g>
<g>
</g>
<g>
</g>
</svg>
