<?xml version="1.0" encoding="iso-8859-1"?>
<!-- Generator: Adobe Illustrator 19.0.0, SVG Export Plug-In . SVG Version: 6.00 Build 0)  -->
<svg xmlns="http://www.w3.org/2000/svg" xmlns:xlink="http://www.w3.org/1999/xlink" version="1.1" id="Capa_1" x="0px" y="0px" viewBox="0 0 508.1 508.1" style="enable-background:new 0 0 508.1 508.1;" xml:space="preserve">
<g>
	<g>
		<path d="M466.1,249.15c0.6-5.6,0.9-10.6,0.9-15.5c0-81.3-66.1-147.5-147.5-147.5c-47.5,0-91.8,22.7-119.5,61.1    c-9.2-2.5-18.6-3.8-28-3.8c-56.1,0-102.2,43.6-106.2,98.7c-37,4-65.8,35.3-65.8,73.3c0,40.7,33.1,73.7,73.7,73.7h98.8    c18.7,20.9,45.2,32.8,73.3,32.8c20.6,0,40.7-6.5,57.4-18.5c16.6,11.9,36.8,18.5,57.4,18.5c28.1,0,54.6-11.9,73.3-32.8h0.5    c40.7,0,73.7-33.1,73.7-73.7C508,287.25,491.4,261.35,466.1,249.15z M434.3,372.95h-8.1c0,0-19.1,32.8-65.7,32.8    c-35.7,0-57.4-23-57.4-23s-21.3,23-57.4,23c-42.8,0-65.7-32.8-65.7-32.8H73.7c-31.6,0-57.4-25.7-57.4-57.4    c0-31.6,25.7-57.4,57.4-57.4h8.2v-8.2c0-49.7,40.4-90.1,90.1-90.1c17.9,0,34.7,6.8,34.7,6.8s36.9-64.1,112.8-64.1    c72.3,0,131.1,58.8,131.1,131.1c0,14-2.6,25.9-2.6,25.9s43.5,14.2,43.5,56C491.6,347.25,465.9,372.95,434.3,372.95z"/>
	</g>
</g>
<g>
	<g>
		<path d="M98.3,258.25h16.4c0-36.1,29.4-65.5,65.5-65.5v-16.4C135.1,176.35,98.3,213.05,98.3,258.25z"/>
	</g>
</g>
<g>
</g>
<g>
</g>
<g>
</g>
<g>
</g>
<g>
</g>
<g>
</g>
<g>
</g>
<g>
</g>
<g>
</g>
<g>
</g>
<g>
</g>
<g>
</g>
<g>
</g>
<g>
</g>
<g>
</g>
</svg>
