<?xml version="1.0" encoding="iso-8859-1"?>
<!-- Generator: Adobe Illustrator 19.0.0, SVG Export Plug-In . SVG Version: 6.00 Build 0)  -->
<svg xmlns="http://www.w3.org/2000/svg" xmlns:xlink="http://www.w3.org/1999/xlink" version="1.1" id="Capa_1" x="0px" y="0px" viewBox="0 0 508.1 508.1" style="enable-background:new 0 0 508.1 508.1;" xml:space="preserve">
<g>
	<g>
		<path d="M344.1,442.5c-18.1,0-32.8,14.7-32.8,32.8s14.7,32.8,32.8,32.8s32.8-14.7,32.8-32.8S362.2,442.5,344.1,442.5z     M344.1,491.6c-9,0-16.4-7.3-16.4-16.4c0-9,7.3-16.4,16.4-16.4c9,0,16.4,7.3,16.4,16.4C360.5,484.3,353.2,491.6,344.1,491.6z"/>
	</g>
</g>
<g>
	<g>
		<path d="M172.1,442.5c-18.1,0-32.8,14.7-32.8,32.8s14.7,32.8,32.8,32.8c18.1,0,32.8-14.7,32.8-32.8    C204.8,457.2,190.1,442.5,172.1,442.5z M172.1,491.6c-9,0-16.4-7.3-16.4-16.4c0-9,7.3-16.4,16.4-16.4c9,0,16.4,7.3,16.4,16.4    C188.5,484.3,181.1,491.6,172.1,491.6z"/>
	</g>
</g>
<g>
	<g>
		<path d="M98.3,356.5c0,0-32.8,37.3-32.8,53.2c0,18.1,14.7,32.8,32.8,32.8c18.1,0,32.8-14.7,32.8-32.8    C131.1,393.8,98.3,356.5,98.3,356.5z M98.3,426.1c-9,0-16.4-7.3-16.4-16.4c0-5.2,7.7-17.4,16.4-28.3c8.7,10.9,16.4,23.1,16.4,28.3    C114.7,418.7,107.4,426.1,98.3,426.1z"/>
	</g>
</g>
<g>
	<g>
		<path d="M254,356.5c0,0-32.8,37.3-32.8,53.2c0,18.1,14.7,32.8,32.8,32.8c18.1,0,32.8-14.7,32.8-32.8    C286.8,393.8,254,356.5,254,356.5z M254,426.1c-9,0-16.4-7.3-16.4-16.4c0-5.2,7.7-17.4,16.4-28.3c8.7,10.9,16.4,23.1,16.4,28.3    C270.4,418.7,263,426.1,254,426.1z"/>
	</g>
</g>
<g>
	<g>
		<path d="M409.7,356.5c0,0-32.8,37.3-32.8,53.2c0,18.1,14.7,32.8,32.8,32.8s32.8-14.7,32.8-32.8    C442.5,393.8,409.7,356.5,409.7,356.5z M409.7,426.1c-9,0-16.4-7.3-16.4-16.4c0-5.2,7.7-17.4,16.4-28.3    c8.7,10.9,16.4,23.1,16.4,28.3C426.1,418.7,418.7,426.1,409.7,426.1z"/>
	</g>
</g>
<g>
	<g>
		<path d="M319.5,41v16.4c49.7,0,90.1,40.4,90.1,90.1H426C426.1,88.7,378.3,41,319.5,41z"/>
	</g>
</g>
<g>
	<g>
		<path d="M466.1,163c0.6-5.5,0.9-10.6,0.9-15.5C467,66.2,400.9,0,319.5,0C272,0,227.8,22.7,200,61.1c-9.2-2.5-18.6-3.8-28-3.8    c-56.1,0-102.2,43.6-106.2,98.7C28.8,160,0,191.3,0,229.3C0,270,33.1,303,73.7,303h98.8c18.7,20.9,45.2,32.8,73.3,32.8    c20.6,0,40.7-6.5,57.4-18.5c16.6,11.9,36.8,18.5,57.4,18.5c28.1,0,54.6-11.9,73.3-32.8h0.5c40.7,0,73.7-33.1,73.7-73.7    C508,201.1,491.4,175.1,466.1,163z M434.3,286.8h-8.1c0,0-22.3,32.8-65.7,32.8c-35.2,0-57.4-23-57.4-23s-18.8,23-57.4,23    c-46.1,0-65.7-32.8-65.7-32.8H73.7c-31.6,0-57.4-25.7-57.4-57.4c0-31.6,25.7-57.4,57.4-57.4h8.2v-8.2c0-49.7,40.4-90.1,90.1-90.1    c17.3,0,34.7,6.8,34.7,6.8s35.9-64.1,112.8-64.1c72.3,0,131.1,58.8,131.1,131.1c0,14.1-2.6,25.9-2.6,25.9s43.5,14.3,43.5,56    C491.6,261,465.9,286.8,434.3,286.8z"/>
	</g>
</g>
<g>
</g>
<g>
</g>
<g>
</g>
<g>
</g>
<g>
</g>
<g>
</g>
<g>
</g>
<g>
</g>
<g>
</g>
<g>
</g>
<g>
</g>
<g>
</g>
<g>
</g>
<g>
</g>
<g>
</g>
</svg>
