<?xml version="1.0" encoding="iso-8859-1"?>
<!-- Generator: Adobe Illustrator 19.0.0, SVG Export Plug-In . SVG Version: 6.00 Build 0)  -->
<svg xmlns="http://www.w3.org/2000/svg" xmlns:xlink="http://www.w3.org/1999/xlink" version="1.1" id="Capa_1" x="0px" y="0px" viewBox="0 0 508 508" style="enable-background:new 0 0 508 508;" xml:space="preserve">
<g>
	<g>
		<polygon points="311.45,376.9 299.35,376.9 310.85,365.4 299.25,353.8 276.15,376.9 262.25,376.9 262.25,363 285.35,339.9     273.75,328.3 262.25,339.8 262.25,327.7 245.85,327.7 245.85,339.8 234.35,328.3 222.75,339.9 245.85,363 245.85,376.9     231.95,376.9 208.85,353.8 197.25,365.4 208.75,376.9 196.65,376.9 196.65,393.3 208.75,393.3 197.25,404.8 208.85,416.4     231.95,393.3 245.85,393.3 245.85,407.2 222.75,430.3 234.35,441.9 245.85,430.4 245.85,442.5 262.25,442.5 262.25,430.4     273.75,441.9 285.35,430.3 262.25,407.2 262.25,393.3 276.15,393.3 299.25,416.4 310.85,404.8 299.35,393.3 311.45,393.3   "/>
	</g>
</g>
<g>
	<g>
		<polygon points="147.55,442.5 135.45,442.5 146.95,430.9 135.35,419.4 112.25,442.5 98.35,442.5 98.35,428.5 121.45,405.5     109.85,393.9 98.35,405.4 98.35,393.3 81.95,393.3 81.95,405.4 70.45,393.9 58.85,405.5 81.95,428.5 81.95,442.5 68.05,442.5     44.95,419.4 33.45,430.9 44.95,442.5 32.85,442.5 32.85,458.8 44.95,458.8 33.45,470.3 44.95,481.9 68.05,458.8 81.95,458.8     81.95,472.7 58.85,495.8 70.45,507.4 81.95,495.9 81.95,508 98.35,508 98.35,495.9 109.85,507.4 121.45,495.8 98.35,472.7     98.35,458.8 112.25,458.8 135.35,481.9 146.95,470.3 135.45,458.8 147.55,458.8   "/>
	</g>
</g>
<g>
	<g>
		<polygon points="475.25,442.5 463.15,442.5 474.65,430.9 463.15,419.4 440.05,442.5 426.15,442.5 426.15,428.5 449.25,405.5     437.65,393.9 426.15,405.4 426.15,393.3 409.75,393.3 409.75,405.4 398.25,393.9 386.65,405.5 409.75,428.5 409.75,442.5     395.85,442.5 372.75,419.4 361.15,430.9 372.65,442.5 360.55,442.5 360.55,458.8 372.65,458.8 361.15,470.3 372.75,481.9     395.85,458.8 409.75,458.8 409.75,472.7 386.65,495.8 398.25,507.4 409.75,495.9 409.75,508 426.15,508 426.15,495.9     437.65,507.4 449.25,495.8 426.15,472.7 426.15,458.8 440.05,458.8 463.15,481.9 474.65,470.3 463.15,458.8 475.25,458.8   "/>
	</g>
</g>
<g>
	<g>
		<path d="M319.55,41v16.4c49.7,0,90.1,40.4,90.1,90.1h16.4C426.15,88.7,378.35,41,319.55,41z"/>
	</g>
</g>
<g>
	<g>
		<path d="M466.15,163c0.6-5.6,0.9-10.6,0.9-15.5c0-81.3-66.1-147.5-147.5-147.5c-47.5,0-91.7,22.7-119.5,61.1    c-9.2-2.5-18.6-3.8-28-3.8c-56.1,0-102.2,43.6-106.2,98.7c-37,4-65.8,35.3-65.8,73.3c0,40.7,33.1,73.7,73.7,73.7h360.5    c40.7,0,73.7-33.1,73.7-73.7C508.05,201.1,491.45,175.1,466.15,163z M434.35,286.8H73.75c-31.6,0-57.4-25.7-57.4-57.4    c0-59.7,65.5-57.4,65.5-57.4v-8.2c0-49.7,40.4-90.1,90.1-90.1c16.1,0,34.7,6.8,34.7,6.8s35-64.1,112.8-64.1    c72.3,0,131.1,58.8,131.1,131.1c0,12.9-2.6,25.9-2.6,25.9s43.5,12.8,43.5,56C491.65,261,465.95,286.8,434.35,286.8z"/>
	</g>
</g>
<g>
</g>
<g>
</g>
<g>
</g>
<g>
</g>
<g>
</g>
<g>
</g>
<g>
</g>
<g>
</g>
<g>
</g>
<g>
</g>
<g>
</g>
<g>
</g>
<g>
</g>
<g>
</g>
<g>
</g>
</svg>
