<?xml version="1.0" encoding="iso-8859-1"?>
<!-- Generator: Adobe Illustrator 19.0.0, SVG Export Plug-In . SVG Version: 6.00 Build 0)  -->
<svg xmlns="http://www.w3.org/2000/svg" xmlns:xlink="http://www.w3.org/1999/xlink" version="1.1" id="Capa_1" x="0px" y="0px" viewBox="0 0 508 508" style="enable-background:new 0 0 508 508;" xml:space="preserve">
<g>
	<g>
		<path d="M450,143.1c0.5-4,0.7-7.9,0.7-11.7c0-58.7-47.8-106.5-106.5-106.5c-9.4,0-18.7,1.3-27.9,3.8C300.6,10.4,278.2,0,254,0    c-36.5,0-67.9,23.6-78.4,57.6c-11.2-5.6-23.6-8.5-36.3-8.5C94,49.2,57.1,86,57.1,131.4c0,3.9,0.3,7.8,0.9,11.8    c-34,10.4-58,42.1-58,78.4c0,41.9,31.8,76.9,73,81.4c15.5,21.1,40,33.6,66.3,33.6c26.1,0,50.4-12.3,65.9-33.1h220.9    c45.2,0,81.9-36.8,81.9-81.9C508,185.3,484,153.5,450,143.1z M426.1,287.1H196.5c0,0-18.3,33.1-57.2,33.1c-38.9,0-57.2-33-57.2-33    L78,287c-34.6-2.1-61.6-30.8-61.6-65.3c0-59.2,61.2-65.9,61.2-65.9s-4.1-10.9-4.1-24.2c0-36.3,29.5-65.8,65.8-65.8    c28.1,0,47.8,18.8,47.8,18.8l2.1-12.7c5.2-32,32.5-55.2,64.9-55.2c37.4,0,56.3,31.3,56.3,31.3s13.6-6.4,33.9-6.4    c49.7,0,90.1,40.4,90.1,90.1c0,16.6-3,24.3-3,24.3s60.4,8.7,60.4,65.8C491.6,257.6,462.2,287.1,426.1,287.1z"/>
	</g>
</g>
<g>
	<g>
		<path d="M344.1,57.9v16.4c31.3,0,56.8,25.5,56.8,56.8h16.4C417.3,90.7,384.5,57.9,344.1,57.9z"/>
	</g>
</g>
<g>
	<g>
		<path d="M417.9,348.3c0,0-32.8,37.3-32.8,53.2c0,18.1,14.7,32.8,32.8,32.8s32.8-14.7,32.8-32.8    C450.7,385.6,417.9,348.3,417.9,348.3z M417.9,417.9c-9,0-16.4-7.3-16.4-16.4c0-5.2,7.7-17.4,16.4-28.3    c8.7,10.9,16.4,23.1,16.4,28.3C434.3,410.5,426.9,417.9,417.9,417.9z"/>
	</g>
</g>
<g>
	<g>
		<path d="M278.6,348.3c0,0-32.8,37.3-32.8,53.2c0,18.1,14.7,32.8,32.8,32.8c18.1,0,32.8-14.7,32.8-32.8    C311.4,385.6,278.6,348.3,278.6,348.3z M278.6,417.9c-9,0-16.4-7.3-16.4-16.4c0-5.2,7.7-17.4,16.4-28.3    c8.7,10.9,16.4,23.1,16.4,28.3C295,410.5,287.6,417.9,278.6,417.9z"/>
	</g>
</g>
<g>
	<g>
		<path d="M139.3,348.3c0,0-32.8,37.3-32.8,53.2c0,18.1,14.7,32.8,32.8,32.8c18.1,0,32.8-14.7,32.8-32.8    C172.1,385.6,139.3,348.3,139.3,348.3z M139.3,417.9c-9,0-16.4-7.3-16.4-16.4c0-5.2,7.7-17.4,16.4-28.3    c8.7,10.9,16.4,23.1,16.4,28.3C155.7,410.5,148.3,417.9,139.3,417.9z"/>
	</g>
</g>
<g>
	<g>
		<path d="M348.3,422c0,0-32.8,37.3-32.8,53.2c0,18.1,14.7,32.8,32.8,32.8c18.1,0,32.8-14.7,32.8-32.8    C381.1,459.3,348.3,422,348.3,422z M348.2,491.6c-9,0-16.4-7.3-16.4-16.4c0-5.2,7.7-17.4,16.4-28.3c8.7,10.9,16.4,23.1,16.4,28.3    C364.6,484.3,357.3,491.6,348.2,491.6z"/>
	</g>
</g>
<g>
	<g>
		<path d="M209,422c0,0-32.8,37.3-32.8,53.2c0,18.1,14.7,32.8,32.8,32.8c18.1,0,32.8-14.7,32.8-32.8C241.8,459.3,209,422,209,422z     M208.9,491.6c-9,0-16.4-7.3-16.4-16.4c0-5.2,7.7-17.4,16.4-28.3c8.7,10.9,16.4,23.1,16.4,28.3C225.3,484.3,218,491.6,208.9,491.6    z"/>
	</g>
</g>
<g>
</g>
<g>
</g>
<g>
</g>
<g>
</g>
<g>
</g>
<g>
</g>
<g>
</g>
<g>
</g>
<g>
</g>
<g>
</g>
<g>
</g>
<g>
</g>
<g>
</g>
<g>
</g>
<g>
</g>
</svg>
