<?xml version="1.0" encoding="iso-8859-1"?>
<!-- Generator: Adobe Illustrator 19.0.0, SVG Export Plug-In . SVG Version: 6.00 Build 0)  -->
<svg xmlns="http://www.w3.org/2000/svg" xmlns:xlink="http://www.w3.org/1999/xlink" version="1.1" id="Capa_1" x="0px" y="0px" viewBox="0 0 508.1 508.1" style="enable-background:new 0 0 508.1 508.1;" xml:space="preserve">
<g>
	<g>
		<path d="M467.05,114.2C466.85,51.2,415.45,0,352.35,0c-36.1,0-69.7,16.9-91.4,45.5c-15.2-23.1-41.2-37.3-69.2-37.3    c-25.7,0-49.7,11.7-65.3,31.6c-6.7-2.2-13.6-3.3-20.7-3.3c-29.2,0-54.7,19.2-62.9,46.4c-24.8,5-42.8,26.6-42.8,52.2    c0,29.4,24.3,53.4,54.1,53.4h28.3c4.1,36.8,35.4,65.5,73.3,65.5h278.6c40.7,0,73.7-33.1,73.7-73.7    C508.05,151.9,492.15,126.6,467.05,114.2z M54.15,172.1c-20.8,0-37.7-16.6-37.7-37c0-19.1,14.6-34.9,33.9-36.8l6-0.6l1.2-5.9    c4.5-22.5,24.8-38.9,48.2-38.9c7,0,13.8,1.5,20.3,4.3l6.3,2.8l3.8-5.8c12.3-18.6,33.1-29.7,55.6-29.7c16.5,0,32,6.2,44,16.7    c-50.3,0-82.9,27.5-93.4,66.5c-32.2,5.8-56.4,32-59.9,64.4H54.15z M434.35,237.6h-278.6c-31.6,0-57.4-25.7-57.4-57.4    c0-29.6,22.2-54.1,51.6-57.1l6-0.6l1.2-6c6.8-34.4,37.2-59.3,72.3-59.3c20.7,0,36.8,9.5,36.8,9.5l3.8-5.7    c18.3-27.9,49-44.6,82.3-44.6c54.2,0,98.3,44.1,98.3,98.3c0,0.8-0.5,10.2-0.5,10.2l5.4,2.2c21.9,8.8,36.1,29.7,36.1,53.2    C491.65,211.9,465.95,237.6,434.35,237.6z"/>
	</g>
</g>
<g>
	<g>
		<polygon points="196.65,303.2 175.55,303.2 190.45,288.2 178.95,276.6 163.95,291.6 163.95,270.4 147.55,270.4 147.55,291.6     132.55,276.6 120.95,288.2 135.95,303.2 114.75,303.2 114.75,319.5 135.95,319.5 120.95,334.5 132.55,346.1 147.55,331.1     147.55,352.3 163.95,352.3 163.95,331.1 178.95,346.1 190.45,334.5 175.55,319.5 196.65,319.5   "/>
	</g>
</g>
<g>
	<g>
		<polygon points="335.95,303.2 314.75,303.2 329.75,288.2 318.15,276.6 303.25,291.6 303.25,270.4 286.85,270.4 286.85,291.6     271.85,276.6 260.25,288.2 275.25,303.2 254.05,303.2 254.05,319.5 275.25,319.5 260.25,334.5 271.85,346.1 286.85,331.1     286.85,352.3 303.25,352.3 303.25,331.1 318.15,346.1 329.75,334.5 314.75,319.5 335.95,319.5   "/>
	</g>
</g>
<g>
	<g>
		<polygon points="475.25,303.2 454.05,303.2 469.05,288.2 457.45,276.6 442.55,291.6 442.55,270.4 426.15,270.4 426.15,291.6     411.15,276.6 399.55,288.2 414.55,303.2 393.35,303.2 393.35,319.5 414.55,319.5 399.55,334.5 411.15,346.1 426.15,331.1     426.15,352.3 442.55,352.3 442.55,331.1 457.45,346.1 469.05,334.5 454.05,319.5 475.25,319.5   "/>
	</g>
</g>
<g>
	<g>
		<path d="M352.35,32.8v16.4c36.2,0,65.6,29.4,65.6,65.6h16.4C434.35,69.5,397.55,32.8,352.35,32.8z"/>
	</g>
</g>
<g>
	<g>
		<path d="M221.25,360.5c-18.1,0-32.8,14.7-32.8,32.8s14.7,32.8,32.8,32.8c18.1,0,32.8-14.7,32.8-32.8S239.35,360.5,221.25,360.5z     M221.25,409.7c-9,0-16.4-7.3-16.4-16.4c0-9,7.3-16.4,16.4-16.4c9,0,16.4,7.3,16.4,16.4C237.65,402.3,230.35,409.7,221.25,409.7z"/>
	</g>
</g>
<g>
	<g>
		<path d="M368.75,360.5c-18.1,0-32.8,14.7-32.8,32.8s14.7,32.8,32.8,32.8c18.1,0,32.8-14.7,32.8-32.8S386.85,360.5,368.75,360.5z     M368.75,409.7c-9,0-16.4-7.3-16.4-16.4c0-9,7.3-16.4,16.4-16.4c9,0,16.4,7.3,16.4,16.4C385.15,402.3,377.75,409.7,368.75,409.7z"/>
	</g>
</g>
<g>
	<g>
		<path d="M155.75,442.5c-18.1,0-32.8,14.7-32.8,32.8s14.7,32.8,32.8,32.8c18.1,0,32.8-14.7,32.8-32.8S173.75,442.5,155.75,442.5z     M155.75,491.6c-9,0-16.4-7.3-16.4-16.4c0-9,7.3-16.4,16.4-16.4c9,0,16.4,7.3,16.4,16.4C172.15,484.3,164.75,491.6,155.75,491.6z"/>
	</g>
</g>
<g>
	<g>
		<path d="M434.35,442.5c-18.1,0-32.8,14.7-32.8,32.8s14.7,32.8,32.8,32.8c18.1,0,32.8-14.7,32.8-32.8    C467.05,457.2,452.35,442.5,434.35,442.5z M434.35,491.6c-9,0-16.4-7.3-16.4-16.4c0-9,7.3-16.4,16.4-16.4c9,0,16.4,7.3,16.4,16.4    C450.65,484.3,443.35,491.6,434.35,491.6z"/>
	</g>
</g>
<g>
	<g>
		<path d="M295.05,442.5c-18.1,0-32.8,14.7-32.8,32.8s14.7,32.8,32.8,32.8c18.1,0,32.8-14.7,32.8-32.8    C327.75,457.2,313.05,442.5,295.05,442.5z M295.05,491.6c-9,0-16.4-7.3-16.4-16.4c0-9,7.3-16.4,16.4-16.4c9,0,16.4,7.3,16.4,16.4    C311.45,484.3,304.05,491.6,295.05,491.6z"/>
	</g>
</g>
<g>
</g>
<g>
</g>
<g>
</g>
<g>
</g>
<g>
</g>
<g>
</g>
<g>
</g>
<g>
</g>
<g>
</g>
<g>
</g>
<g>
</g>
<g>
</g>
<g>
</g>
<g>
</g>
<g>
</g>
</svg>
