<?xml version="1.0" encoding="iso-8859-1"?>
<!-- Generator: Adobe Illustrator 19.0.0, SVG Export Plug-In . SVG Version: 6.00 Build 0)  -->
<svg xmlns="http://www.w3.org/2000/svg" xmlns:xlink="http://www.w3.org/1999/xlink" version="1.1" id="Capa_1" x="0px" y="0px" viewBox="0 0 507.9 507.9" style="enable-background:new 0 0 507.9 507.9;" xml:space="preserve">
<g>
	<g>
		<path d="M412,136.75c0,0-33.2,41.6-58.4,81.5c-38.8-70.7-99.6-147-99.6-147s-60.8,76.3-99.6,147c-25.2-39.9-58.4-81.5-58.4-81.5    S0,257.15,0,307.85c0,52.9,43,96,95.9,96c19.8,0,39-6.1,55.1-17.4c24,30.5,61.2,50.2,102.9,50.2s78.9-19.7,102.9-50.2    c16,11.3,35.3,17.4,55.1,17.4c52.9,0,96-43.1,96-96C508,257.15,412,136.75,412,136.75z M95.9,387.55c-43.9,0-79.6-35.7-79.6-79.6    c0-34.4,52.5-109.6,79.5-144.7c10.3,13.5,31.3,41.7,49.2,71.1c-14.9,30.1-22.2,53.4-22.2,71.3c0,24,6.4,47.1,18.7,67.5    C128.3,382.45,112.3,387.55,95.9,387.55z M254,420.25c-63.3,0-114.7-51.5-114.7-114.7c0-55.6,89.7-175.6,114.7-207.9    c25,32.4,114.7,152.4,114.7,207.9C368.7,368.85,317.3,420.25,254,420.25z M412,387.55c-16.4,0-32.3-5.1-45.6-14.4    c12.3-20.4,18.7-43.6,18.7-67.5c0-17.8-7.3-41.2-22.2-71.3c17.8-29.4,38.8-57.7,49.1-71.1c27,35.1,79.6,110.3,79.6,144.7    C491.6,351.75,455.9,387.55,412,387.55z"/>
	</g>
</g>
<g>
	<g>
		<path d="M180.3,305.55h-16.4c0,49.7,40.4,90.1,90.1,90.1v-16.4C213.3,379.35,180.3,346.25,180.3,305.55z"/>
	</g>
</g>
<g>
</g>
<g>
</g>
<g>
</g>
<g>
</g>
<g>
</g>
<g>
</g>
<g>
</g>
<g>
</g>
<g>
</g>
<g>
</g>
<g>
</g>
<g>
</g>
<g>
</g>
<g>
</g>
<g>
</g>
</svg>
