<?xml version="1.0" encoding="iso-8859-1"?>
<!-- Generator: Adobe Illustrator 19.0.0, SVG Export Plug-In . SVG Version: 6.00 Build 0)  -->
<svg xmlns="http://www.w3.org/2000/svg" xmlns:xlink="http://www.w3.org/1999/xlink" version="1.1" id="Capa_1" x="0px" y="0px" viewBox="0 0 508 508" style="enable-background:new 0 0 508 508;" xml:space="preserve">
<g>
	<g>
		<path d="M393.3,57.4c-5.9,0-11.8,0.5-17.7,1.4C345.8,21.3,301.8,0,254,0s-91.8,21.3-121.6,58.7c-5.9-0.9-11.8-1.4-17.7-1.4    C51.5,57.4,0,108.8,0,172.1c0,63.2,51.5,114.7,114.7,114.7c14.9,0,29.5-2.9,43.3-8.6c27.3,21.4,61.2,33.2,96,33.2    s68.7-11.7,96-33.2c13.9,5.7,28.4,8.6,43.3,8.6c63.3,0,114.7-51.5,114.7-114.7C508,108.8,456.5,57.4,393.3,57.4z M393.3,270.3    c-24.1,0-45.9-11.3-45.9-11.3s-33.6,36-93.4,36c-57.3,0-93.4-35.9-93.4-35.9s-21.2,11.3-45.9,11.3c-54.2,0-98.3-44.1-98.3-98.3    s44.1-98.4,98.3-98.4c14.2,0,24.6,3,24.6,3S178.1,16.4,254,16.4c78.6,0,114.7,60.3,114.7,60.3s10.4-3,24.6-3    c54.2,0,98.3,44.1,98.3,98.3S447.5,270.3,393.3,270.3z"/>
	</g>
</g>
<g>
	<g>
		<path d="M57.4,323.7c0,0-32.8,37.3-32.8,53.2c0,18.1,14.7,32.8,32.8,32.8c18.1,0,32.8-14.7,32.8-32.8    C90.1,361,57.4,323.7,57.4,323.7z M57.4,393.3c-9,0-16.4-7.3-16.4-16.4c0-5.2,7.7-17.4,16.4-28.3c8.7,10.9,16.4,23.1,16.4,28.3    C73.7,385.9,66.4,393.3,57.4,393.3z"/>
	</g>
</g>
<g>
	<g>
		<path d="M188.5,323.7c0,0-32.8,37.3-32.8,53.2c0,18.1,14.7,32.8,32.8,32.8c18.1,0,32.8-14.7,32.8-32.8    C221.2,361,188.5,323.7,188.5,323.7z M188.5,393.3c-9,0-16.4-7.3-16.4-16.4c0-5.2,7.7-17.4,16.4-28.3    c8.7,10.9,16.4,23.1,16.4,28.3C204.8,385.9,197.5,393.3,188.5,393.3z"/>
	</g>
</g>
<g>
	<g>
		<path d="M319.5,323.7c0,0-32.8,37.3-32.8,53.2c0,18.1,14.7,32.8,32.8,32.8c18.1,0,32.8-14.7,32.8-32.8    C352.3,361,319.5,323.7,319.5,323.7z M319.5,393.3c-9,0-16.4-7.3-16.4-16.4c0-5.2,7.7-17.4,16.4-28.3    c8.7,10.9,16.4,23.1,16.4,28.3C335.9,385.9,328.6,393.3,319.5,393.3z"/>
	</g>
</g>
<g>
	<g>
		<path d="M450.7,323.7c0,0-32.8,37.3-32.8,53.2c0,18.1,14.7,32.8,32.8,32.8s32.8-14.7,32.8-32.8C483.5,361,450.7,323.7,450.7,323.7    z M450.6,393.3c-9,0-16.4-7.3-16.4-16.4c0-5.2,7.7-17.4,16.4-28.3c8.7,10.9,16.4,23.1,16.4,28.3    C467,385.9,459.7,393.3,450.6,393.3z"/>
	</g>
</g>
<g>
	<g>
		<path d="M122.9,422c0,0-32.8,37.3-32.8,53.2c0,18.1,14.7,32.8,32.8,32.8c18.1,0,32.8-14.7,32.8-32.8    C155.7,459.3,122.9,422,122.9,422z M122.9,491.6c-9,0-16.4-7.3-16.4-16.4c0-5.2,7.7-17.4,16.4-28.3c8.7,10.9,16.4,23.1,16.4,28.3    C139.3,484.3,131.9,491.6,122.9,491.6z"/>
	</g>
</g>
<g>
	<g>
		<path d="M254,422c0,0-32.8,37.3-32.8,53.2c0,18.1,14.7,32.8,32.8,32.8c18.1,0,32.8-14.7,32.8-32.8C286.8,459.3,254,422,254,422z     M254,491.6c-9,0-16.4-7.3-16.4-16.4c0-5.2,7.7-17.4,16.4-28.3c8.7,10.9,16.4,23.1,16.4,28.3C270.4,484.3,263,491.6,254,491.6z"/>
	</g>
</g>
<g>
	<g>
		<path d="M385.1,422c0,0-32.8,37.3-32.8,53.2c0,18.1,14.7,32.8,32.8,32.8s32.8-14.7,32.8-32.8C417.9,459.3,385.1,422,385.1,422z     M385.1,491.6c-9,0-16.4-7.3-16.4-16.4c0-5.2,7.7-17.4,16.4-28.3c8.7,10.9,16.4,23.1,16.4,28.3    C401.5,484.3,394.1,491.6,385.1,491.6z"/>
	</g>
</g>
<g>
	<g>
		<path d="M32.8,172h16.4c0-36.1,29.4-65.5,65.5-65.5V90.1C69.5,90.1,32.8,126.9,32.8,172z"/>
	</g>
</g>
<g>
</g>
<g>
</g>
<g>
</g>
<g>
</g>
<g>
</g>
<g>
</g>
<g>
</g>
<g>
</g>
<g>
</g>
<g>
</g>
<g>
</g>
<g>
</g>
<g>
</g>
<g>
</g>
<g>
</g>
</svg>
