<?xml version="1.0" encoding="iso-8859-1"?>
<!-- Generator: Adobe Illustrator 19.0.0, SVG Export Plug-In . SVG Version: 6.00 Build 0)  -->
<svg xmlns="http://www.w3.org/2000/svg" xmlns:xlink="http://www.w3.org/1999/xlink" version="1.1" id="Capa_1" x="0px" y="0px" viewBox="0 0 508 508" style="enable-background:new 0 0 508 508;" xml:space="preserve">
<g>
	<g>
		<path d="M447.3,210.15c7.9-11.1,12.2-24.3,12.2-38.1c0-36.5-29.7-66.1-66.1-66.1c-31.7,0-58.3,22.5-64.7,52.4    c-22.5-12.4-48-19-74.6-19c-47.8,0-91.8,21.3-121.6,58.7c-5.9-0.9-11.8-1.4-17.7-1.4C51.5,196.55,0,248.05,0,311.35    s51.5,114.7,114.7,114.7c14.9,0,29.5-2.9,43.3-8.6c27.3,21.4,61.2,33.2,96,33.2s68.7-11.7,96-33.2c13.9,5.7,28.4,8.6,43.3,8.6    c63.3,0,114.7-51.5,114.7-114.7C508,267.55,483.4,229.45,447.3,210.15z M393.3,122.25c27.4,0,49.7,22.3,49.7,49.7    c0,11.6-3.9,22.6-11.2,31.4c-12.1-4.3-25-6.8-38.6-6.8c-5.9,0-11.8,0.5-17.7,1.4c-9.3-11.7-20-21.8-31.8-30.2    C345.9,142.35,367.3,122.25,393.3,122.25z M393.3,409.65c-26.5,0-45.9-11.3-45.9-11.3s-33.4,35.9-93.4,35.9    c-56.9,0-93.4-35.9-93.4-35.9s-22.2,11.3-45.9,11.3c-54.2,0-98.3-44.1-98.3-98.3s44.1-98.4,98.3-98.4c14,0,24.6,3,24.6,3    s39.6-60.3,114.7-60.3c78.5,0,114.7,60.3,114.7,60.3s11.7-3,24.6-3c54.2,0,98.3,44.1,98.3,98.3    C491.6,365.45,447.5,409.65,393.3,409.65z"/>
	</g>
</g>
<g>
	<g>
		<path d="M32.8,311.35h16.4c0-36.1,29.4-65.5,65.5-65.5v-16.4C69.5,229.35,32.8,266.15,32.8,311.35z"/>
	</g>
</g>
<g>
	<g>
		<rect x="385.1" y="57.35" width="16.4" height="32.8"/>
	</g>
</g>
<g>
	<g>
		<rect x="446.368" y="94.313" transform="matrix(0.7071 -0.7071 0.7071 0.7071 63.0536 357.2508)" width="32.8" height="16.4"/>
	</g>
</g>
<g>
	<g>
		<rect x="475.2" y="163.85" width="32.8" height="16.4"/>
	</g>
</g>
<g>
	<g>
		<rect x="315.63" y="86.107" transform="matrix(0.7072 -0.7071 0.7071 0.7072 22.3528 258.9853)" width="16.401" height="32.802"/>
	</g>
</g>
<g>
</g>
<g>
</g>
<g>
</g>
<g>
</g>
<g>
</g>
<g>
</g>
<g>
</g>
<g>
</g>
<g>
</g>
<g>
</g>
<g>
</g>
<g>
</g>
<g>
</g>
<g>
</g>
<g>
</g>
</svg>
