<?xml version="1.0" encoding="iso-8859-1"?>
<!-- Generator: Adobe Illustrator 19.0.0, SVG Export Plug-In . SVG Version: 6.00 Build 0)  -->
<svg xmlns="http://www.w3.org/2000/svg" xmlns:xlink="http://www.w3.org/1999/xlink" version="1.1" id="Capa_1" x="0px" y="0px" viewBox="0 0 508 508" style="enable-background:new 0 0 508 508;" xml:space="preserve">
<g>
	<g>
		<path d="M507.3,261.4C503,126.8,396,20.8,262.2,16.6V0h-16.4v16.6C112,20.8,5,126.8,0.7,261.4L0,281.8l70.5-69.2l61.2,61.1    l61.2-61.1l52.9,52.9v193.3c0,18.1-14.7,32.8-32.8,32.8c-18.1,0-32.8-14.7-32.8-32.8v-24.6h-16.4v24.6c0,27.1,22.1,49.2,49.2,49.2    s49.2-22.1,49.2-49.2V265.6l52.9-52.9l61.2,61.1l61.2-61.1l70.5,69.2L507.3,261.4z M128.2,247.1l-57.6-57.5l-51.9,51    C32,130.4,119.4,45.1,229.7,34c-53.4,47.7-88.7,113.8-97.9,185.2L128.2,247.1z M245.9,242.4h-0.1l-52.9-52.9l-46.7,46.7l1.9-14.9    c9-69.7,44.3-134.3,97.8-179.6V242.4z M315.2,189.5l-52.9,52.9V41.6c55.4,46.8,92.1,113.6,101.4,185.8l1.5,12L315.2,189.5z     M437.4,189.6l-55.1,55l-2.5-19.3c-9.5-73.7-46-142.1-101.4-191.3C388.6,45.1,476,130.4,489.3,240.5L437.4,189.6z"/>
	</g>
</g>
<g>
</g>
<g>
</g>
<g>
</g>
<g>
</g>
<g>
</g>
<g>
</g>
<g>
</g>
<g>
</g>
<g>
</g>
<g>
</g>
<g>
</g>
<g>
</g>
<g>
</g>
<g>
</g>
<g>
</g>
</svg>
