<?xml version="1.0" encoding="iso-8859-1"?>
<!-- Generator: Adobe Illustrator 19.0.0, SVG Export Plug-In . SVG Version: 6.00 Build 0)  -->
<svg xmlns="http://www.w3.org/2000/svg" xmlns:xlink="http://www.w3.org/1999/xlink" version="1.1" id="Capa_1" x="0px" y="0px" viewBox="0 0 508 508" style="enable-background:new 0 0 508 508;" xml:space="preserve">
<g>
	<g>
		<path d="M335.95,89.8v16.4c49.7,0,90.1,40.5,90.1,90.2h16.4C442.55,137.6,394.75,89.8,335.95,89.8z"/>
	</g>
</g>
<g>
	<g>
		<path d="M252.85,393.2c-13.6,0-24.6,11-24.6,24.6c0,13.6,11,24.6,24.6,24.6c13.6,0,24.6-11,24.6-24.6    C277.45,404.2,266.45,393.2,252.85,393.2z M252.85,426c-4.5,0-8.2-3.7-8.2-8.2s3.7-8.2,8.2-8.2c4.5,0,8.2,3.7,8.2,8.2    S257.35,426,252.85,426z"/>
	</g>
</g>
<g>
	<g>
		<path d="M344.15,393.2c-13.6,0-24.6,11-24.6,24.6c0,13.6,11,24.6,24.6,24.6c13.6,0,24.6-11,24.6-24.6    C368.75,404.2,357.75,393.2,344.15,393.2z M344.15,426c-4.5,0-8.2-3.7-8.2-8.2s3.7-8.2,8.2-8.2s8.2,3.7,8.2,8.2    S348.65,426,344.15,426z"/>
	</g>
</g>
<g>
	<g>
		<path d="M435.45,393.2c-13.6,0-24.6,11-24.6,24.6c0,13.6,11,24.6,24.6,24.6c13.6,0,24.6-11,24.6-24.6    C460.05,404.2,449.05,393.2,435.45,393.2z M435.45,426c-4.5,0-8.2-3.7-8.2-8.2s3.7-8.2,8.2-8.2s8.2,3.7,8.2,8.2    S439.95,426,435.45,426z"/>
	</g>
</g>
<g>
	<g>
		<path d="M70.25,393.2c-13.6,0-24.6,11-24.6,24.6c0,13.6,11,24.6,24.6,24.6c13.6,0,24.6-11,24.6-24.6    C94.85,404.2,83.85,393.2,70.25,393.2z M70.25,426c-4.5,0-8.2-3.7-8.2-8.2s3.7-8.2,8.2-8.2s8.2,3.7,8.2,8.2S74.75,426,70.25,426z"/>
	</g>
</g>
<g>
	<g>
		<path d="M161.55,393.2c-13.6,0-24.6,11-24.6,24.6c0,13.6,11,24.6,24.6,24.6c13.6,0,24.6-11,24.6-24.6    C186.15,404.2,175.15,393.2,161.55,393.2z M161.55,426c-4.5,0-8.2-3.7-8.2-8.2s3.7-8.2,8.2-8.2s8.2,3.7,8.2,8.2    S166.05,426,161.55,426z"/>
	</g>
</g>
<g>
	<g>
		<path d="M302.05,458.8c-13.6,0-24.6,11-24.6,24.6c0,13.6,11,24.6,24.6,24.6c13.6,0,24.6-11,24.6-24.6    C326.65,469.8,315.55,458.8,302.05,458.8z M302.05,491.6c-4.5,0-8.2-3.7-8.2-8.2s3.7-8.2,8.2-8.2s8.2,3.7,8.2,8.2    S306.55,491.6,302.05,491.6z"/>
	</g>
</g>
<g>
	<g>
		<path d="M393.35,458.8c-13.6,0-24.6,11-24.6,24.6c0,13.6,11,24.6,24.6,24.6c13.6,0,24.6-11,24.6-24.6    C417.95,469.8,406.85,458.8,393.35,458.8z M393.35,491.6c-4.5,0-8.2-3.7-8.2-8.2s3.7-8.2,8.2-8.2s8.2,3.7,8.2,8.2    S397.85,491.6,393.35,491.6z"/>
	</g>
</g>
<g>
	<g>
		<path d="M119.45,458.8c-13.6,0-24.6,11-24.6,24.6c0,13.6,11,24.6,24.6,24.6c13.6,0,24.6-11,24.6-24.6    C144.05,469.8,132.95,458.8,119.45,458.8z M119.45,491.6c-4.5,0-8.2-3.7-8.2-8.2s3.7-8.2,8.2-8.2s8.2,3.7,8.2,8.2    S123.95,491.6,119.45,491.6z"/>
	</g>
</g>
<g>
	<g>
		<path d="M210.75,458.8c-13.6,0-24.6,11-24.6,24.6c0,13.6,11,24.6,24.6,24.6c13.6,0,24.6-11,24.6-24.6    C235.35,469.8,224.25,458.8,210.75,458.8z M210.75,491.6c-4.5,0-8.2-3.7-8.2-8.2s3.7-8.2,8.2-8.2s8.2,3.7,8.2,8.2    S215.25,491.6,210.75,491.6z"/>
	</g>
</g>
<g>
	<g>
		<path d="M477.85,205c0.5-4.6,0.7-8.7,0.7-12.7c0-74.6-61-135.3-136-135.3c-40.2,0-77.6,17.3-103.6,47.8    c-14.1-5.7-43.1-13.8-68.5-6c1.1-5.3,1.6-10.7,1.6-16.2c0-32.1-19-61.2-48.3-74.1L104.45,0c0,0,14,25.6,14,45.3    c0,35.6-29,64.6-64.5,64.6c-20,0-45.3-14-45.3-14l8.5,19.3c12.7,28.9,41,47.6,72.3,48.2c-4.4,9.5-7.6,19.6-9.3,30.4h-12.9    c-37,0-67.2,30-67.2,66.9c0,36.9,30.1,66.9,67.2,66.9h29.2c20.1,25.7,51.2,41,83.8,41c32.7,0,63.7-15.2,83.8-41h176.7    c37,0,67.2-30,67.2-66.9C508.05,238.3,496.65,217.4,477.85,205z M43.05,125.6c3.6,0.5,7.2,0.7,10.9,0.7c44.6,0,80.9-36.3,80.9-81    c0-3.7-0.2-7.3-0.7-10.9c28.2,26.5,20.3,63,17.8,70c-21.4,8.5-40,23.3-52.9,42.2C76.05,148.5,55.05,139.1,43.05,125.6z     M440.85,311.2h-185c0,0-24.1,41-75.6,41c-51.7,0-75.6-41-75.6-41h-37.4c-28,0-50.8-22.6-50.8-50.5c0-27.8,22.8-50.5,50.8-50.5    h27.6l0.7-7.5c4.7-51.5,47.4-90.3,99.5-90.3c24.2,0,48.8,12.5,48.8,12.5s36.9-51.6,98.7-51.6c66,0,119.6,53.3,119.6,118.9    c0,13.3-1.9,21.5-1.9,21.5s31.4,13.3,31.4,47C491.65,288.6,468.85,311.2,440.85,311.2z"/>
	</g>
</g>
<g>
</g>
<g>
</g>
<g>
</g>
<g>
</g>
<g>
</g>
<g>
</g>
<g>
</g>
<g>
</g>
<g>
</g>
<g>
</g>
<g>
</g>
<g>
</g>
<g>
</g>
<g>
</g>
<g>
</g>
</svg>
