<?xml version="1.0" encoding="iso-8859-1"?>
<!-- Generator: Adobe Illustrator 19.0.0, SVG Export Plug-In . SVG Version: 6.00 Build 0)  -->
<svg xmlns="http://www.w3.org/2000/svg" xmlns:xlink="http://www.w3.org/1999/xlink" version="1.1" id="Capa_1" x="0px" y="0px" viewBox="0 0 507.901 507.901" style="enable-background:new 0 0 507.901 507.901;" xml:space="preserve">
<g>
	<g>
		<rect x="139.3" y="90" width="16.4" height="47.6"/>
	</g>
</g>
<g>
	<g>
		<polygon points="105.9,115.7 90.8,122 101.7,148.3 116.8,142.1   "/>
	</g>
</g>
<g>
	<g>
		<polygon points="52.2,268.1 25.7,279.1 31.9,294.2 58.4,283.3   "/>
	</g>
</g>
<g>
	<g>
		
			<rect x="33.761" y="179.529" transform="matrix(0.3828 -0.9238 0.9238 0.3828 -153.1205 158.3627)" width="16.4" height="28.499"/>
	</g>
</g>
<g>
	<g>
		<rect x="176.936" y="123.854" transform="matrix(0.3828 -0.9238 0.9238 0.3828 -3.9975 258.1245)" width="28.499" height="16.4"/>
	</g>
</g>
<g>
	<g>
		
			<rect x="36.196" y="316.712" transform="matrix(0.7071 -0.7071 0.7071 0.7071 -212.1606 137.6237)" width="47.699" height="16.4"/>
	</g>
</g>
<g>
	<g>
		<rect y="229.3" width="47.7" height="16.4"/>
	</g>
</g>
<g>
	<g>
		<rect x="51.855" y="126.245" transform="matrix(0.7071 -0.7071 0.7071 0.7071 -88.5432 86.4269)" width="16.4" height="47.7"/>
	</g>
</g>
<g>
	<g>
		<path d="M475.1,282.7c0.1-1.4,0.1-2.8,0.1-4.2c0-45.2-36.8-81.9-81.9-81.9c-5.9,0-11.9,0.7-17.7,2c-24.9-27.4-59.9-42.9-97-42.9    c-24.9,0-48.2,7-68.1,19.2c-16.7-16.8-39.2-26.3-63-26.3c-49.1,0-89.1,40-89.1,89.1c0,32.6,17.8,62.2,45.9,77.8    c-3.8,8.9-6,18.5-6,28.7c0,40.7,33.1,73.7,73.7,73.7h262.2c40.7,0,73.7-33.1,73.7-73.7C508,319.3,495.5,296.3,475.1,282.7z     M74.8,237.5c0-40.1,32.6-72.7,72.7-72.7c18.5,0,36.1,7,49.4,19.5c-28,22.3-45.4,54.4-48.7,90c-14.4,5-27,14.3-35.9,26.7    C89.3,288.3,74.8,264.1,74.8,237.5z M434.3,401.4H172.1c-31.6,0-57.4-25.7-57.4-57.4c0-49.8,49.1-57,49.1-57l0.3-6.1    c3-61.1,53.3-109,114.4-109c58.8,0,91.3,45.1,91.3,45.1s11.7-4.1,23.4-4.1c36.1,0,65.5,29.4,65.5,65.5c0,8-1.1,13-1.1,13    s33.9,13.6,33.9,52.6C491.6,375.7,465.9,401.4,434.3,401.4z"/>
	</g>
</g>
<g>
	<g>
		<path d="M393.3,229.3v16.4c18.1,0,32.8,14.7,32.8,32.8h16.4C442.5,251.4,420.4,229.3,393.3,229.3z"/>
	</g>
</g>
<g>
</g>
<g>
</g>
<g>
</g>
<g>
</g>
<g>
</g>
<g>
</g>
<g>
</g>
<g>
</g>
<g>
</g>
<g>
</g>
<g>
</g>
<g>
</g>
<g>
</g>
<g>
</g>
<g>
</g>
</svg>
