<?xml version="1.0" encoding="iso-8859-1"?>
<!-- Generator: Adobe Illustrator 19.0.0, SVG Export Plug-In . SVG Version: 6.00 Build 0)  -->
<svg xmlns="http://www.w3.org/2000/svg" xmlns:xlink="http://www.w3.org/1999/xlink" version="1.1" id="Capa_1" x="0px" y="0px" viewBox="0 0 508 508" style="enable-background:new 0 0 508 508;" xml:space="preserve">
<g>
	<g>
		<path d="M482.9,364.35l-77.9-68.2c1.3-4.7,2.4-9.5,3.3-14.4l99.7-27.7l-99.6-27.7c-0.9-4.9-2.1-9.7-3.4-14.4l78-68.3l-102,18.5    c-2.9-4-5.9-7.8-9.1-11.4l40.6-95.3l-83.8,60.7c-4.3-2.4-8.8-4.5-13.3-6.5l-4.9-103.4l-49.1,91c-2.5-0.1-4.9-0.3-7.5-0.3    c-2.5,0-5,0.2-7.4,0.3l-49-91l-4.8,103.4c-4.5,1.9-9,4.1-13.3,6.5l-83.8-60.7l40.6,95.3c-3.2,3.7-6.3,7.5-9.2,11.4l-102-18.5    l77.9,68.3c-1.3,4.7-2.5,9.5-3.4,14.4L0,254.05l99.8,27.7c0.9,4.9,1.9,9.6,3.2,14.3l-78,68.3l102-18.5c2.9,4,5.9,7.9,9.1,11.5    l-40.6,95.2l83.9-60.7c4.3,2.4,8.7,4.5,13.3,6.5l4.8,103.4l49.1-91.1c2.5,0.1,4.9,0.3,7.4,0.3s5-0.1,7.4-0.3l49.1,91l4.8-103.4    c4.6-1.9,9-4.1,13.4-6.4l83.8,60.6l-40.6-95.2c3.2-3.7,6.3-7.5,9.2-11.5L482.9,364.35z M410.6,244.15l35.6,9.9l-35.6,9.9    c0.3-3.4,0.4-6.7,0.4-9.9C411,250.85,410.9,247.55,410.6,244.15z M61.7,254.05l35.6-9.9c-0.3,3.4-0.4,6.7-0.4,9.9    c0.1,3.2,0.2,6.5,0.5,9.9L61.7,254.05z M427.1,337.45l-36.2-6.6c3.2-5.7,6.1-11.6,8.5-17.7L427.1,337.45z M427.1,170.65    l-27.7,24.2c-2.5-6.1-5.3-12-8.5-17.7L427.1,170.65z M373.9,103.75l-14.5,34.1c-4.9-4.4-10.1-8.6-15.5-12.4L373.9,103.75z     M296.7,66.65l1.7,36.9c-6.3-1.9-12.8-3.3-19.2-4.4L296.7,66.65z M211.3,66.65l17.5,32.5c-6.5,1.1-12.9,2.5-19.2,4.4L211.3,66.65z     M134.1,103.75l30,21.7c-5.4,3.8-10.6,7.9-15.5,12.4L134.1,103.75z M80.9,170.65l36.2,6.6c-3.2,5.7-6.1,11.6-8.5,17.7L80.9,170.65    z M80.9,337.45l27.7-24.2c2.5,6.1,5.3,12,8.5,17.7L80.9,337.45z M134.1,404.35l14.5-34.1c4.9,4.4,10.1,8.6,15.5,12.4L134.1,404.35    z M211.3,441.45l-1.7-36.9c6.3,1.9,12.7,3.3,19.2,4.4L211.3,441.45z M296.7,441.45l-17.5-32.5c6.5-1.1,12.9-2.5,19.2-4.4    L296.7,441.45z M373.9,404.35l-30-21.7c5.4-3.8,10.6-7.9,15.5-12.4L373.9,404.35z M254,394.55c-77.5,0-140.5-63-140.5-140.5    s63-140.5,140.5-140.5s140.5,63,140.5,140.5S331.5,394.55,254,394.55z"/>
	</g>
</g>
<g>
</g>
<g>
</g>
<g>
</g>
<g>
</g>
<g>
</g>
<g>
</g>
<g>
</g>
<g>
</g>
<g>
</g>
<g>
</g>
<g>
</g>
<g>
</g>
<g>
</g>
<g>
</g>
<g>
</g>
</svg>
