<?xml version="1.0" encoding="iso-8859-1"?>
<!-- Generator: Adobe Illustrator 19.0.0, SVG Export Plug-In . SVG Version: 6.00 Build 0)  -->
<svg xmlns="http://www.w3.org/2000/svg" xmlns:xlink="http://www.w3.org/1999/xlink" version="1.1" id="Capa_1" x="0px" y="0px" viewBox="0 0 508 508" style="enable-background:new 0 0 508 508;" xml:space="preserve">
<g>
	<g>
		<path d="M467,114.2C466.8,51.2,415.4,0,352.3,0c-36.1,0-69.7,16.9-91.4,45.5c-15.2-23.1-41.2-37.3-69.2-37.3    c-25.7,0-49.7,11.7-65.3,31.6c-6.7-2.2-13.6-3.3-20.7-3.3c-29.2,0-54.7,19.2-62.9,46.4C18,87.9,0,109.5,0,135.1    c0,29.4,24.3,53.4,54.1,53.4h28.3c4.1,36.8,35.4,65.5,73.3,65.5h278.6c40.7,0,73.7-33.1,73.7-73.7    C508,151.9,492.1,126.6,467,114.2z M54.1,172.1c-20.8,0-37.7-16.6-37.7-37c0-19.1,14.6-34.9,33.9-36.8l6-0.6l1.2-5.9    c4.5-22.5,24.8-38.9,48.2-38.9c7,0,13.8,1.5,20.3,4.3l6.3,2.8l3.8-5.8c12.3-18.6,33.1-29.7,55.6-29.7c16.5,0,32,6.2,44,16.7    c-48.2,0-82.9,27.5-93.4,66.5c-32.2,5.8-56.4,32-59.9,64.4H54.1z M434.3,237.6H155.7c-31.6,0-57.4-25.7-57.4-57.4    c0-29.6,22.2-54.1,51.6-57.1l6-0.6l1.2-6c6.8-34.4,37.2-59.3,72.3-59.3c10.5,0,20.7,2.2,30.4,6.6l6.4,2.9L270,61    c18.3-27.9,49-44.6,82.3-44.6c54.2,0,98.3,44.1,98.3,98.3c0,0.8-0.5,10.2-0.5,10.2l5.4,2.2c21.9,8.8,36.1,29.7,36.1,53.2    C491.6,211.9,465.9,237.6,434.3,237.6z"/>
	</g>
</g>
<g>
	<g>
		<polygon points="196.6,335.9 175.5,335.9 190.4,321 178.9,309.4 163.9,324.3 163.9,303.2 147.5,303.2 147.5,324.3 132.5,309.4     120.9,321 135.9,335.9 114.7,335.9 114.7,352.3 135.9,352.3 120.9,367.3 132.5,378.9 147.5,363.9 147.5,385.1 163.9,385.1     163.9,363.9 178.9,378.9 190.4,367.3 175.5,352.3 196.6,352.3   "/>
	</g>
</g>
<g>
	<g>
		<polygon points="335.9,335.9 314.7,335.9 329.7,321 318.1,309.4 303.2,324.3 303.2,303.2 286.8,303.2 286.8,324.3 271.8,309.4     260.2,321 275.2,335.9 254,335.9 254,352.3 275.2,352.3 260.2,367.3 271.8,378.9 286.8,363.9 286.8,385.1 303.2,385.1     303.2,363.9 318.1,378.9 329.7,367.3 314.7,352.3 335.9,352.3   "/>
	</g>
</g>
<g>
	<g>
		<polygon points="475.2,335.9 454,335.9 469,321 457.4,309.4 442.5,324.3 442.5,303.2 426.1,303.2 426.1,324.3 411.1,309.4     399.5,321 414.5,335.9 393.3,335.9 393.3,352.3 414.5,352.3 399.5,367.3 411.1,378.9 426.1,363.9 426.1,385.1 442.5,385.1     442.5,363.9 457.4,378.9 469,367.3 454,352.3 475.2,352.3   "/>
	</g>
</g>
<g>
	<g>
		<polygon points="266.3,458.8 245.1,458.8 260.1,443.9 248.5,432.3 233.5,447.3 233.5,426.1 217.1,426.1 217.1,447.3 202.1,432.3     190.6,443.9 205.5,458.8 184.4,458.8 184.4,475.2 205.5,475.2 190.6,490.2 202.1,501.8 217.1,486.8 217.1,508 233.5,508     233.5,486.8 248.5,501.8 260.1,490.2 245.1,475.2 266.3,475.2   "/>
	</g>
</g>
<g>
	<g>
		<polygon points="405.6,458.8 384.4,458.8 399.4,443.9 387.8,432.3 372.8,447.3 372.8,426.1 356.4,426.1 356.4,447.3 341.4,432.3     329.9,443.9 344.8,458.8 323.6,458.8 323.6,475.2 344.8,475.2 329.9,490.2 341.4,501.8 356.4,486.8 356.4,508 372.8,508     372.8,486.8 387.8,501.8 399.4,490.2 384.4,475.2 405.6,475.2   "/>
	</g>
</g>
<g>
	<g>
		<path d="M352.3,32.8v16.4c36.2,0,65.6,29.4,65.6,65.6h16.4C434.3,69.5,397.5,32.8,352.3,32.8z"/>
	</g>
</g>
<g>
</g>
<g>
</g>
<g>
</g>
<g>
</g>
<g>
</g>
<g>
</g>
<g>
</g>
<g>
</g>
<g>
</g>
<g>
</g>
<g>
</g>
<g>
</g>
<g>
</g>
<g>
</g>
<g>
</g>
</svg>
