<?xml version="1.0" encoding="iso-8859-1"?>
<!-- Generator: Adobe Illustrator 19.0.0, SVG Export Plug-In . SVG Version: 6.00 Build 0)  -->
<svg xmlns="http://www.w3.org/2000/svg" xmlns:xlink="http://www.w3.org/1999/xlink" version="1.1" id="Capa_1" x="0px" y="0px" viewBox="0 0 508.1 508.1" style="enable-background:new 0 0 508.1 508.1;" xml:space="preserve">
<g>
	<g>
		<path d="M327.7,71.379v16.4c36.4,0,66,29.4,66,65.5h16.4C410.1,108.079,373.2,71.379,327.7,71.379z"/>
	</g>
</g>
<g>
	<g>
		<path d="M453.3,165.279c0.9-6,1.3-12.1,1.3-18.2c0-69.4-56.5-125.8-125.8-125.8c-37.5,0-72.4,16.4-96.4,45.2    c-7-1.6-14.1-2.4-21.2-2.4c-36.6,0-69.8,21.6-85,54.6c-3.8-0.8-7.5-1.2-11.1-1.2c-28.5,0-53.4,20.2-59.8,47.6    c-32.8,11.6-55.3,43.1-55.3,78.2c0,45.8,37.2,83,83,83h342c45.8,0,83-37.3,83.1-83C508.1,208.079,485.9,177.079,453.3,165.279z     M424.9,309.879h-342c-36.7,0-66.6-29.9-66.6-66.6c0-29.5,19.9-55.9,48.3-64l5.1-1.5l0.8-5.2c3.3-22.1,22.4-38.7,44.6-38.7    c4.2,0,8.5,0.7,13.4,2.3l7.5,2.4l2.7-7.3c11.1-30.4,40.2-50.8,72.5-50.8c7.3,0,14.7,1.1,21.9,3.2l5.4,1.6l3.4-4.5    c20.9-27.4,52.6-43.1,86.8-43.1c60.3,0,109.4,49.1,109.4,109.4c0,7.4-0.8,14.9-2.3,22.2l-1.6,7.6l7.5,2    c29.3,7.7,49.8,34.2,49.8,64.4C491.5,279.979,461.6,309.879,424.9,309.879z"/>
	</g>
</g>
<g>
	<g>
		<rect x="34.226" y="374.547" transform="matrix(0.7071 -0.7071 0.7071 0.7071 -253.8379 152.6747)" width="46.3" height="16.4"/>
	</g>
</g>
<g>
	<g>
		<rect x="132.534" y="374.535" transform="matrix(0.7071 -0.7071 0.7071 0.7071 -225.0356 222.1854)" width="46.3" height="16.4"/>
	</g>
</g>
<g>
	<g>
		<rect x="230.832" y="374.523" transform="matrix(0.7071 -0.7071 0.7071 0.7071 -196.2362 291.689)" width="46.3" height="16.4"/>
	</g>
</g>
<g>
	<g>
		<rect x="329.14" y="374.511" transform="matrix(0.7071 -0.7071 0.7071 0.7071 -167.434 361.1996)" width="46.3" height="16.4"/>
	</g>
</g>
<g>
	<g>
		<rect x="427.508" y="374.559" transform="matrix(0.7071 -0.7071 0.7071 0.7071 -138.6569 430.771)" width="46.3" height="16.4"/>
	</g>
</g>
<g>
	<g>
		<rect x="83.363" y="456.415" transform="matrix(0.7071 -0.7071 0.7071 0.7071 -297.3356 211.3989)" width="46.3" height="16.4"/>
	</g>
</g>
<g>
	<g>
		<rect x="181.671" y="456.4" transform="matrix(0.7071 -0.7071 0.7071 0.7071 -268.531 280.9083)" width="46.3" height="16.4"/>
	</g>
</g>
<g>
	<g>
		<rect x="280.04" y="456.453" transform="matrix(0.7071 -0.7071 0.7071 0.7071 -239.7576 350.4816)" width="46.3" height="16.4"/>
	</g>
</g>
<g>
	<g>
		<rect x="378.348" y="456.441" transform="matrix(0.7071 -0.7071 0.7071 0.7071 -210.9552 419.9923)" width="46.3" height="16.4"/>
	</g>
</g>
<g>
</g>
<g>
</g>
<g>
</g>
<g>
</g>
<g>
</g>
<g>
</g>
<g>
</g>
<g>
</g>
<g>
</g>
<g>
</g>
<g>
</g>
<g>
</g>
<g>
</g>
<g>
</g>
<g>
</g>
</svg>
