<?xml version="1.0" encoding="iso-8859-1"?>
<!-- Generator: Adobe Illustrator 19.0.0, SVG Export Plug-In . SVG Version: 6.00 Build 0)  -->
<svg xmlns="http://www.w3.org/2000/svg" xmlns:xlink="http://www.w3.org/1999/xlink" version="1.1" id="Capa_1" x="0px" y="0px" viewBox="0 0 508 508" style="enable-background:new 0 0 508 508;" xml:space="preserve">
<g>
	<g>
		<path d="M94,161.651h16.4c0-34,27.7-61.6,61.6-61.6v-16.4C129,83.651,94,118.651,94,161.651z"/>
	</g>
</g>
<g>
	<g>
		<path d="M455.8,155.151c2.1-7.2,3.1-14.5,3.1-22c0-45.1-36.7-81.8-81.8-81.8c-5.1,0-10.2,0.5-15.4,1.5    c-23.2-31.9-59.9-50.8-99.5-50.8c-38.6,0-74.9,18.2-98.1,48.9c-55.9,2-102.1,46.6-106.3,102.2c-34.3,10.5-57.8,41.9-57.8,78.3    c0,43.3,34,79,76.7,81.7c14.6,25.4,41.3,41,70.8,41c29.4,0,56.1-15.5,70.7-40.8h207.9c45.1,0,81.9-36.7,81.9-81.9    C508,197.551,486.9,167.251,455.8,155.151z M425.9,296.851H208.1l-2.3,4.5c-11.2,22.4-33.6,36.3-58.5,36.3    c-24.9,0-47.3-13.9-58.5-36.3l-2.2-4.5h-5c-36-0.1-65.3-29.5-65.3-65.5c0-30.8,21-57.1,51.1-63.9l6.3-1.4l0.1-6.4    c1.1-50.9,43.3-92.4,94.5-92.4h4.1l2.4-3.5c20-28.4,52.6-45.4,87.2-45.4c35.9,0,69.2,18,89,48.2l3.2,4.9l5.7-1.5    c43-11.4,82.3,21.5,82.3,63.1c0,8.3-1.6,16.4-4.7,24.2l-3.4,8.5l8.9,2.4c28.5,7.7,48.4,33.7,48.4,63.2    C491.4,267.451,462,296.851,425.9,296.851z"/>
	</g>
</g>
<g>
	<g>
		
			<rect x="40.665" y="391.159" transform="matrix(0.4961 -0.8682 0.8682 0.4961 -309.6008 265.2273)" width="66.096" height="16.399"/>
	</g>
</g>
<g>
	<g>
		
			<rect x="130.857" y="391.191" transform="matrix(0.4961 -0.8682 0.8682 0.4961 -264.1837 343.5524)" width="66.096" height="16.399"/>
	</g>
</g>
<g>
	<g>
		
			<rect x="220.952" y="391.172" transform="matrix(0.4961 -0.8682 0.8682 0.4961 -218.7706 421.7672)" width="66.096" height="16.399"/>
	</g>
</g>
<g>
	<g>
		
			<rect x="311.047" y="391.161" transform="matrix(0.4961 -0.8682 0.8682 0.4961 -173.3645 499.9864)" width="66.096" height="16.399"/>
	</g>
</g>
<g>
	<g>
		
			<rect x="401.238" y="391.189" transform="matrix(0.4961 -0.8682 0.8682 0.4961 -127.9439 578.3094)" width="66.096" height="16.399"/>
	</g>
</g>
<g>
	<g>
		
			<rect x="61.131" y="464.955" transform="matrix(0.4961 -0.8682 0.8682 0.4961 -363.3621 320.1805)" width="66.096" height="16.399"/>
	</g>
</g>
<g>
	<g>
		
			<rect x="151.323" y="464.988" transform="matrix(0.4961 -0.8682 0.8682 0.4961 -317.945 398.5056)" width="66.096" height="16.399"/>
	</g>
</g>
<g>
	<g>
		
			<rect x="241.418" y="464.975" transform="matrix(0.4961 -0.8682 0.8682 0.4961 -272.538 476.7241)" width="66.096" height="16.399"/>
	</g>
</g>
<g>
	<g>
		
			<rect x="331.522" y="464.954" transform="matrix(0.4961 -0.8682 0.8682 0.4961 -227.1182 554.9465)" width="66.096" height="16.399"/>
	</g>
</g>
<g>
</g>
<g>
</g>
<g>
</g>
<g>
</g>
<g>
</g>
<g>
</g>
<g>
</g>
<g>
</g>
<g>
</g>
<g>
</g>
<g>
</g>
<g>
</g>
<g>
</g>
<g>
</g>
<g>
</g>
</svg>
