<?xml version="1.0" encoding="iso-8859-1"?>
<!-- Generator: Adobe Illustrator 19.0.0, SVG Export Plug-In . SVG Version: 6.00 Build 0)  -->
<svg xmlns="http://www.w3.org/2000/svg" xmlns:xlink="http://www.w3.org/1999/xlink" version="1.1" id="Capa_1" x="0px" y="0px" viewBox="0 0 508.1 508.1" style="enable-background:new 0 0 508.1 508.1;" xml:space="preserve">
<g id="SVGCleanerId_0">
	<g>
		<path d="M473.3,319.05c1.3-8,2-16.1,2-24.1c0-81.3-66.2-147.5-147.5-147.5c-53.7,0-102.1,28.6-128.3,75    c-13.7-6.2-28.7-9.4-43.8-9.4c-56.5,0-102.9,44.2-106.3,100.4c-28.6,7.3-49.4,33.5-49.4,63.5c0,36.1,29.4,65.6,65.5,65.6h377    c36.1,0,65.5-29.5,65.6-65.6C508.1,352.35,494.6,330.35,473.3,319.05z M442.5,426.05H65.6c-27.1,0-49.2-22.1-49.2-49.2    c0-24.3,18.2-45.2,42.2-48.6l7-1.6v-7.1c0-49.7,40.4-90.1,90.1-90.1c15.1,0,30.1,3.9,43.4,11.1l7.5,4.1l3.8-7.7    c22.3-45.1,67.3-73.1,117.4-73.1c72.3,0,131.1,58.8,131.1,131.1c0,9-0.9,18.1-2.8,27.1l-1.4,6.7l6.3,2.6    c18.7,7.5,30.7,25.4,30.7,45.5C491.7,403.95,469.6,426.05,442.5,426.05z"/>
	</g>
</g>
<g>
	<g>
		<rect x="122.9" y="65.55" width="16.4" height="32.8"/>
	</g>
</g>
<g>
	<g>
		<rect x="195.827" y="107.355" transform="matrix(0.7071 -0.7071 0.7071 0.7071 -19.55 183.9121)" width="32.8" height="16.4"/>
	</g>
</g>
<g>
	<g>
		<rect y="188.55" width="32.8" height="16.4"/>
	</g>
</g>
<g>
	<g>
		<rect x="41.808" y="99.166" transform="matrix(0.7072 -0.707 0.707 0.7072 -67.0638 69.1928)" width="16.4" height="32.8"/>
	</g>
</g>
<g>
	<g>
		<path d="M473.3,319.05c1.3-8,2-16.1,2-24.1c0-81.3-66.2-147.5-147.5-147.5c-53.7,0-102.1,28.6-128.3,75    c-13.7-6.2-28.7-9.4-43.8-9.4c-56.5,0-102.9,44.2-106.3,100.4c-28.6,7.3-49.4,33.5-49.4,63.5c0,36.1,29.4,65.6,65.5,65.6h377    c36.1,0,65.5-29.5,65.6-65.6C508.1,352.35,494.6,330.35,473.3,319.05z M442.5,426.05H65.6c-27.1,0-49.2-22.1-49.2-49.2    c0-24.3,18.2-45.2,42.2-48.6l7-1.6v-7.1c0-49.7,40.4-90.1,90.1-90.1c15.1,0,30.1,3.9,43.4,11.1l7.5,4.1l3.8-7.7    c22.3-45.1,67.3-73.1,117.4-73.1c72.3,0,131.1,58.8,131.1,131.1c0,9-0.9,18.1-2.8,27.1l-1.4,6.7l6.3,2.6    c18.7,7.5,30.7,25.4,30.7,45.5C491.7,403.95,469.6,426.05,442.5,426.05z"/>
	</g>
</g>
<g>
	<g>
		<path d="M131,114.85c-45.1,0-81.9,36.7-81.9,81.9c0,24.1,10.6,46.9,29.1,62.5l6,5.1l5.3-5.7c17.3-18.8,40.8-29.1,66.1-29.1    c12.8,0,25.4,2.8,37.5,8.4l7.1,3.3l3.6-7c6-11.8,9.1-24.4,9.1-37.5C212.9,151.65,176.1,114.85,131,114.85z M192.5,219.75    c-37.4-13.9-80.3-4.9-109.1,21.8c-11.4-12.1-17.8-28.1-17.8-44.9c0-36.1,29.4-65.5,65.5-65.5c36.1,0,65.5,29.4,65.6,65.5    C196.7,204.65,195.3,212.35,192.5,219.75z"/>
	</g>
</g>
<g>
	<g>
		<path d="M336,188.55v16.4c45.1,0,81.9,36.7,81.9,81.9h16.4C434.3,232.65,390.2,188.55,336,188.55z"/>
	</g>
</g>
<g>
</g>
<g>
</g>
<g>
</g>
<g>
</g>
<g>
</g>
<g>
</g>
<g>
</g>
<g>
</g>
<g>
</g>
<g>
</g>
<g>
</g>
<g>
</g>
<g>
</g>
<g>
</g>
<g>
</g>
</svg>
