<?xml version="1.0" encoding="iso-8859-1"?>
<!-- Generator: Adobe Illustrator 19.0.0, SVG Export Plug-In . SVG Version: 6.00 Build 0)  -->
<svg xmlns="http://www.w3.org/2000/svg" xmlns:xlink="http://www.w3.org/1999/xlink" version="1.1" id="Capa_1" x="0px" y="0px" viewBox="0 0 508.1 508.1" style="enable-background:new 0 0 508.1 508.1;" xml:space="preserve">
<g id="SVGCleanerId_0">
	<g>
		<path d="M473.3,173.9c1.3-8,2-16.1,2-24.1c0-81.3-66.2-147.5-147.5-147.5c-53.7,0-102.1,28.6-128.3,75    c-13.7-6.2-28.7-9.4-43.8-9.4c-56.5,0-102.9,44.2-106.3,100.4C20.8,175.6,0,201.8,0,231.8c0,36.1,29.4,65.5,65.5,65.5h377    c36.1,0,65.5-29.4,65.6-65.5C508.1,207.2,494.6,185.2,473.3,173.9z M442.5,280.9H65.6c-27.1,0-49.2-22.1-49.2-49.2    c0-24.3,18.2-45.2,42.2-48.6l7-1.6v-7.1c0-49.7,40.4-90.1,90.1-90.1c15.1,0,30.1,3.8,43.4,11.1l7.5,4.1l3.8-7.7    c22.3-45.1,67.3-73.1,117.4-73.1c72.3,0,131.1,58.8,131.1,131.1c0,9-0.9,18.1-2.8,27.1l-1.4,6.7l6.3,2.6    c18.7,7.5,30.7,25.4,30.7,45.5C491.7,258.8,469.6,280.9,442.5,280.9z"/>
	</g>
</g>
<g>
	<g>
		<path d="M473.3,173.9c1.3-8,2-16.1,2-24.1c0-81.3-66.2-147.5-147.5-147.5c-53.7,0-102.1,28.6-128.3,75    c-13.7-6.2-28.7-9.4-43.8-9.4c-56.5,0-102.9,44.2-106.3,100.4C20.8,175.6,0,201.8,0,231.8c0,36.1,29.4,65.5,65.5,65.5h377    c36.1,0,65.5-29.4,65.6-65.5C508.1,207.2,494.6,185.2,473.3,173.9z M442.5,280.9H65.6c-27.1,0-49.2-22.1-49.2-49.2    c0-24.3,18.2-45.2,42.2-48.6l7-1.6v-7.1c0-49.7,40.4-90.1,90.1-90.1c15.1,0,30.1,3.8,43.4,11.1l7.5,4.1l3.8-7.7    c22.3-45.1,67.3-73.1,117.4-73.1c72.3,0,131.1,58.8,131.1,131.1c0,9-0.9,18.1-2.8,27.1l-1.4,6.7l6.3,2.6    c18.7,7.5,30.7,25.4,30.7,45.5C491.7,258.8,469.6,280.9,442.5,280.9z"/>
	</g>
</g>
<g>
	<g>
		<path d="M336,43.3v16.5c45.1,0,81.9,36.7,81.9,81.9h16.4C434.3,87.4,390.1,43.3,336,43.3z"/>
	</g>
</g>
<g>
	<g>
		<path d="M351.1,362.9h-81.8l32.8-49.2h-77.3l-59,98.3H231l-58.6,93.8L351.1,362.9z M194.7,395.7l39.4-65.6h37.4l-32.8,49.2h65.7    L237.3,433l23.3-37.3H194.7z"/>
	</g>
</g>
<g>
	<g>
		<polygon points="82.6,326.9 58,384.2 73.1,390.7 97.7,333.3   "/>
	</g>
</g>
<g>
	<g>
		<polygon points="443.1,326.9 418.5,384.2 433.6,390.7 458.2,333.3   "/>
	</g>
</g>
<g>
	<g>
		<polygon points="119.5,408.8 94.9,466.2 109.9,472.6 134.5,415.3   "/>
	</g>
</g>
<g>
	<g>
		<polygon points="365.3,408.8 340.7,466.2 355.8,472.6 380.3,415.3   "/>
	</g>
</g>
<g>
	<g>
		<polygon points="475.9,408.8 451.3,466.2 466.4,472.6 490.9,415.3   "/>
	</g>
</g>
<g>
</g>
<g>
</g>
<g>
</g>
<g>
</g>
<g>
</g>
<g>
</g>
<g>
</g>
<g>
</g>
<g>
</g>
<g>
</g>
<g>
</g>
<g>
</g>
<g>
</g>
<g>
</g>
<g>
</g>
</svg>
