<?xml version="1.0" encoding="iso-8859-1"?>
<!-- Generator: Adobe Illustrator 19.0.0, SVG Export Plug-In . SVG Version: 6.00 Build 0)  -->
<svg xmlns="http://www.w3.org/2000/svg" xmlns:xlink="http://www.w3.org/1999/xlink" version="1.1" id="Capa_1" x="0px" y="0px" viewBox="0 0 508.1 508.1" style="enable-background:new 0 0 508.1 508.1;" xml:space="preserve">
<g id="SVGCleanerId_0">
	<g>
		<path d="M473.3,192.1c1.3-8,2-16.1,2-24.1c0-81.3-66.2-147.5-147.5-147.5c-53.7,0-102.1,28.6-128.3,75    c-13.7-6.2-28.7-9.4-43.8-9.4c-56.5,0-102.9,44.2-106.3,100.4C20.8,193.8,0,220,0,250c0,36.1,29.4,65.6,65.5,65.6h377    c36.1,0,65.5-29.5,65.6-65.6C508.1,225.4,494.6,203.4,473.3,192.1z M442.5,299.1H65.6c-27.1,0-49.2-22.1-49.2-49.2    c0-24.3,18.2-45.2,42.2-48.6l7-1.6v-7.1c0-49.7,40.4-90.1,90.1-90.1c15.1,0,30.1,3.9,43.4,11.1l7.5,4.1l3.8-7.7    c22.3-45.1,67.3-73.1,117.4-73.1c72.3,0,131.1,58.8,131.1,131.1c0,9-0.9,18.1-2.8,27.1l-1.4,6.7l6.3,2.6    c18.7,7.5,30.7,25.4,30.7,45.5C491.7,277,469.6,299.1,442.5,299.1z"/>
	</g>
</g>
<g>
	<g>
		<path d="M473.3,192.1c1.3-8,2-16.1,2-24.1c0-81.3-66.2-147.5-147.5-147.5c-53.7,0-102.1,28.6-128.3,75    c-13.7-6.2-28.7-9.4-43.8-9.4c-56.5,0-102.9,44.2-106.3,100.4C20.8,193.8,0,220,0,250c0,36.1,29.4,65.6,65.5,65.6h377    c36.1,0,65.5-29.5,65.6-65.6C508.1,225.4,494.6,203.4,473.3,192.1z M442.5,299.1H65.6c-27.1,0-49.2-22.1-49.2-49.2    c0-24.3,18.2-45.2,42.2-48.6l7-1.6v-7.1c0-49.7,40.4-90.1,90.1-90.1c15.1,0,30.1,3.9,43.4,11.1l7.5,4.1l3.8-7.7    c22.3-45.1,67.3-73.1,117.4-73.1c72.3,0,131.1,58.8,131.1,131.1c0,9-0.9,18.1-2.8,27.1l-1.4,6.7l6.3,2.6    c18.7,7.5,30.7,25.4,30.7,45.5C491.7,277,469.6,299.1,442.5,299.1z"/>
	</g>
</g>
<g>
	<g>
		<path d="M336,61.6V78c45.1,0,81.9,36.7,81.9,81.9h16.4C434.3,105.7,390.1,61.6,336,61.6z"/>
	</g>
</g>
<g>
	<g>
		
			<rect x="214.213" y="356.48" transform="matrix(0.4472 -0.8944 0.8944 0.4472 -192.5644 417.7835)" width="54.998" height="16.4"/>
	</g>
</g>
<g>
	<g>
		
			<rect x="132.284" y="446.689" transform="matrix(0.4472 -0.8944 0.8944 0.4472 -318.5391 394.3706)" width="54.998" height="16.399"/>
	</g>
</g>
<g>
	<g>
		<rect x="50.32" y="356.474" transform="matrix(0.4472 -0.8944 0.8944 0.4472 -283.1564 271.1906)" width="54.998" height="16.4"/>
	</g>
</g>
<g>
	<g>
		
			<rect x="378.115" y="356.486" transform="matrix(0.4472 -0.8944 0.8944 0.4472 -101.967 564.3854)" width="54.998" height="16.4"/>
	</g>
</g>
<g>
	<g>
		
			<rect x="296.176" y="446.695" transform="matrix(0.4472 -0.8944 0.8944 0.4472 -227.9472 540.9636)" width="54.998" height="16.399"/>
	</g>
</g>
<g>
	<g>
		<path d="M155.7,348.3c-13.6,0-24.6,11-24.6,24.6c0,13.6,11,24.6,24.6,24.6c13.5,0,24.6-11,24.6-24.6    C180.3,359.3,169.3,348.3,155.7,348.3z M155.7,381.1c-4.5,0-8.2-3.7-8.2-8.2s3.7-8.2,8.2-8.2s8.2,3.7,8.2,8.2    S160.2,381.1,155.7,381.1z"/>
	</g>
</g>
<g>
	<g>
		<path d="M327.7,348.3c-13.6,0-24.6,11-24.6,24.6c0,13.6,11,24.6,24.6,24.6s24.6-11,24.6-24.6C352.3,359.3,341.3,348.3,327.7,348.3    z M327.7,381.1c-4.5,0-8.2-3.7-8.2-8.2s3.7-8.2,8.2-8.2c4.6,0,8.2,3.7,8.2,8.2S332.2,381.1,327.7,381.1z"/>
	</g>
</g>
<g>
	<g>
		<path d="M245.8,438.4c-13.6,0-24.6,11-24.6,24.6c0,13.6,11,24.6,24.6,24.6c13.6,0,24.6-11,24.6-24.6    C270.4,449.4,259.4,438.4,245.8,438.4z M245.8,471.2c-4.5,0-8.2-3.7-8.2-8.2s3.7-8.2,8.2-8.2s8.2,3.7,8.2,8.2    C254,467.5,250.3,471.2,245.8,471.2z"/>
	</g>
</g>
<g>
	<g>
		<path d="M434.3,438.4c-13.6,0-24.6,11-24.6,24.6c0,13.6,11,24.6,24.6,24.6c13.5,0,24.6-11,24.6-24.6    C458.9,449.4,447.9,438.4,434.3,438.4z M434.3,471.2c-4.5,0-8.2-3.7-8.2-8.2s3.7-8.2,8.2-8.2s8.2,3.7,8.2,8.2    C442.5,467.5,438.8,471.2,434.3,471.2z"/>
	</g>
</g>
<g>
	<g>
		<path d="M73.7,438.4c-13.6,0-24.6,11-24.6,24.6c0,13.6,11,24.6,24.6,24.6c13.6,0,24.6-11,24.6-24.6    C98.3,449.4,87.3,438.4,73.7,438.4z M73.7,471.2c-4.5,0-8.2-3.7-8.2-8.2s3.7-8.2,8.2-8.2c4.6,0,8.2,3.7,8.2,8.2    C81.9,467.5,78.2,471.2,73.7,471.2z"/>
	</g>
</g>
<g>
</g>
<g>
</g>
<g>
</g>
<g>
</g>
<g>
</g>
<g>
</g>
<g>
</g>
<g>
</g>
<g>
</g>
<g>
</g>
<g>
</g>
<g>
</g>
<g>
</g>
<g>
</g>
<g>
</g>
</svg>
