<?xml version="1.0" encoding="iso-8859-1"?>
<!-- Generator: Adobe Illustrator 19.0.0, SVG Export Plug-In . SVG Version: 6.00 Build 0)  -->
<svg xmlns="http://www.w3.org/2000/svg" xmlns:xlink="http://www.w3.org/1999/xlink" version="1.1" id="Capa_1" x="0px" y="0px" viewBox="0 0 508 508" style="enable-background:new 0 0 508 508;" xml:space="preserve">
<g>
	<g>
		<path d="M375.3,314.6c1.1-6.5,1.6-13.1,1.6-19.6c0-67.8-55.1-122.9-122.9-122.9c-36.3,0-70.1,15.8-93.6,43.5    c-6.9-1.7-14-2.5-21.1-2.5c-49.7,0-90.1,40.4-90.1,90.1c0,1.3,0,2.7,0.1,4.2C19.9,317.6,0,345.3,0,376.9    c0,40.7,33.1,73.7,73.7,73.7h262.2c40.7,0,73.8-33,73.8-73.7C409.7,351.4,396.6,328.1,375.3,314.6z M336,434.1H73.8    c-31.7,0-57.4-25.8-57.4-57.4c0-26.4,17.9-49.3,43.6-55.6l7.1-1.7l-0.9-7.2c-0.4-3.4-0.6-6.3-0.6-9.1c0-40.6,33-73.7,73.7-73.7    c7.4,0,14.6,1.1,21.7,3.1l5.4,1.7l3.5-4.5c20.4-26.3,51.1-41.4,84.2-41.4c58.7,0,106.5,47.8,106.5,106.5c0,7.3-0.7,14.8-2.3,22.1    L357,323l5.5,2.9c19.1,9.9,30.9,29.4,30.9,50.8C393.4,408.4,367.6,434.1,336,434.1z"/>
	</g>
</g>
<g>
	<g>
		<rect x="444.881" y="261.161" transform="matrix(0.7071 -0.7071 0.7071 0.7071 -66.0359 402.6977)" width="16.4" height="39.8"/>
	</g>
</g>
<g>
	<g>
		<rect x="276.112" y="92.314" transform="matrix(0.7071 -0.7071 0.7071 0.7071 3.9261 233.9055)" width="16.4" height="39.8"/>
	</g>
</g>
<g>
	<g>
		<rect x="360.5" y="57.4" width="16.4" height="39.8"/>
	</g>
</g>
<g>
	<g>
		<rect x="317.315" y="79.228" transform="matrix(0.9239 -0.3827 0.3827 0.9239 -10.6113 131.6115)" width="16.4" height="26.501"/>
	</g>
</g>
<g>
	<g>
		
			<rect x="403.663" y="287.557" transform="matrix(0.9239 -0.3827 0.3827 0.9239 -83.7636 180.5142)" width="16.4" height="26.501"/>
	</g>
</g>
<g>
	<g>
		<rect x="256.366" y="140.255" transform="matrix(0.3827 -0.9239 0.9239 0.3827 21.4993 339.1865)" width="16.4" height="26.501"/>
	</g>
</g>
<g>
	<g>
		
			<rect x="464.616" y="226.538" transform="matrix(0.3828 -0.9238 0.9238 0.3828 70.2945 584.7938)" width="16.399" height="26.499"/>
	</g>
</g>
<g>
	<g>
		<rect x="398.656" y="84.254" transform="matrix(0.3828 -0.9238 0.9238 0.3828 168.8126 437.591)" width="26.499" height="16.4"/>
	</g>
</g>
<g>
	<g>
		<rect x="459.677" y="145.279" transform="matrix(0.9238 -0.3828 0.3828 0.9238 -22.729 192.7324)" width="26.499" height="16.4"/>
	</g>
</g>
<g>
	<g>
		<rect x="433.241" y="103.972" transform="matrix(0.7071 -0.7071 0.7071 0.7071 53.4042 353.273)" width="39.8" height="16.4"/>
	</g>
</g>
<g>
	<g>
		<rect x="468.2" y="188.5" width="39.8" height="16.4"/>
	</g>
</g>
<g>
	<g>
		<path d="M368.7,114.5c-41.7,0-76.8,31.2-81.6,72.6l-0.7,6.3l5.9,2.3c33.5,12.9,58.1,41.5,65.7,76.5l1.4,6.2l7.2,0.3    c0.7,0.1,1.4,0.1,2.1,0.1c45.3,0,82.2-36.9,82.2-82.1C450.9,151.4,414,114.5,368.7,114.5z M372.4,262.3    c-9.6-35.3-34.5-64.2-68-79.3c6.3-30.1,33-52.1,64.2-52.2c36.3,0,65.8,29.5,65.8,65.8C434.4,231.6,406.9,260.4,372.4,262.3z"/>
	</g>
</g>
<g>
</g>
<g>
</g>
<g>
</g>
<g>
</g>
<g>
</g>
<g>
</g>
<g>
</g>
<g>
</g>
<g>
</g>
<g>
</g>
<g>
</g>
<g>
</g>
<g>
</g>
<g>
</g>
<g>
</g>
</svg>
