<?xml version="1.0" encoding="iso-8859-1"?>
<!-- Generator: Adobe Illustrator 19.0.0, SVG Export Plug-In . SVG Version: 6.00 Build 0)  -->
<svg xmlns="http://www.w3.org/2000/svg" xmlns:xlink="http://www.w3.org/1999/xlink" version="1.1" id="Capa_1" x="0px" y="0px" viewBox="0 0 508 508" style="enable-background:new 0 0 508 508;" xml:space="preserve">
<g>
	<g>
		<path d="M319.55,263.4V65.5c0-36.1-29.4-65.5-65.5-65.5c-36.1,0-65.5,29.4-65.6,65.5v197.9c-40.5,23.4-65.5,66.5-65.5,113.5    c0,72.3,58.8,131.1,131.1,131.1s131.1-58.8,131-131.1C385.05,329.9,360.15,286.8,319.55,263.4z M253.95,491.6    c-63.2,0-114.7-51.5-114.7-114.7c0-42.6,23.5-81.4,61.2-101.4l4.4-2.3V65.6c0-27.1,22.1-49.2,49.2-49.2c27.1,0,49.2,22,49,49.1    v207.7l4.4,2.3c37.8,19.9,61.2,58.8,61.2,101.4C368.65,440.1,317.25,491.6,253.95,491.6z"/>
	</g>
</g>
<g>
	<g>
		<path d="M254.05,295c-45.1,0-81.9,36.7-81.9,81.9c0,45.1,36.7,81.9,81.9,81.9s81.9-36.7,81.9-81.9    C335.95,331.8,299.15,295,254.05,295z M254.05,442.4c-36.1,0-65.5-29.4-65.5-65.5c0-36.1,29.4-65.5,65.5-65.5    c36.1,0,65.5,29.4,65.5,65.5C319.55,413,290.15,442.4,254.05,442.4z"/>
	</g>
</g>
<g>
	<g>
		<rect x="245.85" y="73.7" width="16.4" height="229.4"/>
	</g>
</g>
<g>
	<g>
		<rect x="196.65" y="65.5" width="32.8" height="16.4"/>
	</g>
</g>
<g>
	<g>
		<rect x="196.65" y="106.5" width="24.6" height="16.4"/>
	</g>
</g>
<g>
	<g>
		<rect x="196.65" y="147.5" width="32.8" height="16.4"/>
	</g>
</g>
<g>
	<g>
		<rect x="196.65" y="188.5" width="24.6" height="16.4"/>
	</g>
</g>
<g>
	<g>
		<rect x="196.65" y="229.4" width="32.8" height="16.4"/>
	</g>
</g>
<g>
</g>
<g>
</g>
<g>
</g>
<g>
</g>
<g>
</g>
<g>
</g>
<g>
</g>
<g>
</g>
<g>
</g>
<g>
</g>
<g>
</g>
<g>
</g>
<g>
</g>
<g>
</g>
<g>
</g>
</svg>
