<?xml version="1.0" encoding="iso-8859-1"?>
<!-- Generator: Adobe Illustrator 19.0.0, SVG Export Plug-In . SVG Version: 6.00 Build 0)  -->
<svg xmlns="http://www.w3.org/2000/svg" xmlns:xlink="http://www.w3.org/1999/xlink" version="1.1" id="Capa_1" x="0px" y="0px" viewBox="0 0 508.083 508.083" style="enable-background:new 0 0 508.083 508.083;" xml:space="preserve">
<g>
	<g>
		<path d="M473.683,314.67c1.1-6.5,1.6-13.1,1.6-19.6c0-67.8-55.1-122.9-122.9-122.9c-36.3,0-70.1,15.8-93.6,43.5    c-6.9-1.7-14-2.5-21.1-2.5c-49.7,0-90.1,40.4-90.1,90.1c0,1.3,0,2.7,0.1,4.2c-29.4,10.2-49.3,37.9-49.3,69.5    c0,40.6,33,73.7,73.7,73.7h262.2c40.6,0,73.7-33,73.8-73.7C508.083,351.47,494.983,328.17,473.683,314.67z M434.283,434.17h-262.2    c-31.7,0-57.4-25.8-57.4-57.4c0-26.4,17.9-49.3,43.6-55.6l7.1-1.7l-0.9-7.2c-0.4-3.4-0.6-6.3-0.6-9.1c0-40.6,33-73.7,73.7-73.7    c7.4,0,14.7,1.1,21.7,3.1l5.4,1.7l3.5-4.5c20.4-26.3,51.1-41.4,84.2-41.4c58.7,0,106.5,47.8,106.5,106.5c0,7.3-0.7,14.8-2.3,22.1    l-1.3,6.1l5.5,2.9c19.1,9.9,30.9,29.4,30.9,50.8C491.683,408.47,465.883,434.17,434.283,434.17z"/>
	</g>
</g>
<g>
	<g>
		<path d="M165.883,58.27c-3.1-1.6-7-0.9-9.5,1.6c-2.5,2.6-3.1,6.4-1.4,9.6c8.1,15.4,12.2,31.9,12.2,49.3    c0,58.3-47.4,105.8-105.8,105.8c-17.3,0-33.9-4.1-49.3-12.2c-3.2-1.7-7.1-1.1-9.6,1.4c-2.6,2.5-3.2,6.3-1.6,9.5    c21.1,41.7,63.1,67.6,109.6,67.6c19.6,0,38.5-4.6,56-13.6c1.6-0.9,2.9-2.3,3.7-4c8-18,23.2-32.2,41.6-39.1    c1.8-0.7,3.2-1.9,4.2-3.5c11.4-19.1,17.4-40.8,17.4-62.8C233.383,121.37,207.483,79.37,165.883,58.27z M203.283,219.97    c-20.3,8.4-37.1,24.2-46.7,43.9c-14.6,7-30,10.6-46.1,10.6c-31.9,0-61.3-14-81.3-37.8c10.5,2.8,21.3,4.3,32.1,4.3    c67.4,0,122.2-54.8,122.2-122.2c0-10.8-1.4-21.6-4.3-32.1c23.8,19.9,37.8,49.4,37.8,81.3    C216.983,186.07,212.283,204.07,203.283,219.97z"/>
	</g>
</g>
<g>
	<g>
		<path d="M344.183,213.07v16.5c40.6,0,73.7,33,73.7,73.7h16.4C434.283,253.57,393.783,213.07,344.183,213.07z"/>
	</g>
</g>
<g>
</g>
<g>
</g>
<g>
</g>
<g>
</g>
<g>
</g>
<g>
</g>
<g>
</g>
<g>
</g>
<g>
</g>
<g>
</g>
<g>
</g>
<g>
</g>
<g>
</g>
<g>
</g>
<g>
</g>
</svg>
