<?xml version="1.0" encoding="iso-8859-1"?>
<!-- Generator: Adobe Illustrator 19.0.0, SVG Export Plug-In . SVG Version: 6.00 Build 0)  -->
<svg xmlns="http://www.w3.org/2000/svg" xmlns:xlink="http://www.w3.org/1999/xlink" version="1.1" id="Capa_1" x="0px" y="0px" viewBox="0 0 508 508" style="enable-background:new 0 0 508 508;" xml:space="preserve">
<g>
	<g>
		<path d="M254,90.1c-90.4,0-163.9,73.5-163.9,163.9S163.6,417.9,254,417.9S417.9,344.4,417.9,254S344.4,90.1,254,90.1z M254,401.5    c-81.3,0-147.5-66.2-147.5-147.5S172.7,106.5,254,106.5S401.5,172.7,401.5,254S335.3,401.5,254,401.5z"/>
	</g>
</g>
<g>
	<g>
		<path d="M139.3,254h16.4c0-54.2,44.1-98.3,98.3-98.3v-16.4C190.7,139.3,139.3,190.7,139.3,254z"/>
	</g>
</g>
<g>
	<g>
		<rect x="245.8" width="16.4" height="65.5"/>
	</g>
</g>
<g>
	<g>
		<rect x="245.8" y="442.5" width="16.4" height="65.5"/>
	</g>
</g>
<g>
	<g>
		<rect x="89.325" y="64.829" transform="matrix(0.7072 -0.707 0.707 0.7072 -40.4344 97.5214)" width="16.4" height="65.499"/>
	</g>
</g>
<g>
	<g>
		
			<rect x="402.165" y="377.699" transform="matrix(0.7071 -0.7071 0.7071 0.7071 -170.038 410.3892)" width="16.4" height="65.499"/>
	</g>
</g>
<g>
	<g>
		<rect y="245.8" width="65.5" height="16.4"/>
	</g>
</g>
<g>
	<g>
		<rect x="442.5" y="245.8" width="65.5" height="16.4"/>
	</g>
</g>
<g>
	<g>
		<rect x="377.684" y="89.41" transform="matrix(0.7071 -0.7071 0.7071 0.7071 51.1923 318.8096)" width="65.499" height="16.4"/>
	</g>
</g>
<g>
	<g>
		<rect x="64.827" y="402.21" transform="matrix(0.7071 -0.7071 0.7071 0.7071 -261.6239 189.203)" width="65.499" height="16.4"/>
	</g>
</g>
<g>
</g>
<g>
</g>
<g>
</g>
<g>
</g>
<g>
</g>
<g>
</g>
<g>
</g>
<g>
</g>
<g>
</g>
<g>
</g>
<g>
</g>
<g>
</g>
<g>
</g>
<g>
</g>
<g>
</g>
</svg>
