<?xml version="1.0" encoding="iso-8859-1"?>
<!-- Generator: Adobe Illustrator 19.0.0, SVG Export Plug-In . SVG Version: 6.00 Build 0)  -->
<svg xmlns="http://www.w3.org/2000/svg" xmlns:xlink="http://www.w3.org/1999/xlink" version="1.1" id="Capa_1" x="0px" y="0px" viewBox="0 0 507.901 507.901" style="enable-background:new 0 0 507.901 507.901;" xml:space="preserve">
<g>
	<g>
		<path d="M335.9,193v16.4c49.7,0,90.1,40.4,90.1,90.1h16.4C442.5,240.8,394.7,193,335.9,193z"/>
	</g>
</g>
<g>
	<g>
		<path d="M477.8,311.6c0.5-4.6,0.7-8.7,0.7-12.7c0-74.5-61-135.2-136-135.2c-40.2,0-77.6,17.3-103.6,47.7    c-6.9-2.8-13.9-4.9-21.1-6.3c2.9-8,4.4-16.5,4.4-25.1c0-41.2-33.6-74.8-74.8-74.8c-41.2,0-74.7,33.7-74.7,75    c0,25.6,13.2,49.1,34.2,62.8c-13.8,15.9-23.4,35.6-26.8,57.6H67.2c-37,0-67.2,30-67.2,66.8s30.1,66.8,67.2,66.8h29.2    c20.1,25.7,51.2,41,83.8,41c32.7,0,63.7-15.2,83.8-41h176.7c37,0,67.2-30,67.2-66.8C508,344.9,496.6,324,477.8,311.6z M89.1,180.2    c0-32.2,26.2-58.4,58.4-58.4s58.4,26.2,58.4,58.4c0,7.9-1.6,15.7-4.7,22.9c-34.3,0-61.1,9.8-82.3,28    C100.7,220.8,89.1,201.4,89.1,180.2z M440.8,417.8h-185c0,0-23.2,41-75.6,41c-53,0-75.6-41-75.6-41H67.2    c-28,0-50.8-22.6-50.8-50.4S39.2,317,67.2,317h27.6l0.7-7.5c4.7-51.4,47.4-90.2,99.5-90.2c14.8,0,29.2,3.3,42.8,9.7l5.9,2.8l4-5.2    c22.9-29.5,57.4-46.4,94.7-46.4c66,0,119.6,53.3,119.6,118.8c0,13.4-1.9,21.5-1.9,21.5l4.9,2.7c16.3,8.9,26.5,25.9,26.5,44.2    C491.6,395.2,468.8,417.8,440.8,417.8z"/>
	</g>
</g>
<g>
	<g>
		<rect x="139.3" y="32.7" width="16.4" height="57.1"/>
	</g>
</g>
<g>
	<g>
		<rect x="55.122" y="67.511" transform="matrix(0.7071 -0.7071 0.7071 0.7071 -49.3785 72.9104)" width="16.4" height="57.099"/>
	</g>
</g>
<g>
	<g>
		<rect y="172" width="57.1" height="16.4"/>
	</g>
</g>
<g>
	<g>
		
			<rect x="34.859" y="256.067" transform="matrix(0.7071 -0.7071 0.7071 0.7071 -168.2931 122.2385)" width="57.099" height="16.4"/>
	</g>
</g>
<g>
	<g>
		<rect x="203.047" y="87.861" transform="matrix(0.7071 -0.7071 0.7071 0.7071 -0.0921 191.8991)" width="57.099" height="16.4"/>
	</g>
</g>
<g>
	<g>
		<rect x="97.387" y="60.063" transform="matrix(0.9239 -0.3827 0.3827 0.9239 -22.2384 46.4298)" width="16.4" height="38.101"/>
	</g>
</g>
<g>
	<g>
		<polygon points="31.9,123.4 25.7,138.6 60.8,153.1 67.1,138   "/>
	</g>
</g>
<g>
	<g>
		<rect x="170.347" y="70.874" transform="matrix(0.3829 -0.9238 0.9238 0.3829 43.8299 223.76)" width="38.1" height="16.4"/>
	</g>
</g>
<g>
	<g>
		<polygon points="263,123.4 227.9,138 234.1,153.1 269.3,138.6   "/>
	</g>
</g>
<g>
	<g>
		<rect x="27.353" y="213.824" transform="matrix(0.9238 -0.3828 0.3828 0.9238 -81.4585 34.6755)" width="38.099" height="16.4"/>
	</g>
</g>
<g>
</g>
<g>
</g>
<g>
</g>
<g>
</g>
<g>
</g>
<g>
</g>
<g>
</g>
<g>
</g>
<g>
</g>
<g>
</g>
<g>
</g>
<g>
</g>
<g>
</g>
<g>
</g>
<g>
</g>
</svg>
