<?xml version="1.0" encoding="iso-8859-1"?>
<!-- Generator: Adobe Illustrator 19.0.0, SVG Export Plug-In . SVG Version: 6.00 Build 0)  -->
<svg xmlns="http://www.w3.org/2000/svg" xmlns:xlink="http://www.w3.org/1999/xlink" version="1.1" id="Capa_1" x="0px" y="0px" viewBox="0 0 508 508" style="enable-background:new 0 0 508 508;" xml:space="preserve">
<g>
	<g>
		<path d="M335.95,33.3V50c49.7,0,90.1,41.1,90.1,91.6h16.4C442.55,81.9,394.75,33.3,335.95,33.3z"/>
	</g>
</g>
<g>
	<g>
		<path d="M477.85,150.3c0.5-4.6,0.7-8.8,0.7-12.9c0-75.8-61-137.4-136-137.4c-40.2,0-77.6,17.6-103.5,48.5    c-14.1-5.8-28.8-8.8-43.9-8.8c-58,0-106.2,42.2-114.9,99.3h-13c-37.1,0-67.2,30.5-67.2,67.9c0,37.4,30.1,67.9,67.2,67.9h29.2    c20.1,26.2,51.2,41.6,83.8,41.6c32.6,0,63.7-15.5,83.8-41.6h176.7c37,0,67.2-30.5,67.2-67.9    C508.05,184.1,496.65,162.9,477.85,150.3z M440.85,258.2h-185c0,0-25.7,41.6-75.6,41.6c-48,0-75.6-41.6-75.6-41.6h-37.4    c-28,0-50.8-23-50.8-51.2c0-65.3,78.4-51.2,78.4-51.2l0.7-7.6c4.7-52.3,47.4-91.7,99.5-91.7c30.1,0,48.8,12.7,48.8,12.7    s31.3-52.4,98.7-52.4c66,0,119.6,54.2,119.6,120.8c0,11.7-2,21.8-2,21.8s31.4,11.5,31.4,47.7    C491.65,235.2,468.85,258.2,440.85,258.2z"/>
	</g>
</g>
<g>
	<g>
		<path d="M204.95,354c0,0-32.8,37.9-32.8,54.1c0,18.4,14.7,33.3,32.8,33.3c18.1,0,32.8-14.9,32.8-33.3    C237.75,391.9,204.95,354,204.95,354z M204.85,424.7c-9,0-16.4-7.5-16.4-16.7c0-5.3,7.7-17.7,16.4-28.7    c8.7,11,16.4,23.4,16.4,28.7C221.25,417.3,213.95,424.7,204.85,424.7z"/>
	</g>
</g>
<g>
	<g>
		<path d="M319.65,420.6c0,0-32.8,37.9-32.8,54.1c0,18.4,14.7,33.3,32.8,33.3c18.1,0,32.8-14.9,32.8-33.3    C352.45,458.5,319.65,420.6,319.65,420.6z M319.55,491.3c-9,0-16.4-7.5-16.4-16.7c0-5.3,7.7-17.7,16.4-28.7    c8.7,11,16.4,23.4,16.4,28.7C335.95,483.9,328.65,491.3,319.55,491.3z"/>
	</g>
</g>
<g>
	<g>
		<path d="M65.65,312.3c0,0-32.8,38-32.8,54.1c0,18.4,14.7,33.3,32.8,33.3c18.1,0,32.8-14.9,32.8-33.3    C98.45,350.2,65.65,312.3,65.65,312.3z M65.55,383.1c-9,0-16.4-7.5-16.4-16.7c0-5.3,7.7-17.7,16.4-28.7    c8.7,11,16.4,23.4,16.4,28.7C81.95,375.6,74.65,383.1,65.55,383.1z"/>
	</g>
</g>
<g>
	<g>
		<path d="M393.35,287.3c0,0-32.8,38-32.8,54.1c0,18.4,14.7,33.3,32.8,33.3c18.1,0,32.8-14.9,32.8-33.3    C426.15,325.2,393.35,287.3,393.35,287.3z M393.35,358.1c-9,0-16.4-7.5-16.4-16.7c0-5.3,7.7-17.7,16.4-28.7    c8.7,11,16.4,23.4,16.4,28.7C409.75,350.6,402.35,358.1,393.35,358.1z"/>
	</g>
</g>
<g>
</g>
<g>
</g>
<g>
</g>
<g>
</g>
<g>
</g>
<g>
</g>
<g>
</g>
<g>
</g>
<g>
</g>
<g>
</g>
<g>
</g>
<g>
</g>
<g>
</g>
<g>
</g>
<g>
</g>
</svg>
