<?xml version="1.0" encoding="iso-8859-1"?>
<!-- Generator: Adobe Illustrator 19.0.0, SVG Export Plug-In . SVG Version: 6.00 Build 0)  -->
<svg xmlns="http://www.w3.org/2000/svg" xmlns:xlink="http://www.w3.org/1999/xlink" version="1.1" id="Capa_1" x="0px" y="0px" viewBox="0 0 508 508" style="enable-background:new 0 0 508 508;" xml:space="preserve">
<g>
	<g>
		<path d="M155.7,436.2c0,0-24.6,36.7-24.6,47.2c0,13.6,11,24.6,24.6,24.6c13.6,0,24.6-11,24.6-24.6    C180.3,472.9,155.7,436.2,155.7,436.2z M155.7,491.6c-4.5,0-8.2-3.7-8.2-8.2c0.1-2.5,3.5-9.6,8.2-17.6c4.7,7.9,8.1,15.1,8.2,17.6    C163.9,487.9,160.2,491.6,155.7,491.6z"/>
	</g>
</g>
<g>
	<g>
		<path d="M254,436.2c0,0-24.6,36.7-24.6,47.2c0,13.6,11,24.6,24.6,24.6c13.6,0,24.6-11,24.6-24.6C278.6,472.9,254,436.2,254,436.2z     M254,491.6c-4.5,0-8.2-3.7-8.2-8.2c0.1-2.5,3.5-9.6,8.2-17.6c4.7,7.9,8.1,15.1,8.2,17.6C262.2,487.9,258.5,491.6,254,491.6z"/>
	</g>
</g>
<g>
	<g>
		<path d="M352.3,436.2c0,0-24.6,36.7-24.6,47.2c0,13.6,11,24.6,24.6,24.6c13.6,0,24.6-11,24.6-24.6    C376.9,472.9,352.3,436.2,352.3,436.2z M352.3,491.6c-4.5,0-8.2-3.7-8.2-8.2c0.1-2.5,3.5-9.6,8.2-17.6c4.7,7.9,8.1,15.1,8.2,17.6    C360.5,487.9,356.8,491.6,352.3,491.6z"/>
	</g>
</g>
<g>
	<g>
		<path d="M204.8,370.7c0,0-24.6,36.7-24.6,47.2c0,13.6,11,24.6,24.6,24.6c13.6,0,24.6-11,24.6-24.6    C229.4,407.4,204.8,370.7,204.8,370.7z M204.8,426.1c-4.5,0-8.2-3.7-8.2-8.2c0.1-2.5,3.5-9.6,8.2-17.6c4.7,7.9,8.1,15.1,8.2,17.6    C213,422.4,209.4,426.1,204.8,426.1z"/>
	</g>
</g>
<g>
	<g>
		<path d="M106.5,370.7c0,0-24.6,36.7-24.6,47.2c0,13.6,11,24.6,24.6,24.6s24.6-11,24.6-24.6C131.1,407.4,106.5,370.7,106.5,370.7z     M106.5,426.1c-4.5,0-8.2-3.7-8.2-8.2c0.1-2.5,3.5-9.6,8.2-17.6c4.7,7.9,8.1,15.1,8.2,17.6C114.7,422.4,111,426.1,106.5,426.1z"/>
	</g>
</g>
<g>
	<g>
		<path d="M303.2,370.7c0,0-24.6,36.7-24.6,47.2c0,13.6,11,24.6,24.6,24.6c13.6,0,24.6-11,24.6-24.6    C327.7,407.4,303.2,370.7,303.2,370.7z M303.2,426.1c-4.5,0-8.2-3.7-8.2-8.2c0.1-2.5,3.5-9.6,8.2-17.6c4.7,7.9,8.1,15.1,8.2,17.6    C311.4,422.4,307.7,426.1,303.2,426.1z"/>
	</g>
</g>
<g>
	<g>
		<path d="M401.5,370.7c0,0-24.6,36.7-24.6,47.2c0,13.6,11,24.6,24.6,24.6c13.6,0,24.6-11,24.6-24.6    C426.1,407.4,401.5,370.7,401.5,370.7z M401.5,426.1c-4.5,0-8.2-3.7-8.2-8.2c0.1-2.5,3.5-9.6,8.2-17.6c4.7,7.9,8.1,15.1,8.2,17.6    C409.7,422.4,406,426.1,401.5,426.1z"/>
	</g>
</g>
<g>
	<g>
		<path d="M303.2,49.2v16.4c38.9,0,70.5,31.6,70.5,70.5H390C390,88.1,351.1,49.2,303.2,49.2z"/>
	</g>
</g>
<g>
	<g>
		<path d="M439.1,131.9C437,58.8,376.8,0,303.2,0c-44.4,0-85.3,21.3-110.8,57.3c-11.5-5.4-24-8.2-36.7-8.2    c-46.5,0-84.6,36.8-86.8,82.8C28,144.1,0,181.3,0,224.5c0,32.1,15.7,61.7,42.2,79.8c9.3,33.3,39.3,56.2,74.1,56.2    c27.7,0,53.5-15.3,67.1-39.3h227.9c53.3,0,96.7-43.4,96.7-96.7C508,181.3,480,144.1,439.1,131.9z M411.3,304.8h-238    c0,0-14.7,39.3-56.9,39.3c-49,0-59.7-50-59.7-50s-40.2-19.2-40.2-69.6c0-68.1,69.1-79.7,69.1-79.7l-0.3-8.7    c0-38.9,31.6-70.5,70.5-70.5c24.7,0,42.1,13.5,42.1,13.5S229,16.4,303.3,16.4c66,0,119.6,53.7,119.6,120.3l-0.2,8.1    c0,0,69.1,11.3,69.1,79.7C491.6,268.8,455.6,304.8,411.3,304.8z"/>
	</g>
</g>
<g>
</g>
<g>
</g>
<g>
</g>
<g>
</g>
<g>
</g>
<g>
</g>
<g>
</g>
<g>
</g>
<g>
</g>
<g>
</g>
<g>
</g>
<g>
</g>
<g>
</g>
<g>
</g>
<g>
</g>
</svg>
