<?xml version="1.0" encoding="iso-8859-1"?>
<!-- Generator: Adobe Illustrator 19.0.0, SVG Export Plug-In . SVG Version: 6.00 Build 0)  -->
<svg xmlns="http://www.w3.org/2000/svg" xmlns:xlink="http://www.w3.org/1999/xlink" version="1.1" id="Capa_1" x="0px" y="0px" viewBox="0 0 508 508" style="enable-background:new 0 0 508 508;" xml:space="preserve">
<g>
	<g>
		<path d="M467.099,179.1c-1.1-65.3-54.9-118.1-120.8-118.1c-9.9,0-19.7,1.2-29.3,3.6C288.499,24,242.499,0,192.599,0    c-83.5,0-151.5,67.6-151.5,150.6c0,9,0.9,18.1,2.6,27.4c-26,10.5-43.6,35.8-43.6,64.2c0,38.2,31.2,69.2,69.6,69.2h94.2V295h-94.2    c-29.4,0-53.3-23.7-53.3-52.9c0-42.9,46.5-53,46.5-53s-5.6-17.1-5.6-38.6c0-74,60.6-134.2,135.2-134.2    c86.6,0,117.3,67.3,117.3,67.3s14.8-6.3,36.4-6.3c57.6,0,104.5,46.5,104.5,103.7c0,0.5-0.4,9.2-0.4,9.2s41.3,9.4,41.3,51.8    c0,29.1-23.9,52.9-53.3,52.9h-94.2v16.4h94.2c38.4,0,69.6-31.1,69.6-69.2C508.099,214.9,491.899,190.2,467.099,179.1z"/>
	</g>
</g>
<g>
	<g>
		<path d="M352.499,98.5v16.4c31.6,0,57.4,25.7,57.4,57.3h16.3C426.199,131.6,393.099,98.5,352.499,98.5z"/>
	</g>
</g>
<g>
	<g>
		<path d="M254.099,199.3c0,0-106.5,145.9-106.5,202.2c0,58.7,47.8,106.5,106.5,106.5s106.5-47.8,106.5-106.5    C360.599,345.2,254.099,199.3,254.099,199.3z M254.099,491.6c-49.7,0-90.1-40.4-90.1-90.1c0-39.2,59.9-131.8,90.1-174.4    c30.2,42.6,90.1,135.2,90.1,174.4C344.199,451.2,303.799,491.6,254.099,491.6z"/>
	</g>
</g>
<g>
	<g>
		<path d="M204.899,401.5h-16.4c0,36.1,29.4,65.5,65.5,65.5v-16.4C226.999,450.7,204.899,428.6,204.899,401.5z"/>
	</g>
</g>
<g>
</g>
<g>
</g>
<g>
</g>
<g>
</g>
<g>
</g>
<g>
</g>
<g>
</g>
<g>
</g>
<g>
</g>
<g>
</g>
<g>
</g>
<g>
</g>
<g>
</g>
<g>
</g>
<g>
</g>
</svg>
