<?xml version="1.0" encoding="iso-8859-1"?>
<!-- Generator: Adobe Illustrator 19.0.0, SVG Export Plug-In . SVG Version: 6.00 Build 0)  -->
<svg xmlns="http://www.w3.org/2000/svg" xmlns:xlink="http://www.w3.org/1999/xlink" version="1.1" id="Capa_1" x="0px" y="0px" viewBox="0 0 508 508" style="enable-background:new 0 0 508 508;" xml:space="preserve">
<g>
	<g>
		<path d="M467.05,178.8c-1.1-65.2-54.9-117.9-120.8-117.9c-9.9,0-19.7,1.2-29.3,3.6C288.45,24,242.45,0,192.55,0    c-83.5,0-151.5,67.4-151.5,150.3c0,8.9,0.9,18.1,2.6,27.4c-26,10.4-43.6,35.8-43.6,64c0,38.1,31.2,69.1,69.6,69.1h94.2v-16.4    h-94.2c-29.4,0-53.3-23.7-53.3-52.8c0-44.2,46.5-52.9,46.5-52.9s-5.6-20.1-5.6-38.5c0-73.9,60.6-134,135.2-134    c81.6,0,117.3,67.2,117.3,67.2s17.2-6.3,36.4-6.3c57.6,0,104.5,46.4,104.5,103.5c0,0.5-0.4,9.2-0.4,9.2s41.3,9.7,41.3,51.7    c0,29.1-23.9,52.8-53.3,52.8h-102.3v16.4h102.4c38.4,0,69.6-31,69.6-69.1C508.05,214.5,491.85,189.9,467.05,178.8z"/>
	</g>
</g>
<g>
	<g>
		<path d="M352.45,98.2v16.4c31.6,0,57.4,25.7,57.4,57.2h16.3C426.15,131.2,393.05,98.2,352.45,98.2z"/>
	</g>
</g>
<g>
	<g>
		<path d="M389.65,327.2h-99.6l45.7-98.1h-104.9L144.35,409h64.6l-34.7,99L389.65,327.2z M170.35,392.6l70.8-147.2h68.9l-45.8,98.1    h80.4l-135.3,113.6l22.6-64.5H170.35z"/>
	</g>
</g>
<g>
</g>
<g>
</g>
<g>
</g>
<g>
</g>
<g>
</g>
<g>
</g>
<g>
</g>
<g>
</g>
<g>
</g>
<g>
</g>
<g>
</g>
<g>
</g>
<g>
</g>
<g>
</g>
<g>
</g>
</svg>
