<?xml version="1.0" encoding="iso-8859-1"?>
<!-- Generator: Adobe Illustrator 19.0.0, SVG Export Plug-In . SVG Version: 6.00 Build 0)  -->
<svg xmlns="http://www.w3.org/2000/svg" xmlns:xlink="http://www.w3.org/1999/xlink" version="1.1" id="Capa_1" x="0px" y="0px" viewBox="0 0 508 508" style="enable-background:new 0 0 508 508;" xml:space="preserve">
<g>
	<g>
		<path d="M204.85,323.7c0,0-32.8,37.3-32.8,53.2c0,18.1,14.7,32.8,32.8,32.8c18.1,0,32.8-14.7,32.8-32.8    C237.65,361,204.85,323.7,204.85,323.7z M204.85,393.3c-9,0-16.4-7.3-16.4-16.4c0-5.2,7.7-17.4,16.4-28.3    c8.7,10.9,16.4,23.1,16.4,28.3C221.25,386,213.95,393.3,204.85,393.3z"/>
	</g>
</g>
<g>
	<g>
		<path d="M303.15,323.7c0,0-32.8,37.3-32.8,53.2c0,18.1,14.7,32.8,32.8,32.8c18.1,0,32.8-14.7,32.8-32.8    C335.95,361,303.15,323.7,303.15,323.7z M303.25,393.3c-9,0-16.4-7.3-16.4-16.4c0-5.2,7.7-17.4,16.4-28.3    c8.7,10.9,16.4,23.1,16.4,28.3C319.55,386,312.25,393.3,303.25,393.3z"/>
	</g>
</g>
<g>
	<g>
		<path d="M401.55,323.7c0,0-32.8,37.3-32.8,53.2c0,18.1,14.7,32.8,32.8,32.8c18.1,0,32.8-14.7,32.8-32.8    C434.35,361,401.55,323.7,401.55,323.7z M401.55,393.3c-9,0-16.4-7.3-16.4-16.4c0-5.2,7.7-17.4,16.4-28.3    c8.7,10.9,16.4,23.1,16.4,28.3C417.95,386,410.55,393.3,401.55,393.3z"/>
	</g>
</g>
<g>
	<g>
		<path d="M106.55,323.7c0,0-32.8,37.3-32.8,53.2c0,18.1,14.7,32.8,32.8,32.8c18.1,0,32.8-14.7,32.8-32.8    C139.35,361,106.55,323.7,106.55,323.7z M106.55,393.3c-9,0-16.4-7.3-16.4-16.4c0-5.2,7.7-17.4,16.4-28.3    c8.7,10.9,16.4,23.1,16.4,28.3C122.95,386,115.65,393.3,106.55,393.3z"/>
	</g>
</g>
<g>
	<g>
		<path d="M254.05,422c0,0-32.8,37.3-32.8,53.2c0,18.1,14.7,32.8,32.8,32.8c18.1,0,32.8-14.7,32.8-32.8    C286.85,459.3,254.05,422,254.05,422z M254.05,491.6c-9,0-16.4-7.3-16.4-16.4c0-5.2,7.7-17.4,16.4-28.3    c8.7,10.9,16.4,23.1,16.4,28.3C270.45,484.3,263.05,491.6,254.05,491.6z"/>
	</g>
</g>
<g>
	<g>
		<path d="M352.35,422c0,0-32.8,37.3-32.8,53.2c0,18.1,14.7,32.8,32.8,32.8c18.1,0,32.8-14.7,32.8-32.8    C385.15,459.3,352.35,422,352.35,422z M352.35,491.6c-9,0-16.4-7.3-16.4-16.4c0-5.2,7.7-17.4,16.4-28.3    c8.7,10.9,16.4,23.1,16.4,28.3C368.75,484.3,361.45,491.6,352.35,491.6z"/>
	</g>
</g>
<g>
	<g>
		<path d="M155.75,422c0,0-32.8,37.3-32.8,53.2c0,18.1,14.7,32.8,32.8,32.8s32.8-14.7,32.8-32.8C188.55,459.3,155.75,422,155.75,422    z M155.75,491.6c-9,0-16.4-7.3-16.4-16.4c0-5.2,7.7-17.4,16.4-28.3c8.7,10.9,16.4,23.1,16.4,28.3    C172.15,484.3,164.75,491.6,155.75,491.6z"/>
	</g>
</g>
<g>
	<g>
		<path d="M467.05,179.1c-1.1-65.3-54.9-118.1-120.8-118.1c-9.9,0-19.7,1.2-29.3,3.6C288.45,24,242.45,0,192.55,0    c-83.5,0-151.5,67.6-151.5,150.6c0,9,0.9,18.1,2.6,27.4c-26,10.5-43.6,35.8-43.6,64.2c0,38.2,31.2,69.2,69.6,69.2h368.7    c38.4,0,69.6-31.1,69.6-69.2C508.05,214.9,491.85,190.2,467.05,179.1z M438.45,295H69.65c-29.4,0-53.3-23.7-53.3-52.9    c0-46.5,46.5-53,46.5-53s-5.6-14.6-5.6-38.6c0-74,60.6-134.2,135.2-134.2c83.6,0,117.3,67.3,117.3,67.3s15.6-6.3,36.4-6.3    c57.6,0,104.5,46.5,104.5,103.7c0,4-0.4,9.2-0.4,9.2s41.3,7.9,41.3,51.8C491.65,271.3,467.75,295,438.45,295z"/>
	</g>
</g>
<g>
	<g>
		<path d="M352.35,98.4v16.4c31.6,0,57.4,25.7,57.4,57.3h16.4C426.15,131.5,393.05,98.4,352.35,98.4z"/>
	</g>
</g>
<g>
</g>
<g>
</g>
<g>
</g>
<g>
</g>
<g>
</g>
<g>
</g>
<g>
</g>
<g>
</g>
<g>
</g>
<g>
</g>
<g>
</g>
<g>
</g>
<g>
</g>
<g>
</g>
<g>
</g>
</svg>
