<?xml version="1.0" encoding="iso-8859-1"?>
<!-- Generator: Adobe Illustrator 19.0.0, SVG Export Plug-In . SVG Version: 6.00 Build 0)  -->
<svg xmlns="http://www.w3.org/2000/svg" xmlns:xlink="http://www.w3.org/1999/xlink" version="1.1" id="Capa_1" x="0px" y="0px" viewBox="0 0 508 508" style="enable-background:new 0 0 508 508;" xml:space="preserve">
<g>
	<g>
		<polygon points="155.7,458.8 134.5,458.8 149.5,443.9 137.9,432.3 122.9,447.3 122.9,426.1 106.5,426.1 106.5,447.3 91.5,432.3     79.9,443.9 94.9,458.8 73.7,458.8 73.7,475.2 94.9,475.2 79.9,490.2 91.5,501.8 106.5,486.8 106.5,508 122.9,508 122.9,486.8     137.9,501.8 149.5,490.2 134.5,475.2 155.7,475.2   "/>
	</g>
</g>
<g>
	<g>
		<polygon points="295,458.8 273.8,458.8 288.8,443.9 277.2,432.3 262.2,447.3 262.2,426.1 245.8,426.1 245.8,447.3 230.8,432.3     219.2,443.9 234.2,458.8 213,458.8 213,475.2 234.2,475.2 219.2,490.2 230.8,501.8 245.8,486.8 245.8,508 262.2,508 262.2,486.8     277.2,501.8 288.8,490.2 273.8,475.2 295,475.2   "/>
	</g>
</g>
<g>
	<g>
		<polygon points="434.3,458.8 413.1,458.8 428.1,443.9 416.5,432.3 401.5,447.3 401.5,426.1 385.1,426.1 385.1,447.3 370.1,432.3     358.5,443.9 373.5,458.8 352.3,458.8 352.3,475.2 373.5,475.2 358.5,490.2 370.1,501.8 385.1,486.8 385.1,508 401.5,508     401.5,486.8 416.5,501.8 428.1,490.2 413.1,475.2 434.3,475.2   "/>
	</g>
</g>
<g>
	<g>
		<path d="M303.2,41v16.4c45.2,0,81.9,36.8,81.9,81.9h16.4C401.5,85.1,357.4,41,303.2,41z"/>
	</g>
</g>
<g>
	<g>
		<path d="M442.3,145c0.1-1.9,0.1-3.8,0.1-5.7C442.5,62.5,380,0,303.2,0c-45.4,0-87.5,21.9-113.7,59    C132.8,48.6,82.1,88.6,74.7,142.2C31.1,153,0,192.2,0,237.6c0,44.2,29.2,82.5,71.5,94.5c11.5,27,38.2,44.8,67.8,44.8    c28.3,0,53.6-15.9,66-41h204.4c54.2,0,98.3-44.1,98.3-98.3C508,196,481.3,158.8,442.3,145z M409.7,319.5H194.5    c0,0-11.7,41-55.2,41c-43.6,0-55.4-42.2-55.4-42.2l-4.3-1c-36.6-8.7-63.1-42.2-63.1-79.6c0-71.7,73.6-81.7,73.6-81.7    s5.8-82.2,82.1-82.2c13.2,0,24.8,3.7,24.8,3.7s30.3-61.1,106.3-61.1c67.8,0,122.9,55.1,122.9,122.9c0,10-1.1,17.6-1.1,17.6    s66.7,13.8,66.7,80.7C491.6,282.8,454.9,319.5,409.7,319.5z"/>
	</g>
</g>
<g>
</g>
<g>
</g>
<g>
</g>
<g>
</g>
<g>
</g>
<g>
</g>
<g>
</g>
<g>
</g>
<g>
</g>
<g>
</g>
<g>
</g>
<g>
</g>
<g>
</g>
<g>
</g>
<g>
</g>
</svg>
