<?xml version="1.0" encoding="iso-8859-1"?>
<!-- Generator: Adobe Illustrator 19.0.0, SVG Export Plug-In . SVG Version: 6.00 Build 0)  -->
<svg xmlns="http://www.w3.org/2000/svg" xmlns:xlink="http://www.w3.org/1999/xlink" version="1.1" id="Capa_1" x="0px" y="0px" viewBox="0 0 508 508" style="enable-background:new 0 0 508 508;" xml:space="preserve">
<g>
	<g>
		<path d="M335.9,32.8v16.4c49.7,0,90.1,40.4,90.1,90.1h16.4C442.5,80.6,394.7,32.8,335.9,32.8z"/>
	</g>
</g>
<g>
	<g>
		<path d="M98.4,314.7c0,0-49.2,62-49.2,86.8c0,27.1,22.1,49.2,49.2,49.2c27.1,0,49.2-22.1,49.2-49.2    C147.6,376.7,98.4,314.7,98.4,314.7z M98.3,434.3c-18.1,0-32.8-14.7-32.8-32.8c0-12.5,18.1-40.7,32.8-60.3    c14.7,19.6,32.8,47.9,32.8,60.3C131.1,419.6,116.4,434.3,98.3,434.3z"/>
	</g>
</g>
<g>
	<g>
		<path d="M434.3,372c0,0-49.2,62-49.2,86.8c0,27.1,22.1,49.2,49.2,49.2c27.1,0,49.2-22.1,49.2-49.2C483.5,434,434.3,372,434.3,372z     M434.3,491.6c-18.1,0-32.8-14.7-32.8-32.8c0-12.5,18.1-40.7,32.8-60.3c14.7,19.6,32.8,47.9,32.8,60.3    C467,476.9,452.3,491.6,434.3,491.6z"/>
	</g>
</g>
<g>
	<g>
		<path d="M477.8,147.9c0.5-4.6,0.7-8.7,0.7-12.7c0-74.5-61-135.2-136-135.2c-40.2,0-77.6,17.3-103.6,47.7C224.8,42,210.1,39,195,39    c-58,0-106.2,41.5-114.9,97.7H67.2c-37,0-67.2,30-67.2,66.8s30.1,66.8,67.2,66.8h29.2c20.1,25.7,51.2,41,83.8,41    c32.7,0,63.7-15.2,83.8-41h32.1c-0.7,2.9-1.2,5.7-1.2,8.2c0,27.1,22.1,49.2,49.2,49.2c27.1,0,49.2-22.1,49.2-49.2    c0-2.5-0.4-5.3-1.2-8.2h48.7c37,0,67.2-30,67.2-66.8C508,181.1,496.6,160.2,477.8,147.9z M344.1,311.4    c-18.1,0-32.8-14.7-32.8-32.8c0-12.5,18.1-40.7,32.8-60.3c14.7,19.6,32.8,47.9,32.8,60.3C376.9,296.7,362.2,311.4,344.1,311.4z     M440.8,254h-54.7c-11.8-24.5-41.9-62.3-41.9-62.3s-30.2,37.8-42,62.3h-46.4c0,0-26.1,41-75.6,41c-49.8,0-75.6-41-75.6-41H67.2    c-28,0-50.8-22.6-50.8-50.4s22.8-50.4,50.8-50.4h27.6l0.7-7.5c4.7-51.4,47.4-90.2,99.5-90.2c26.8,0,48.8,12.5,48.8,12.5    s33.2-51.6,98.7-51.6c66,0,119.6,53.3,119.6,118.8c0,8.8-1.9,21.5-1.9,21.5s31.4,10.7,31.4,46.9C491.6,231.4,468.8,254,440.8,254z    "/>
	</g>
</g>
<g>
</g>
<g>
</g>
<g>
</g>
<g>
</g>
<g>
</g>
<g>
</g>
<g>
</g>
<g>
</g>
<g>
</g>
<g>
</g>
<g>
</g>
<g>
</g>
<g>
</g>
<g>
</g>
<g>
</g>
</svg>
