<?xml version="1.0" encoding="iso-8859-1"?>
<!-- Generator: Adobe Illustrator 19.0.0, SVG Export Plug-In . SVG Version: 6.00 Build 0)  -->
<svg xmlns="http://www.w3.org/2000/svg" xmlns:xlink="http://www.w3.org/1999/xlink" version="1.1" id="Capa_1" x="0px" y="0px" viewBox="0 0 508 508" style="enable-background:new 0 0 508 508;" xml:space="preserve">
<g>
	<g>
		<path d="M505.95,87.5h-92.1L385.35,0l-28.4,87.6h-92.1l74.5,54.1l-28.5,87.5l74.5-54.1l74.5,54.1l-28.4-87.6L505.95,87.5z     M385.35,154.7l-43,31.3l16.4-50.6l-43-31.3h53.2l16.4-50.6l16.4,50.6h53.2l-43,31.3l16.4,50.6L385.35,154.7z"/>
	</g>
</g>
<g>
	<g>
		<path d="M365.65,384c-132.1,0-239.7-107.5-239.7-239.6c0-76,38.2-132.3,38.2-132.3l-22.9,11.8C55.35,68,2.05,155.4,2.05,251.8    c0,141.3,114.9,256.2,256.2,256.2c96.4,0,183.8-53.4,227.9-139.3l11.8-22.9C497.95,345.8,436.75,384,365.65,384z M258.25,491.5    c-132.2,0-239.7-107.5-239.7-239.7c0-81.7,40.9-156.4,108.4-200.5c-11.6,29.6-17.5,60.8-17.5,93c0,141.3,114.9,256.2,256.2,256.2    c32.3,0,63.5-5.9,93.1-17.5C414.65,450.5,339.95,491.5,258.25,491.5z"/>
	</g>
</g>
<g>
</g>
<g>
</g>
<g>
</g>
<g>
</g>
<g>
</g>
<g>
</g>
<g>
</g>
<g>
</g>
<g>
</g>
<g>
</g>
<g>
</g>
<g>
</g>
<g>
</g>
<g>
</g>
<g>
</g>
</svg>
