<?xml version="1.0" encoding="iso-8859-1"?>
<!-- Generator: Adobe Illustrator 19.0.0, SVG Export Plug-In . SVG Version: 6.00 Build 0)  -->
<svg xmlns="http://www.w3.org/2000/svg" xmlns:xlink="http://www.w3.org/1999/xlink" version="1.1" id="Capa_1" x="0px" y="0px" viewBox="0 0 508.1 508.1" style="enable-background:new 0 0 508.1 508.1;" xml:space="preserve">
<g>
	<g>
		<path d="M458.8,138.75c0-0.2,0-0.3,0-0.5c0-75.4-61-136.7-136-136.7c-43.7,0-84.3,20.9-110,56.4c-12.1-4.6-24.7-6.9-37.5-6.9    c-48.7,0-91.2,33.5-103.1,80.4c-41.6,7-72.2,43-72.2,86.1c0,48.1,39,87.3,86.9,87.3h334.3c47.9,0,86.9-39.2,86.9-87.3    C508,183.45,488.9,153.25,458.8,138.75z M421.1,288.25H86.9c-38.9,0-70.5-31.8-70.5-70.9c0-36.6,27.2-66.9,63.4-70.6l6-0.6l1.2-6    c8.4-42.2,45.5-72.9,88.4-72.9c12.8,0,25.3,2.7,37.1,8.1l6.4,2.9l3.8-5.9c22.2-34.2,59.7-54.6,100.1-54.6    c66,0,119.6,54,119.6,120.4c0,1-0.5,11.1-0.5,11.1l5.4,2.2c26.9,10.8,44.3,36.7,44.3,65.8C491.6,256.45,460,288.25,421.1,288.25z"/>
	</g>
</g>
<g>
	<g>
		<path d="M319.5,34.25v16.4c49.7,0,90.1,40.4,90.1,90.1H426C426.1,82.05,378.3,34.25,319.5,34.25z"/>
	</g>
</g>
<g>
	<g>
		<path d="M342.7,370.15h-59l24.5-49.1H233l-59,98.3h43.6l-42.8,87.2L342.7,370.15z M202.9,402.95l39.3-65.5h39.5l-24.6,49.2h39.277    l-74.077,60.2l21.5-43.9H202.9z"/>
	</g>
</g>
<g>
</g>
<g>
</g>
<g>
</g>
<g>
</g>
<g>
</g>
<g>
</g>
<g>
</g>
<g>
</g>
<g>
</g>
<g>
</g>
<g>
</g>
<g>
</g>
<g>
</g>
<g>
</g>
<g>
</g>
</svg>
