<?xml version="1.0" encoding="iso-8859-1"?>
<!-- Generator: Adobe Illustrator 19.0.0, SVG Export Plug-In . SVG Version: 6.00 Build 0)  -->
<svg xmlns="http://www.w3.org/2000/svg" xmlns:xlink="http://www.w3.org/1999/xlink" version="1.1" id="Capa_1" x="0px" y="0px" viewBox="0 0 508 508" style="enable-background:new 0 0 508 508;" xml:space="preserve">
<g>
	<g>
		<path d="M303.2,52.55v16.4c54.2,0,98.3,44.1,98.3,98.3h16.4C417.9,104.05,366.4,52.55,303.2,52.55z"/>
	</g>
</g>
<g>
	<g>
		<path d="M462.5,165.55c0-84.9-69-153.9-153.9-153.9c-46.4,0-89.4,20.5-118.8,56.3c-6-1.1-12-1.7-17.8-1.7    c-52.1,0-94.9,40.3-98.9,91.4c-41,4-73.1,38.6-73.1,80.6c0,44.7,36.4,81,81,81h35.9l-14.2,36.4h46.5L111,496.35l125.5-177.1h40.9    c19,23.2,46.7,36.4,76.7,36.4s57.8-13.3,76.8-36.5c42.8-2.1,77.1-37.6,77.1-80.9C508,207.05,490.3,179.05,462.5,165.55z     M151.1,411.65l19.6-72.3h-44l51-131.1h39.5l-23.6,57.4h60.9L151.1,411.65z M426.8,302.95h-4.1c0,0-19.8,36.4-68.6,36.4    c-48.9,0-68.6-36.4-68.6-36.4h-37.3l38-53.7h-68.1l23.6-57.4h-75.2l-43.2,111.1H81c-35.6,0-64.6-29-64.6-64.6    c0-35.6,29-64.6,64.6-64.6h8.2v-8.2c0-45.7,37.2-82.8,82.8-82.8c13.1,0,24.3,3.5,24.3,3.5l3.2-4.2c26.3-34.3,66-54,109-54    c75.8,0,137.5,61.7,137.5,137.5c0,0.9-0.5,10.7-0.5,10.7l5.4,2.1c24.7,9.9,40.6,33.4,40.6,60    C491.6,273.95,462.6,302.95,426.8,302.95z"/>
	</g>
</g>
<g>
</g>
<g>
</g>
<g>
</g>
<g>
</g>
<g>
</g>
<g>
</g>
<g>
</g>
<g>
</g>
<g>
</g>
<g>
</g>
<g>
</g>
<g>
</g>
<g>
</g>
<g>
</g>
<g>
</g>
</svg>
