<?xml version="1.0" encoding="iso-8859-1"?>
<!-- Generator: Adobe Illustrator 19.0.0, SVG Export Plug-In . SVG Version: 6.00 Build 0)  -->
<svg xmlns="http://www.w3.org/2000/svg" xmlns:xlink="http://www.w3.org/1999/xlink" version="1.1" id="Capa_1" x="0px" y="0px" viewBox="0 0 508 508" style="enable-background:new 0 0 508 508;" xml:space="preserve">
<g>
	<g>
		<rect x="245.8" width="16.4" height="49.2"/>
	</g>
</g>
<g>
	<g>
		<rect x="173.855" y="31.589" transform="matrix(0.9238 -0.3829 0.3829 0.9238 -4.3283 73.331)" width="16.4" height="31.9"/>
	</g>
</g>
<g>
	<g>
		<rect x="106.702" y="57.568" transform="matrix(0.7071 -0.7071 0.7071 0.7071 -24.4473 105.3145)" width="16.4" height="49.2"/>
	</g>
</g>
<g>
	<g>
		<rect x="72.852" y="134.459" transform="matrix(0.3827 -0.9239 0.9239 0.3827 -88.1862 167.2381)" width="16.4" height="30.301"/>
	</g>
</g>
<g>
	<g>
		<rect x="32.8" y="213" width="49.2" height="16.4"/>
	</g>
</g>
<g>
	<g>
		<rect x="426" y="213" width="49.2" height="16.4"/>
	</g>
</g>
<g>
	<g>
		<rect x="411.7" y="140.939" transform="matrix(0.9239 -0.3827 0.3827 0.9239 -24.4893 175.164)" width="32.701" height="16.4"/>
	</g>
</g>
<g>
	<g>
		<rect x="368.387" y="73.972" transform="matrix(0.7071 -0.7071 0.7071 0.7071 56.9983 301.951)" width="49.2" height="16.4"/>
	</g>
</g>
<g>
	<g>
		<rect x="309.931" y="39.335" transform="matrix(0.3828 -0.9238 0.9238 0.3828 157.2164 330.3947)" width="31.899" height="16.4"/>
	</g>
</g>
<g>
	<g>
		<path d="M381.6,295c13-22.3,19.9-47.5,19.9-73.7c0-81.3-66.2-147.5-147.5-147.5S106.5,140,106.5,221.3c0,26.3,6.9,51.4,19.9,73.7    H0v16.4h508V295H381.6z M145.7,295c-14.9-21.7-22.7-47.1-22.7-73.7c0-72.3,58.8-131.1,131.1-131.1S385.2,149,385.2,221.3    c0,26.6-7.8,52-22.7,73.7H145.7z"/>
	</g>
</g>
<g>
	<g>
		<rect x="40.9" y="344.1" width="426.1" height="16.4"/>
	</g>
</g>
<g>
	<g>
		<rect x="81.9" y="393.3" width="344.1" height="16.4"/>
	</g>
</g>
<g>
	<g>
		<rect x="122.9" y="442.5" width="262.2" height="16.4"/>
	</g>
</g>
<g>
	<g>
		<rect x="163.8" y="491.6" width="180.3" height="16.4"/>
	</g>
</g>
<g>
</g>
<g>
</g>
<g>
</g>
<g>
</g>
<g>
</g>
<g>
</g>
<g>
</g>
<g>
</g>
<g>
</g>
<g>
</g>
<g>
</g>
<g>
</g>
<g>
</g>
<g>
</g>
<g>
</g>
</svg>
