<?xml version="1.0" encoding="iso-8859-1"?>
<!-- Generator: Adobe Illustrator 19.0.0, SVG Export Plug-In . SVG Version: 6.00 Build 0)  -->
<svg xmlns="http://www.w3.org/2000/svg" xmlns:xlink="http://www.w3.org/1999/xlink" version="1.1" id="Capa_1" x="0px" y="0px" viewBox="0 0 508.2 508.2" style="enable-background:new 0 0 508.2 508.2;" xml:space="preserve">
<g>
	<g>
		<rect x="245.8" y="47.55" width="16.7" height="50"/>
	</g>
</g>
<g>
	<g>
		<rect x="172.593" y="79.663" transform="matrix(0.9238 -0.3829 0.3829 0.9238 -22.9352 76.5919)" width="16.7" height="32.5"/>
	</g>
</g>
<g>
	<g>
		
			<rect x="104.243" y="106.163" transform="matrix(0.7071 -0.7071 0.7071 0.7071 -59.7685 118.0316)" width="16.7" height="49.999"/>
	</g>
</g>
<g>
	<g>
		<rect x="69.758" y="184.39" transform="matrix(0.3827 -0.9239 0.9239 0.3827 -136.3645 195.4944)" width="16.7" height="30.801"/>
	</g>
</g>
<g>
	<g>
		<rect x="29" y="264.35" width="50" height="16.7"/>
	</g>
</g>
<g>
	<g>
		<rect x="429.3" y="264.35" width="50" height="16.7"/>
	</g>
</g>
<g>
	<g>
		<rect x="414.722" y="190.964" transform="matrix(0.9239 -0.3827 0.3827 0.9239 -43.438 180.2544)" width="33.301" height="16.7"/>
	</g>
</g>
<g>
	<g>
		<rect x="370.734" y="122.832" transform="matrix(0.7071 -0.7071 0.7071 0.7071 23.148 318.248)" width="49.999" height="16.7"/>
	</g>
</g>
<g>
	<g>
		<polygon points="325.9,77.65 313.5,107.75 328.9,114.05 341.3,84.05   "/>
	</g>
</g>
<g>
	<g>
		<path d="M467.2,331.15c-4.7,4.7-12.7,4.8-17.5-0.1c-11.1-10.9-30.1-10.8-40.9,0.1c-4.5,4.5-11.8,4.8-16.8,0.4    c8-18.7,12.3-38.4,12.3-58.9c0-82.8-67.3-150.1-150.1-150.1s-150.1,67.3-150.1,150.1c0,20.5,4.3,40.2,12.3,58.9    c-4.8,4.2-12.3,4.2-16.9-0.4c-11.1-10.9-30.1-10.8-40.9,0.1c-4.7,4.7-12.7,4.8-17.5-0.1c-11.1-10.9-30.1-10.8-40.9,0l11.8,11.8    c4.5-4.5,12.8-4.5,17.3,0c10.8,11,30,11.1,41,0.1c4.6-4.6,12.8-4.5,17.3-0.1c10.8,11,30,11.1,41,0.1c0.6-0.6,3.9-3.6,8.7-3.6    c3.3,0,6.4,1.3,8.6,3.5c10.8,11,30,11.1,41,0.1c4.6-4.6,12.8-4.5,17.3-0.1c10.8,11,30,11.1,41,0.1c4.6-4.6,12.8-4.5,17.3-0.1    c10.8,11,30,11.1,41,0.1c4.6-4.6,12.8-4.5,17.3-0.1c10.8,11,30,11.1,41,0.1c2.3-2.3,5.4-3.6,8.7-3.6c4.7,0,8.1,3,8.6,3.5    c10.8,11,30,11.1,41,0.1c4.6-4.6,12.8-4.5,17.3-0.1c5.4,5.5,12.7,8.6,20.5,8.6c7.7,0,15-3,20.5-8.5c4.8-4.8,12.6-4.8,17.4,0    l12.4-11.9C496.9,319.95,478.5,319.95,467.2,331.15z M377.5,323.45c-9.5-2.2-20.1,0.7-27.1,7.7c-4.7,4.7-12.7,4.8-17.5-0.1    c-5.5-5.4-12.8-8.4-20.4-8.4c-7.8,0-15,3-20.5,8.4c-4.7,4.7-12.7,4.8-17.5-0.1c-11.1-10.9-30.1-10.8-40.9,0.1    c-4.7,4.7-12.7,4.8-17.5-0.1c-11.1-10.9-30.1-10.8-40.9,0.1c-4.7,4.7-12.7,4.8-17.5-0.1c-7.2-7-17.7-9.8-27-7.6    c-6.7-16.1-10.1-33.2-10.1-50.8c0.2-73.4,60-133.3,133.6-133.3s133.4,59.9,133.4,133.4C387.6,290.25,384.2,307.35,377.5,323.45z"/>
	</g>
</g>
<g>
	<g>
		<path d="M467.2,385.85c-4.7,4.7-12.7,4.8-17.5-0.1c-11.1-10.9-30.1-10.7-40.9,0.1c-4.7,4.7-12.6,4.9-17.6-0.2    c-1.7-1.6-3.4-2.9-4.8-3.7c-10.9-7.1-26.6-5.4-36,3.9c-4.7,4.7-12.7,4.8-17.5-0.1c-11.1-10.9-30.1-10.7-40.9,0.1    c-4.7,4.7-12.7,4.8-17.5-0.1c-11.1-10.9-30.1-10.7-40.9,0.1c-4.7,4.7-12.7,4.8-17.5-0.1c-11.1-10.9-30.1-10.7-40.9,0.1    c-4.7,4.7-12.7,4.8-17.5-0.1c-5.5-5.4-12.8-8.4-20.4-8.4c-5.7,0-11.1,1.6-15,4.2c-1.9,1.1-3.8,2.5-5.5,4.2    c-4.7,4.7-12.7,4.8-17.5-0.1c-11.1-10.9-30.1-10.7-40.9,0.1c-4.7,4.7-12.7,4.8-17.5-0.1c-11.1-10.9-30.1-10.7-40.9,0.1l11.8,11.8    c4.6-4.6,12.8-4.5,17.3-0.1c10.8,11,30,11.1,41,0.1c4.6-4.6,12.8-4.5,17.3-0.1c10.8,11,30,11.1,41,0.1c0.6-0.6,1.3-1.1,2.4-1.8    c4.1-2.7,11-2.1,14.9,1.7c10.8,11,29.9,11.1,41,0.1c4.6-4.6,12.8-4.5,17.3-0.1c10.8,11,30,11.1,41,0.1c4.6-4.6,12.8-4.5,17.3-0.1    c10.8,11,30,11.1,41,0.1c4.6-4.6,12.8-4.5,17.3-0.1c10.8,11,29.9,11.1,41,0.1c3.9-3.9,10.3-4.8,15.3-1.6c0.7,0.4,1.5,1,2,1.5    c10.8,11,30,11.1,41,0.1c4.6-4.6,12.8-4.5,17.3-0.1c5.4,5.5,12.7,8.6,20.5,8.6c7.7,0,15-3,20.5-8.5c4.8-4.8,12.6-4.8,17.4,0    l11.7-11.9C496.9,374.55,478.5,374.55,467.2,385.85z"/>
	</g>
</g>
<g>
	<g>
		<path d="M467.2,440.45c-4.7,4.7-12.7,4.8-17.5-0.1c-11.1-10.9-30.1-10.8-40.9,0.1c-4.7,4.7-12.6,4.9-17.6-0.2    c-1.7-1.6-3.4-2.9-4.8-3.7c-10.9-7.1-26.6-5.4-36,3.9c-4.7,4.7-12.7,4.8-17.5-0.1c-11.1-10.9-30.1-10.8-40.9,0.1    c-4.7,4.7-12.7,4.8-17.5-0.1c-11.1-10.9-30.1-10.8-40.9,0.1c-4.7,4.7-12.7,4.8-17.5-0.1c-11.1-10.9-30.1-10.8-40.9,0.1    c-4.7,4.7-12.7,4.8-17.5-0.1c-5.5-5.4-12.8-8.4-20.4-8.4c-5.7,0-11.1,1.6-15,4.2c-1.9,1.1-3.8,2.5-5.5,4.2    c-4.7,4.7-12.7,4.8-17.5-0.1c-11.1-10.9-30.1-10.8-40.9,0.1c-4.7,4.7-12.7,4.8-17.5-0.1c-11.1-10.9-30.1-10.8-40.9,0.1l11.8,11.8    c4.6-4.6,12.8-4.5,17.3-0.1c10.8,11,30,11.1,41,0.1c4.6-4.6,12.8-4.5,17.3-0.1c10.8,11,30,11.1,41,0.1c0.6-0.6,1.3-1.1,2.4-1.8    c4.1-2.7,11-2.1,14.9,1.7c10.8,11,30,11.1,41,0.1c4.6-4.6,12.8-4.5,17.3-0.1c10.8,11,30,11.1,41,0.1c4.6-4.6,12.8-4.5,17.3-0.1    c10.8,11,30,11.1,41,0.1c4.6-4.6,12.8-4.5,17.3-0.1c10.8,11,30,11.1,41,0.1c3.9-3.9,10.3-4.8,15.3-1.6c0.7,0.4,1.5,1,2,1.5    c10.8,11,30,11.1,41,0.1c4.6-4.6,12.8-4.5,17.3-0.1c5.4,5.5,12.7,8.6,20.5,8.6c7.7,0,15-3,20.5-8.5c4.8-4.8,12.6-4.8,17.4,0    l11.7-11.9C496.9,429.15,478.5,429.15,467.2,440.45z"/>
	</g>
</g>
<g>
</g>
<g>
</g>
<g>
</g>
<g>
</g>
<g>
</g>
<g>
</g>
<g>
</g>
<g>
</g>
<g>
</g>
<g>
</g>
<g>
</g>
<g>
</g>
<g>
</g>
<g>
</g>
<g>
</g>
</svg>
