<?xml version="1.0" encoding="iso-8859-1"?>
<!-- Generator: Adobe Illustrator 19.0.0, SVG Export Plug-In . SVG Version: 6.00 Build 0)  -->
<svg xmlns="http://www.w3.org/2000/svg" xmlns:xlink="http://www.w3.org/1999/xlink" version="1.1" id="Capa_1" x="0px" y="0px" viewBox="0 0 508 508" style="enable-background:new 0 0 508 508;" xml:space="preserve">
<g>
	<g>
		<path d="M508,245.8h-37.6l18.8-18.8l-11.6-11.6l-30.4,30.4h-42.4l35.2-35.2L428.5,199l-46.8,46.8h-46.2    c-1.6-16.5-8.2-31.5-18.1-43.6l32.7-32.7h66.1v-16.4h-49.7l30-30h43v-16.4h-26.6l26.6-26.6l-11.6-11.6l-26.6,26.6V68.6h-16.4v43    l-30,30V91.8h-16.4v66.1l-32.7,32.7c-12.1-9.9-27.2-16.5-43.6-18.1v-46.2L309,79.5l-11.6-11.6l-35.2,35.2V60.7l30.4-30.4L281,18.8    l-18.8,18.8V0h-16.4v37.6L227,18.8l-11.6,11.6l30.4,30.4v42.4L210.6,68L199,79.5l46.8,46.8v46.2c-16.5,1.6-31.5,8.2-43.6,18.1    l-32.7-32.7V91.8h-16.4v49.7l-30-30v-43h-16.4v26.6L80.2,68.6L68.6,80.2l26.6,26.6H68.6v16.4h43l30,30H91.8v16.4h66.1l32.7,32.7    c-9.9,12.1-16.5,27.2-18.1,43.6h-46.2L79.5,199l-11.6,11.6l35.2,35.2H60.7l-30.4-30.4L18.8,227l18.8,18.8H0v16.4h37.6L18.8,281    l11.6,11.6l30.4-30.4h42.4L68,297.4L79.5,309l46.8-46.8h46.2c1.6,16.5,8.2,31.5,18.1,43.6l-32.7,32.7H91.8v16.4h49.7l-30,30h-43    v16.4h26.6l-26.6,26.6l11.6,11.6l26.6-26.6v26.6h16.4v-43l30-30v49.7h16.4v-66.1l32.7-32.7c12.1,9.9,27.2,16.5,43.6,18.1v46.2    L199,428.5l11.6,11.6l35.2-35.2v42.4l-30.4,30.4l11.6,11.6l18.8-18.8V508h16.4v-37.6l18.8,18.8l11.6-11.6l-30.4-30.4v-42.4    l35.2,35.2l11.6-11.6l-46.8-46.8v-46.2c16.5-1.6,31.5-8.2,43.6-18.1l32.7,32.7v66.1h16.4v-49.7l30,30v43h16.4v-26.6l26.6,26.6    l11.6-11.6l-26.6-26.6h26.6v-16.4h-43l-30-30h49.7v-16.4h-66.1l-32.7-32.7c9.9-12.1,16.5-27.2,18.1-43.6h46.2l46.8,46.8l11.6-11.6    l-35.2-35.2h42.4l30.4,30.4l11.6-11.6l-18.8-18.8H508V245.8z M254,319.5c-36.1,0-65.5-29.4-65.5-65.5c0-36.1,29.4-65.5,65.5-65.5    c36.1,0,65.5,29.4,65.5,65.5C319.5,290.1,290.1,319.5,254,319.5z"/>
	</g>
</g>
<g>
</g>
<g>
</g>
<g>
</g>
<g>
</g>
<g>
</g>
<g>
</g>
<g>
</g>
<g>
</g>
<g>
</g>
<g>
</g>
<g>
</g>
<g>
</g>
<g>
</g>
<g>
</g>
<g>
</g>
</svg>
