<?xml version="1.0" encoding="iso-8859-1"?>
<!-- Generator: Adobe Illustrator 19.0.0, SVG Export Plug-In . SVG Version: 6.00 Build 0)  -->
<svg xmlns="http://www.w3.org/2000/svg" xmlns:xlink="http://www.w3.org/1999/xlink" version="1.1" id="Capa_1" x="0px" y="0px" viewBox="0 0 508 508" style="enable-background:new 0 0 508 508;" xml:space="preserve">
<g>
	<g>
		<path d="M262.2,353V196.6h-16.4V353c-27.7,4-49.2,27.9-49.2,56.7c0,31.6,25.7,57.4,57.4,57.4c31.6,0,57.4-25.7,57.4-57.4    C311.4,380.8,289.9,357,262.2,353z M254,450.6c-22.6,0-41-18.4-41-41c0-22.6,18.4-41,41-41c22.6,0,41,18.4,41,41    C295,432.3,276.6,450.6,254,450.6z"/>
	</g>
</g>
<g>
	<g>
		<path d="M295,320.4V41c0-22.6-18.4-41-41-41c-22.6,0-41,18.4-41,41v279.4c-35,16-57.4,50.5-57.4,89.3c0,54.2,44.1,98.3,98.3,98.3    s98.3-44.1,98.3-98.3C352.3,370.8,330,336.4,295,320.4z M254,491.6c-45.2,0-81.9-36.8-81.9-81.9c0-61,57.4-78.3,57.4-78.3V41    c0-13.6,11-24.6,24.6-24.6c13.6,0,24.6,11,24.6,24.6v290.4c0,0,57.4,17.3,57.4,78.3C335.9,454.9,299.2,491.6,254,491.6z"/>
	</g>
</g>
<g>
	<g>
		<rect x="311.4" y="24.6" width="41" height="16.4"/>
	</g>
</g>
<g>
	<g>
		<rect x="311.4" y="57.4" width="24.6" height="16.4"/>
	</g>
</g>
<g>
	<g>
		<rect x="311.4" y="90.1" width="41" height="16.4"/>
	</g>
</g>
<g>
	<g>
		<rect x="311.4" y="122.9" width="24.6" height="16.4"/>
	</g>
</g>
<g>
	<g>
		<rect x="311.4" y="155.7" width="41" height="16.4"/>
	</g>
</g>
<g>
	<g>
		<rect x="311.4" y="188.5" width="24.6" height="16.4"/>
	</g>
</g>
<g>
	<g>
		<rect x="311.4" y="221.2" width="41" height="16.4"/>
	</g>
</g>
<g>
	<g>
		<rect x="311.4" y="254" width="24.6" height="16.4"/>
	</g>
</g>
<g>
	<g>
		<rect x="311.4" y="286.8" width="41" height="16.4"/>
	</g>
</g>
<g>
</g>
<g>
</g>
<g>
</g>
<g>
</g>
<g>
</g>
<g>
</g>
<g>
</g>
<g>
</g>
<g>
</g>
<g>
</g>
<g>
</g>
<g>
</g>
<g>
</g>
<g>
</g>
<g>
</g>
</svg>
