<?xml version="1.0" encoding="iso-8859-1"?>
<!-- Generator: Adobe Illustrator 19.0.0, SVG Export Plug-In . SVG Version: 6.00 Build 0)  -->
<svg xmlns="http://www.w3.org/2000/svg" xmlns:xlink="http://www.w3.org/1999/xlink" version="1.1" id="Capa_1" x="0px" y="0px" viewBox="0 0 508 508" style="enable-background:new 0 0 508 508;" xml:space="preserve">
<g>
	<g>
		<path d="M87.6,329.5H71.4c0,71.6,58.2,129.8,129.8,129.8v-16.2C138.6,443.1,87.6,392.1,87.6,329.5z"/>
	</g>
</g>
<g>
	<g>
		<path d="M347.2,0c0,0-41.6,52.4-75,104.2C239,55.9,201.1,8.1,201.1,8.1S22.7,233.7,22.7,329.5c0,98.4,80.1,178.5,178.5,178.5    c79.5,0,146.9-52.2,170-124.1c65.4-11.5,114.1-68.8,114.1-135.7C485.3,174.4,347.2,0,347.2,0z M201.2,491.8    c-89.5,0-162.3-72.8-162.3-162.3c0-80.1,131.6-255.3,162.3-295.1c30.7,39.8,162.3,215,162.3,295.1    C363.5,419,290.7,491.8,201.2,491.8z M375.8,366.5c2.5-11.9,3.9-24.3,3.9-37c0-53.3-51-141.3-97.5-210.6    c25.6-40.4,53-76.9,65-92.6C373.1,60,469,189,469,248.3C469.1,304.7,429.8,353.5,375.8,366.5z"/>
	</g>
</g>
<g>
</g>
<g>
</g>
<g>
</g>
<g>
</g>
<g>
</g>
<g>
</g>
<g>
</g>
<g>
</g>
<g>
</g>
<g>
</g>
<g>
</g>
<g>
</g>
<g>
</g>
<g>
</g>
<g>
</g>
</svg>
