<?xml version="1.0" encoding="iso-8859-1"?>
<!-- Generator: Adobe Illustrator 19.0.0, SVG Export Plug-In . SVG Version: 6.00 Build 0)  -->
<svg xmlns="http://www.w3.org/2000/svg" xmlns:xlink="http://www.w3.org/1999/xlink" version="1.1" id="Capa_1" x="0px" y="0px" viewBox="0 0 508 508" style="enable-background:new 0 0 508 508;" xml:space="preserve">
<g>
	<g>
		<path d="M262.2,320V90.1h-16.4V320c-36.8,4.1-65.5,35.4-65.5,73.3c0,40.7,33.1,73.7,73.7,73.7s73.7-33.1,73.7-73.7    C327.7,355.4,299,324.1,262.2,320z M254,450.6c-31.6,0-57.4-25.7-57.4-57.4c0-31.6,25.7-57.4,57.4-57.4s57.4,25.7,57.4,57.4    C311.4,424.9,285.6,450.6,254,450.6z"/>
	</g>
</g>
<g>
	<g>
		<path d="M303.2,289.7v-19.3h41V254h-41v-32.8h24.6v-16.4h-24.6V172h41v-16.4h-41v-32.8h24.6v-16.4h-24.6V73.7h41V57.4h-41v-8.2    C303.2,22.1,281.1,0,254,0c-27.1,0-49.2,22.1-49.2,49.2v240.5c-40,19-65.5,59.1-65.5,103.6c0,63.3,51.5,114.7,114.7,114.7    s114.7-51.5,114.7-114.7C368.7,348.7,343.2,308.6,303.2,289.7z M254,491.6c-54.2,0-98.3-44.1-98.3-98.3    c0-69.6,65.5-92.9,65.5-92.9V49.2c0-18.1,14.7-32.8,32.8-32.8c18.1,0,32.8,14.7,32.8,32.8v251.3c0,0,65.5,22.8,65.5,92.9    C352.3,447.5,308.2,491.6,254,491.6z"/>
	</g>
</g>
<g>
</g>
<g>
</g>
<g>
</g>
<g>
</g>
<g>
</g>
<g>
</g>
<g>
</g>
<g>
</g>
<g>
</g>
<g>
</g>
<g>
</g>
<g>
</g>
<g>
</g>
<g>
</g>
<g>
</g>
</svg>
