<?xml version="1.0" encoding="iso-8859-1"?>
<!-- Generator: Adobe Illustrator 19.0.0, SVG Export Plug-In . SVG Version: 6.00 Build 0)  -->
<svg xmlns="http://www.w3.org/2000/svg" xmlns:xlink="http://www.w3.org/1999/xlink" version="1.1" id="Capa_1" x="0px" y="0px" viewBox="0 0 508 508" style="enable-background:new 0 0 508 508;" xml:space="preserve">
<g>
	<g>
		<path d="M360.6,3.2c0,0-47.2,53.8-84.4,108C235.8,56,188.4,2.3,188.4,2.3S0,215.8,0,317.3c0,103.9,84.5,188.4,188.4,188.4    c74.6,0,139.1-43.5,169.7-106.5c0.8,0,1.7,0.1,2.5,0.1c81.3,0,147.4-66.6,147.4-148.4C508,171.4,360.6,3.2,360.6,3.2z     M188.4,489.3c-94.9,0-172.1-77.2-172.1-172.1C16.3,232.1,157,63.5,188.4,27c31.3,36.5,172.1,205,172.1,290.2    C360.5,412.1,283.3,489.3,188.4,489.3z M365.1,382.7c7.6-20.4,11.7-42.4,11.7-65.4c0-51.6-45.1-128-90.5-191.9    c29-42.9,61.1-81.7,74.2-97.2c26.7,31.4,131,158.4,131,222.8C491.6,322.2,435.3,380.3,365.1,382.7z"/>
	</g>
</g>
<g>
	<g>
		<path d="M57.3,317.5H40.9c0,81.3,66.2,147.5,147.5,147.5v-16.4C116.1,448.6,57.3,389.8,57.3,317.5z"/>
	</g>
</g>
<g>
</g>
<g>
</g>
<g>
</g>
<g>
</g>
<g>
</g>
<g>
</g>
<g>
</g>
<g>
</g>
<g>
</g>
<g>
</g>
<g>
</g>
<g>
</g>
<g>
</g>
<g>
</g>
<g>
</g>
</svg>
