<?xml version="1.0" encoding="iso-8859-1"?>
<!-- Generator: Adobe Illustrator 19.0.0, SVG Export Plug-In . SVG Version: 6.00 Build 0)  -->
<svg xmlns="http://www.w3.org/2000/svg" xmlns:xlink="http://www.w3.org/1999/xlink" version="1.1" id="Capa_1" x="0px" y="0px" viewBox="0 0 507.9 507.9" style="enable-background:new 0 0 507.9 507.9;" xml:space="preserve">
<g>
	<g>
		<path d="M73.5,187.644h16.4c0-31.8,25.8-57.6,57.6-57.6v-16.4C106.7,113.644,73.5,146.844,73.5,187.644z"/>
	</g>
</g>
<g>
	<g>
		<path d="M449.5,199.244c-1.8-34.9-28.2-63.9-62.5-69.1c-18-58.1-71.9-98.2-133-98.2c-41.3,0-79.8,18-106.4,49.6    c-3-0.3-5.7-0.4-8.3-0.4c-54.2,0-98.3,44.1-98.3,98.3c0,8.6,1.2,17.1,3.4,25.5c-27.2,14-44.4,41.8-44.4,72.8    c0,45.2,36.8,81.9,81.9,81.9H426c45.2,0,81.9-36.8,81.9-81.9C508,241.444,483.8,209.444,449.5,199.244z M426.1,343.344H81.9    c-36.1,0-65.5-29.4-65.5-65.6c0-26.8,16.1-50.7,41-60.8l7.3-2.9c0,0-7.4-16.8-7.4-34.6c0-45.2,36.8-81.9,81.9-81.9    c9.1,0,15.4,1.4,15.4,1.4s31.2-50.6,99.3-50.6c55.6,0,104.4,37.6,118.7,91.4l1.5,5.7l5.8,0.4c29.8,2.1,53.2,27.2,53.2,57.1    l-0.4,9.2l6.8,1.4c30.2,6.3,52.1,33.3,52.1,64.1C491.6,313.944,462.2,343.344,426.1,343.344z"/>
	</g>
</g>
<g>
	<g>
		<path d="M102.9,376.144c0,0-51.9,23.7-58.8,43.1c-7.6,21.3,3.5,45,24.8,52.4c25.8,8.9,46.5-8.5,52.3-24.8    C128.1,427.444,102.9,376.144,102.9,376.144z M105.9,441.244c-3.5,9.8-15,20.1-31.4,14.9c-12.9-4.1-19.4-18.6-14.9-31.4    c2.9-8.1,20.8-19.6,35.8-27.1C102.2,412.844,108.7,433.144,105.9,441.244z"/>
	</g>
</g>
<g>
	<g>
		<path d="M273.3,378.044c0,0-51.9,23.8-58.8,43.1c-7.6,21.3,3.5,45,24.8,52.4c25.8,8.9,46.5-8.5,52.3-24.8    C298.5,429.344,273.3,378.044,273.3,378.044z M276.2,443.244c-3.5,9.8-15,20.1-31.4,14.9c-12.9-4.1-19.4-18.6-14.9-31.4    c2.9-8.1,20.8-19.6,35.8-27.1C272.6,414.844,279.1,435.044,276.2,443.244z"/>
	</g>
</g>
<g>
	<g>
		<path d="M446.3,376.744c0,0-51.8,23.7-58.8,43.1c-7.6,21.3,3.5,45,24.8,52.4c25.8,8.9,46.5-8.5,52.3-24.8    C471.5,428.044,446.3,376.744,446.3,376.744z M449.3,441.844c-3.5,9.8-15,20.1-31.4,14.9c-12.9-4.1-19.4-18.6-14.9-31.4    c2.9-8.1,20.8-19.6,35.8-27.1C445.6,413.544,452.2,433.744,449.3,441.844z"/>
	</g>
</g>
<g>
</g>
<g>
</g>
<g>
</g>
<g>
</g>
<g>
</g>
<g>
</g>
<g>
</g>
<g>
</g>
<g>
</g>
<g>
</g>
<g>
</g>
<g>
</g>
<g>
</g>
<g>
</g>
<g>
</g>
</svg>
