<?xml version="1.0" encoding="iso-8859-1"?>
<!-- Generator: Adobe Illustrator 19.0.0, SVG Export Plug-In . SVG Version: 6.00 Build 0)  -->
<svg xmlns="http://www.w3.org/2000/svg" xmlns:xlink="http://www.w3.org/1999/xlink" version="1.1" id="Capa_1" x="0px" y="0px" viewBox="0 0 507.9 507.9" style="enable-background:new 0 0 507.9 507.9;" xml:space="preserve">
<g>
	<g>
		<path d="M81.9,381.9c0,0-41,39.9-41,60.5c0,22.6,18.4,41,41,41c22.6,0,41-18.4,41-41C122.9,421.8,81.9,381.9,81.9,381.9z     M81.9,466.9c-13.6,0-24.6-11-24.6-24.6c0-8.6,13-25.4,24.6-37.6c11.6,12.1,24.6,29,24.6,37.6C106.5,455.9,95.5,466.9,81.9,466.9z    "/>
	</g>
</g>
<g>
	<g>
		<path d="M254,381.9c0,0-41,39.9-41,60.5c0,22.6,18.4,41,41,41c22.6,0,41-18.4,41-41C295,421.8,254,381.9,254,381.9z M254,466.9    c-13.6,0-24.6-11-24.6-24.6c0-8.6,13-25.4,24.6-37.6c11.6,12.1,24.6,29,24.6,37.6C278.6,455.9,267.6,466.9,254,466.9z"/>
	</g>
</g>
<g>
	<g>
		<path d="M426.1,381.9c0,0-41,39.9-41,60.5c0,22.6,18.4,41,41,41c22.6,0,41-18.4,41-41C467,421.8,426.1,381.9,426.1,381.9z     M426.1,466.9c-13.6,0-24.6-11-24.6-24.6c0-8.6,13-25.4,24.6-37.6c11.6,12.1,24.6,29,24.6,37.6    C450.6,455.9,439.6,466.9,426.1,466.9z"/>
	</g>
</g>
<g>
	<g>
		<path d="M73.5,180.2h16.4c0-31.8,25.8-57.6,57.6-57.6v-16.4C106.7,106.2,73.5,139.4,73.5,180.2z"/>
	</g>
</g>
<g>
	<g>
		<path d="M449.5,191.8c-1.8-34.9-28.2-63.9-62.5-69.1c-18-58.1-71.9-98.2-133-98.2c-41.3,0-79.8,18-106.4,49.6    c-3-0.3-5.7-0.4-8.3-0.4C85.1,73.7,41,117.8,41,172c0,8.6,1.2,17.1,3.4,25.5C17.2,211.4,0,239.3,0,270.3    c0,45.2,36.8,81.9,81.9,81.9H426c45.2,0,81.9-36.8,81.9-81.9C508,234,483.8,202,449.5,191.8z M426.1,335.8H81.9    c-36.1,0-65.5-29.4-65.5-65.6c0-26.8,16.1-50.7,41-60.8l7.3-2.9c0,0-7.4-16.8-7.4-34.6c0-45.2,36.8-81.9,81.9-81.9    c9.1,0,15.4,1.4,15.4,1.4s31.3-50.5,99.4-50.5c55.6,0,104.4,37.6,118.7,91.4l1.5,5.7l5.8,0.4c29.8,2.1,53.2,27.2,53.2,57.1    l-0.4,9.2l6.8,1.4c30.2,6.3,52.1,33.3,52.1,64.1C491.6,306.4,462.2,335.8,426.1,335.8z"/>
	</g>
</g>
<g>
</g>
<g>
</g>
<g>
</g>
<g>
</g>
<g>
</g>
<g>
</g>
<g>
</g>
<g>
</g>
<g>
</g>
<g>
</g>
<g>
</g>
<g>
</g>
<g>
</g>
<g>
</g>
<g>
</g>
</svg>
