<?xml version="1.0" encoding="iso-8859-1"?>
<!-- Generator: Adobe Illustrator 19.0.0, SVG Export Plug-In . SVG Version: 6.00 Build 0)  -->
<svg xmlns="http://www.w3.org/2000/svg" xmlns:xlink="http://www.w3.org/1999/xlink" version="1.1" id="Capa_1" x="0px" y="0px" viewBox="0 0 508 508" style="enable-background:new 0 0 508 508;" xml:space="preserve">
<g>
	<g>
		<path d="M368.7,0H139.3c-22.6,0-41,18.4-41,41v426c0,22.6,18.4,41,41,41h229.4c22.6,0,41-18.4,41-41V41    C409.7,18.4,391.3,0,368.7,0z M393.3,467L393.3,467c0,13.6-11,24.6-24.6,24.6H139.3c-13.6,0-24.6-11-24.6-24.6V41    c0-13.6,11-24.6,24.6-24.6h229.4c13.6,0,24.6,11,24.6,24.6V467z"/>
	</g>
</g>
<g>
	<g>
		<path d="M131.1,65.5v327.8h245.8V65.5H131.1z M360.5,376.9h-213v-295h213V376.9z"/>
	</g>
</g>
<g>
	<g>
		<path d="M254,409.7c-18.1,0-32.8,14.7-32.8,32.8s14.7,32.8,32.8,32.8c18.1,0,32.8-14.7,32.8-32.8    C286.8,424.4,272.1,409.7,254,409.7z M254,458.8c-9,0-16.4-7.3-16.4-16.4c0-9,7.4-16.4,16.4-16.4c9,0,16.4,7.3,16.4,16.4    C270.4,451.5,263,458.8,254,458.8z"/>
	</g>
</g>
<g>
	<g>
		<rect x="311.4" y="434.3" width="49.2" height="16.4"/>
	</g>
</g>
<g>
	<g>
		<rect x="147.5" y="434.3" width="49.2" height="16.4"/>
	</g>
</g>
<g>
	<g>
		<path d="M188.4,98.3c-13.6,0-24.6,11-24.6,24.6c0,13.6,11,24.6,24.6,24.6c13.6,0,24.6-11,24.6-24.6C213,109.3,202,98.3,188.4,98.3    z M188.5,131.1c-4.5,0-8.2-3.7-8.2-8.2s3.7-8.2,8.2-8.2s8.2,3.7,8.2,8.2C196.6,127.4,193,131.1,188.5,131.1z"/>
	</g>
</g>
<g>
	<g>
		<polygon points="303.2,180.3 303.2,163.9 196.6,163.9 196.6,344.1 213,344.1 213,254 278.6,254 278.6,237.6 213,237.6 213,180.3       "/>
	</g>
</g>
<g>
	<g>
		<rect x="204.8" y="32.8" width="98.3" height="16.4"/>
	</g>
</g>
<g>
</g>
<g>
</g>
<g>
</g>
<g>
</g>
<g>
</g>
<g>
</g>
<g>
</g>
<g>
</g>
<g>
</g>
<g>
</g>
<g>
</g>
<g>
</g>
<g>
</g>
<g>
</g>
<g>
</g>
</svg>
