<?xml version="1.0" encoding="iso-8859-1"?>
<!-- Generator: Adobe Illustrator 19.0.0, SVG Export Plug-In . SVG Version: 6.00 Build 0)  -->
<svg xmlns="http://www.w3.org/2000/svg" xmlns:xlink="http://www.w3.org/1999/xlink" version="1.1" id="Capa_1" x="0px" y="0px" viewBox="0 0 508 508" style="enable-background:new 0 0 508 508;" xml:space="preserve">
<g>
	<g>
		<path d="M368.7,0H139.3c-22.6,0-41,18.4-41,41v426c0,22.6,18.4,41,41,41h229.4c22.6,0,41-18.4,41-41V41    C409.7,18.4,391.3,0,368.7,0z M393.3,467L393.3,467c0,13.6-11,24.6-24.6,24.6H139.3c-13.6,0-24.6-11-24.6-24.6V41    c0-13.6,11-24.6,24.6-24.6h229.4c13.6,0,24.6,11,24.6,24.6V467z"/>
	</g>
</g>
<g>
	<g>
		<path d="M131.1,65.5v327.8h245.8V65.5H131.1z M360.5,376.9h-213v-295h213V376.9z"/>
	</g>
</g>
<g>
	<g>
		<rect x="204.8" y="32.8" width="98.3" height="16.4"/>
	</g>
</g>
<g>
	<g>
		<path d="M254,409.7c-18.1,0-32.8,14.7-32.8,32.8s14.7,32.8,32.8,32.8c18.1,0,32.8-14.7,32.8-32.8    C286.8,424.4,272.1,409.7,254,409.7z M254,458.8c-9,0-16.4-7.3-16.4-16.4c0-9,7.4-16.4,16.4-16.4c9,0,16.4,7.3,16.4,16.4    C270.4,451.5,263,458.8,254,458.8z"/>
	</g>
</g>
<g>
	<g>
		<rect x="311.4" y="434.3" width="49.2" height="16.4"/>
	</g>
</g>
<g>
	<g>
		<rect x="147.5" y="434.3" width="49.2" height="16.4"/>
	</g>
</g>
<g>
	<g>
		<path d="M254,311.2c-31.6,0-57.4-25.7-57.4-57.4c0-31.4,25.8-57.2,57.4-57.2c15.3,0,29.7,6,40.6,16.8l11.6-11.6    c-13.9-13.9-32.5-21.6-52.1-21.6c-40.7,0-73.7,33.1-73.7,73.7c0,40.6,33.1,73.7,73.7,73.7c19.7,0,38.2-7.7,52.1-21.6l-11.6-11.6    C283.8,305.2,269.4,311.2,254,311.2z"/>
	</g>
</g>
<g>
	<g>
		<path d="M188.4,139.3c-13.6,0-24.6,11-24.6,24.6c0,13.6,11,24.6,24.6,24.6c13.6,0,24.6-11.1,24.6-24.6    C213,150.3,202,139.3,188.4,139.3z M188.5,172.1c-4.6,0-8.2-3.7-8.2-8.2s3.7-8.2,8.2-8.2s8.2,3.7,8.2,8.2S193,172.1,188.5,172.1z"/>
	</g>
</g>
<g>
</g>
<g>
</g>
<g>
</g>
<g>
</g>
<g>
</g>
<g>
</g>
<g>
</g>
<g>
</g>
<g>
</g>
<g>
</g>
<g>
</g>
<g>
</g>
<g>
</g>
<g>
</g>
<g>
</g>
</svg>
