<?xml version="1.0" encoding="iso-8859-1"?>
<!-- Generator: Adobe Illustrator 19.0.0, SVG Export Plug-In . SVG Version: 6.00 Build 0)  -->
<svg xmlns="http://www.w3.org/2000/svg" xmlns:xlink="http://www.w3.org/1999/xlink" version="1.1" id="Capa_1" x="0px" y="0px" viewBox="0 0 507.9 507.9" style="enable-background:new 0 0 507.9 507.9;" xml:space="preserve">
<g>
	<g>
		<rect x="237.55" y="24.6" width="16.4" height="38.1"/>
	</g>
</g>
<g>
	<g>
		<rect x="237.55" y="281.5" width="16.4" height="38.1"/>
	</g>
</g>
<g>
	<g>
		<rect x="191.114" y="48.105" transform="matrix(0.9239 -0.3826 0.3826 0.9239 -7.7927 80.8242)" width="16.4" height="23.8"/>
	</g>
</g>
<g>
	<g>
		<polygon points="125.85,113.5 119.55,128.7 141.55,137.8 147.75,122.6   "/>
	</g>
</g>
<g>
	<g>
		<polygon points="196.35,270 187.25,292 202.35,298.3 211.45,276.3   "/>
	</g>
</g>
<g>
	<g>
		
			<rect x="121.757" y="210.302" transform="matrix(0.9238 -0.3828 0.3828 0.9238 -73.4639 67.8095)" width="23.799" height="16.399"/>
	</g>
</g>
<g>
	<g>
		<rect x="135.902" y="254.639" transform="matrix(0.7071 -0.7071 0.7071 0.7071 -140.4712 186.5514)" width="38.1" height="16.4"/>
	</g>
</g>
<g>
	<g>
		<rect x="98.25" y="163.9" width="38.1" height="16.4"/>
	</g>
</g>
<g>
	<g>
		<rect x="146.729" y="62.14" transform="matrix(0.7071 -0.7071 0.7071 0.7071 -12.0325 133.3311)" width="16.4" height="38.1"/>
	</g>
</g>
<g>
	<g>
		<path d="M319.45,353V196.6h-16.4V353c-27.7,4-49.2,27.9-49.2,56.7c0,31.6,25.7,57.4,57.4,57.4c31.6,0,57.4-25.7,57.4-57.4    C368.65,380.8,347.25,357,319.45,353z M311.35,450.6c-22.6,0-41-18.4-41-41c0-22.6,18.4-41,41-41c22.6,0,41,18.4,41,41    C352.25,432.3,333.85,450.6,311.35,450.6z"/>
	</g>
</g>
<g>
	<g>
		<path d="M352.25,320.4V41c0-22.6-18.4-41-41-41c-22.6,0-41,18.4-41,41v40.6c-8-2.2-16.2-3.3-24.6-3.3c-51.7,0-93.8,42.1-93.8,93.8    s42.1,93.8,93.8,93.8c8.4,0,16.6-1.2,24.6-3.4v57.8c-35,16-57.4,50.5-57.4,89.3c0,54.2,44.1,98.3,98.3,98.3s98.3-44.1,98.3-98.3    C409.65,370.8,387.25,336.4,352.25,320.4z M245.75,249.5c-42.7,0-77.4-34.7-77.4-77.4c0-42.7,34.7-77.4,77.4-77.4    c8.5,0,16.7,1.4,24.6,4.1v146.8C262.45,248.1,254.25,249.5,245.75,249.5z M311.35,491.6c-45.2,0-81.9-36.8-81.9-81.9    c0-33.9,20.5-63.9,52.1-76.3l5.2-2V41c0-13.6,11-24.6,24.6-24.6c13.6,0,24.6,11,24.6,24.6v290.4l5.2,2    c31.7,12.4,52.1,42.3,52.1,76.3C393.25,454.9,356.45,491.6,311.35,491.6z"/>
	</g>
</g>
<g>
	<g>
		<rect x="368.65" y="65.5" width="41" height="16.4"/>
	</g>
</g>
<g>
	<g>
		<rect x="368.65" y="114.7" width="24.6" height="16.4"/>
	</g>
</g>
<g>
	<g>
		<rect x="363.35" y="163.9" width="46.3" height="16.4"/>
	</g>
</g>
<g>
	<g>
		<rect x="368.65" y="213" width="24.6" height="16.4"/>
	</g>
</g>
<g>
	<g>
		<rect x="368.65" y="262.2" width="41" height="16.4"/>
	</g>
</g>
<g>
</g>
<g>
</g>
<g>
</g>
<g>
</g>
<g>
</g>
<g>
</g>
<g>
</g>
<g>
</g>
<g>
</g>
<g>
</g>
<g>
</g>
<g>
</g>
<g>
</g>
<g>
</g>
<g>
</g>
</svg>
