<?xml version="1.0" encoding="iso-8859-1"?>
<!-- Generator: Adobe Illustrator 19.0.0, SVG Export Plug-In . SVG Version: 6.00 Build 0)  -->
<svg xmlns="http://www.w3.org/2000/svg" xmlns:xlink="http://www.w3.org/1999/xlink" version="1.1" id="Capa_1" x="0px" y="0px" viewBox="0 0 507.9 507.9" style="enable-background:new 0 0 507.9 507.9;" xml:space="preserve">
<g>
	<g>
		<path d="M457,148.587c-12.4-36-44.7-61.8-82.5-66.1c-23.2-44.9-70-73.6-120.5-73.6c-43,0-83.5,20.5-109.1,55.1    c-45.1,4.1-82,38.8-89,83.3c-32.3,7.4-55.9,36.5-55.9,70.1c0,39.7,32.3,71.9,71.9,71.9h26.5c16.9,17.4,40.2,27.3,64.5,27.3    s47.6-9.9,64.5-27.3H436c39.7,0,71.9-32.3,71.9-71.9C508,185.387,487.3,157.787,457,148.587z M436.1,272.887H220.3    c0,0-20.3,27.3-57.3,27.3c-35.3,0-57.3-27.3-57.3-27.3H71.9c-30.6,0-55.5-24.9-55.5-55.5c0-27.6,20.6-51.2,48-55l6.5-0.9l0.6-6.5    c3.7-40.7,37.4-72.9,78.3-74.9l4-0.2l2.3-3.3c22.3-32.1,59-51.3,98-51.3c45.8,0,88.1,26.9,107.8,68.4l2.1,4.4l4.8,0.3    c34.6,2.2,64.3,26.1,74.1,59.3l1.3,4.6l4.7,1.1c25.3,5.9,42.9,28.1,42.9,54C491.6,247.987,466.7,272.887,436.1,272.887z"/>
	</g>
</g>
<g>
	<g>
		<path d="M90.1,156.287h16.4c0-22.5,18.3-40.9,40.9-40.9v-16.4C115.8,99.087,90.1,124.787,90.1,156.287z"/>
	</g>
</g>
<g>
	<g>
		<path d="M151.1,348.587c0,0-64.2,22.9-75.2,42.4c-12.1,21.7-4.7,50,17.3,61.3c29.5,15.2,53.4-3.1,61.3-17.3    C165.4,415.487,151.1,348.587,151.1,348.587z M140.3,426.987c-5.1,9.1-20.1,21.1-39,11c-14-7.4-18.8-25.2-11-39    c5-9,29.2-21,48.9-28.7C143,391.087,145.3,418.087,140.3,426.987z"/>
	</g>
</g>
<g>
	<g>
		<path d="M290.7,389.587c0,0-64.3,22.9-75.2,42.4c-12.1,21.7-4.7,50,17.3,61.3c29.5,15.2,53.4-3.1,61.3-17.3    C305,456.487,290.7,389.587,290.7,389.587z M279.9,467.987c-5.1,9.1-20.1,21.1-39,11c-14-7.4-18.8-25.2-11-39    c5-9,29.2-21,48.9-28.7C282.5,432.087,284.9,458.987,279.9,467.987z"/>
	</g>
</g>
<g>
	<g>
		<path d="M430.3,348.587c0,0-64.3,22.9-75.2,42.4c-12.1,21.7-4.7,50,17.3,61.3c29.5,15.2,53.4-3.1,61.3-17.3    C444.6,415.487,430.3,348.587,430.3,348.587z M419.4,426.987c-5.1,9.1-20.1,21.1-39,11c-14-7.4-18.8-25.2-11-39    c5-9,29.2-21,48.9-28.7C422.1,391.087,424.5,418.087,419.4,426.987z"/>
	</g>
</g>
<g>
</g>
<g>
</g>
<g>
</g>
<g>
</g>
<g>
</g>
<g>
</g>
<g>
</g>
<g>
</g>
<g>
</g>
<g>
</g>
<g>
</g>
<g>
</g>
<g>
</g>
<g>
</g>
<g>
</g>
</svg>
