<?xml version="1.0" encoding="iso-8859-1"?>
<!-- Generator: Adobe Illustrator 19.0.0, SVG Export Plug-In . SVG Version: 6.00 Build 0)  -->
<svg xmlns="http://www.w3.org/2000/svg" xmlns:xlink="http://www.w3.org/1999/xlink" version="1.1" id="Capa_1" x="0px" y="0px" viewBox="0 0 508 508" style="enable-background:new 0 0 508 508;" xml:space="preserve">
<g>
	<g>
		<path d="M254,49.2C141.1,49.2,49.2,141.1,49.2,254S141.1,458.8,254,458.8S458.8,366.9,458.8,254S366.9,49.2,254,49.2z M254,442.5    C150.1,442.5,65.5,358,65.5,254C65.5,150.1,150,65.5,254,65.5c103.9,0,188.5,84.5,188.5,188.5C442.5,357.9,357.9,442.5,254,442.5z    "/>
	</g>
</g>
<g>
	<g>
		<rect x="245.8" width="16.4" height="32.8"/>
	</g>
</g>
<g>
	<g>
		<rect x="245.8" y="475.2" width="16.4" height="32.8"/>
	</g>
</g>
<g>
	<g>
		<polygon points="164.4,16.2 149.2,22.5 161.8,52.8 176.9,46.5   "/>
	</g>
</g>
<g>
	<g>
		
			<rect x="336.726" y="457.155" transform="matrix(0.9239 -0.3827 0.3827 0.9239 -154.9674 168.0472)" width="16.4" height="32.801"/>
	</g>
</g>
<g>
	<g>
		<rect x="77.782" y="69.607" transform="matrix(0.7071 -0.7071 0.7071 0.7071 -35.6323 85.9892)" width="16.4" height="32.8"/>
	</g>
</g>
<g>
	<g>
		<rect x="413.82" y="405.649" transform="matrix(0.7071 -0.7071 0.7071 0.7071 -174.8271 422.0285)" width="16.4" height="32.8"/>
	</g>
</g>
<g>
	<g>
		
			<rect x="26.286" y="146.711" transform="matrix(0.3827 -0.9239 0.9239 0.3827 -129.4059 132.5515)" width="16.4" height="32.801"/>
	</g>
</g>
<g>
	<g>
		
			<rect x="465.314" y="328.565" transform="matrix(0.3827 -0.9239 0.9239 0.3827 -26.3997 650.4203)" width="16.4" height="32.801"/>
	</g>
</g>
<g>
	<g>
		<polygon points="343.6,16.2 331.1,46.5 346.2,52.8 358.8,22.5   "/>
	</g>
</g>
<g>
	<g>
		
			<rect x="146.633" y="465.353" transform="matrix(0.3828 -0.9238 0.9238 0.3828 -336.8592 442.8849)" width="32.799" height="16.4"/>
	</g>
</g>
<g>
	<g>
		<rect x="405.596" y="77.775" transform="matrix(0.7071 -0.7071 0.7071 0.7071 62.806 323.5775)" width="32.8" height="16.4"/>
	</g>
</g>
<g>
	<g>
		<rect x="69.566" y="413.825" transform="matrix(0.7071 -0.7071 0.7071 0.7071 -273.2379 184.395)" width="32.8" height="16.4"/>
	</g>
</g>
<g>
	<g>
		
			<rect x="457.082" y="154.847" transform="matrix(0.9238 -0.3828 0.3828 0.9238 -26.3495 193.674)" width="32.799" height="16.399"/>
	</g>
</g>
<g>
	<g>
		<rect x="18.024" y="336.718" transform="matrix(0.9238 -0.3828 0.3828 0.9238 -129.4162 39.4514)" width="32.799" height="16.4"/>
	</g>
</g>
<g>
	<g>
		<rect y="245.8" width="32.8" height="16.4"/>
	</g>
</g>
<g>
	<g>
		<rect x="475.2" y="245.8" width="32.8" height="16.4"/>
	</g>
</g>
<g>
</g>
<g>
</g>
<g>
</g>
<g>
</g>
<g>
</g>
<g>
</g>
<g>
</g>
<g>
</g>
<g>
</g>
<g>
</g>
<g>
</g>
<g>
</g>
<g>
</g>
<g>
</g>
<g>
</g>
</svg>
