<?xml version="1.0" encoding="iso-8859-1"?>
<!-- Generator: Adobe Illustrator 19.0.0, SVG Export Plug-In . SVG Version: 6.00 Build 0)  -->
<svg xmlns="http://www.w3.org/2000/svg" xmlns:xlink="http://www.w3.org/1999/xlink" version="1.1" id="Capa_1" x="0px" y="0px" viewBox="0 0 508 508" style="enable-background:new 0 0 508 508;" xml:space="preserve">
<g>
	<g>
		<path d="M479.8,274.35c0.4-4.2,0.6-8,0.6-11.7c0-70.3-57.2-127.5-127.5-127.5c-37.6,0-72.5,16.2-96.8,44.7    c-13.1-5.3-32.7-11.4-54.6-7c-5.5-38.9-38.4-68.1-78.6-68.1c-43.9,0-79.6,35.7-79.6,79.6c0,38.3,27.7,70.9,64.5,78    c-0.1,0.4-0.2,0.9-0.3,1.3H96c-34.9,0-63.3,28.4-63.3,63.3c0,34,27,61.9,60.7,63.2c14.8,24.8,41.3,40,70.4,40    c13.9,0,27.4-3.5,39.5-10.1c18.3,17.2,41.8,26.5,67.1,26.5s48.8-9.4,67.1-26.5c12.1,6.7,25.6,10.1,39.5,10.1    c29.1,0,55.6-15.2,70.4-40c33.6-1.4,60.6-29.2,60.6-63.3C508,305.65,497.3,286.05,479.8,274.35z M59.7,184.35    c0-34.8,28.3-63.2,63.2-63.2c32.2,0,58.6,23.7,62.6,54.9c-34.3,9.8-62.2,36.5-73.6,70.4C82.2,241.15,59.7,215.05,59.7,184.35z     M444.7,373.75h-7.3c0,0-14.8,40-60.5,40c-21.7,0-42-14.8-42-14.8s-22.7,31.1-64.5,31.1c-41.6,0-64.5-31.1-64.5-31.1    s-18.1,14.8-42,14.8c-44.6,0-60.5-40-60.5-40H96c-25.8,0-46.9-21-46.9-46.9c0-25.8,21-46.9,46.9-46.9h26.3l0.7-7.5    c4.3-48.1,44-84.3,92.3-84.3c28.3,0,45.7,11.9,45.7,11.9s30.7-48.6,92-48.6s111.1,49.8,111.1,111.1c0,11.8-1.9,20.4-1.9,20.4    s29.4,10.5,29.4,43.8C491.6,352.75,470.6,373.75,444.7,373.75z"/>
	</g>
</g>
<g>
	<g>
		<path d="M344.1,167.95v16.4c49.7,0,90.1,40.4,90.1,90.1h16.4C450.6,215.65,402.9,167.95,344.1,167.95z"/>
	</g>
</g>
<g>
	<g>
		<rect x="114.7" y="61.45" width="16.4" height="31.7"/>
	</g>
</g>
<g>
	<g>
		<rect x="75.966" y="81.003" transform="matrix(0.9239 -0.3827 0.3827 0.9239 -28.3809 39.1295)" width="16.4" height="19.8"/>
	</g>
</g>
<g>
	<g>
		<rect x="39.003" y="92.811" transform="matrix(0.7072 -0.707 0.707 0.7072 -63.0031 65.1876)" width="16.4" height="31.7"/>
	</g>
</g>
<g>
	<g>
		<rect x="21.292" y="135.744" transform="matrix(0.3826 -0.9239 0.9239 0.3826 -116.3541 117.1676)" width="16.4" height="19.8"/>
	</g>
</g>
<g>
	<g>
		<rect x="151.712" y="82.657" transform="matrix(0.3828 -0.9238 0.9238 0.3828 15.8085 205.3769)" width="19.799" height="16.4"/>
	</g>
</g>
<g>
	<g>
		<rect y="176.15" width="31.7" height="16.4"/>
	</g>
</g>
<g>
	<g>
		<rect x="19.578" y="214.756" transform="matrix(0.9239 -0.3826 0.3826 0.9239 -83.0607 28.2424)" width="19.8" height="16.4"/>
	</g>
</g>
<g>
	<g>
		<rect x="206.403" y="137.372" transform="matrix(0.9239 -0.3826 0.3826 0.9239 -39.2384 93.835)" width="19.8" height="16.4"/>
	</g>
</g>
<g>
	<g>
		<rect x="182.764" y="100.405" transform="matrix(0.7071 -0.7071 0.7071 0.7071 -18.6228 172.2504)" width="31.7" height="16.4"/>
	</g>
</g>
<g>
	<g>
		<rect x="31.354" y="251.786" transform="matrix(0.7071 -0.7071 0.7071 0.7071 -170.0121 109.5262)" width="31.7" height="16.4"/>
	</g>
</g>
<g>
</g>
<g>
</g>
<g>
</g>
<g>
</g>
<g>
</g>
<g>
</g>
<g>
</g>
<g>
</g>
<g>
</g>
<g>
</g>
<g>
</g>
<g>
</g>
<g>
</g>
<g>
</g>
<g>
</g>
</svg>
