<?xml version="1.0" encoding="iso-8859-1"?>
<!-- Generator: Adobe Illustrator 19.0.0, SVG Export Plug-In . SVG Version: 6.00 Build 0)  -->
<svg xmlns="http://www.w3.org/2000/svg" xmlns:xlink="http://www.w3.org/1999/xlink" version="1.1" id="Capa_1" x="0px" y="0px" viewBox="0 0 508 508" style="enable-background:new 0 0 508 508;" xml:space="preserve">
<g>
	<g>
		<path d="M254,131.1c-67.8,0-122.9,55.1-122.9,122.9S186.2,376.9,254,376.9S376.9,321.8,376.9,254S321.8,131.1,254,131.1z     M254,360.5c-58.7,0-106.5-47.8-106.5-106.5S195.3,147.5,254,147.5S360.5,195.3,360.5,254S312.7,360.5,254,360.5z"/>
	</g>
</g>
<g>
	<g>
		<rect x="245.8" width="16.4" height="98.3"/>
	</g>
</g>
<g>
	<g>
		<rect x="245.8" y="409.7" width="16.4" height="98.3"/>
	</g>
</g>
<g>
	<g>
		<rect x="100.925" y="60.024" transform="matrix(0.7071 -0.7071 0.7071 0.7071 -45.2356 109.139)" width="16.4" height="98.299"/>
	</g>
</g>
<g>
	<g>
		<rect x="390.635" y="349.724" transform="matrix(0.7071 -0.7071 0.7071 0.7071 -165.23 398.846)" width="16.4" height="98.299"/>
	</g>
</g>
<g>
	<g>
		<rect y="245.8" width="98.3" height="16.4"/>
	</g>
</g>
<g>
	<g>
		<rect x="409.7" y="245.8" width="98.3" height="16.4"/>
	</g>
</g>
<g>
	<g>
		<rect x="60.002" y="390.62" transform="matrix(0.7071 -0.7071 0.7071 0.7071 -250.0382 193.9933)" width="98.299" height="16.4"/>
	</g>
</g>
<g>
	<g>
		<rect x="349.743" y="100.991" transform="matrix(0.7071 -0.7071 0.7071 0.7071 39.6234 314.0406)" width="98.299" height="16.4"/>
	</g>
</g>
<g>
	<g>
		<rect x="173.662" y="47.121" transform="matrix(0.9239 -0.3827 0.3827 0.9239 -16.7224 75.6772)" width="16.4" height="65.502"/>
	</g>
</g>
<g>
	<g>
		
			<rect x="317.954" y="395.414" transform="matrix(0.9239 -0.3827 0.3827 0.9239 -139.0261 157.4085)" width="16.4" height="65.502"/>
	</g>
</g>
<g>
	<g>
		
			<rect x="71.652" y="149.135" transform="matrix(0.3827 -0.9239 0.9239 0.3827 -118.7466 186.0546)" width="16.4" height="65.502"/>
	</g>
</g>
<g>
	<g>
		<polygon points="401,306 394.7,321.1 455.3,346.2 461.5,331.1   "/>
	</g>
</g>
<g>
	<g>
		
			<rect x="293.358" y="71.64" transform="matrix(0.3828 -0.9238 0.9238 0.3828 127.5115 350.5422)" width="65.498" height="16.399"/>
	</g>
</g>
<g>
	<g>
		
			<rect x="149.107" y="419.963" transform="matrix(0.3828 -0.9238 0.9238 0.3828 -283.3086 432.261)" width="65.498" height="16.4"/>
	</g>
</g>
<g>
	<g>
		
			<rect x="395.301" y="173.674" transform="matrix(0.9239 -0.3827 0.3827 0.9239 -37.0129 177.6756)" width="65.602" height="16.4"/>
	</g>
</g>
<g>
	<g>
		<polygon points="107,306 46.5,331.1 52.8,346.2 113.3,321.1   "/>
	</g>
</g>
<g>
</g>
<g>
</g>
<g>
</g>
<g>
</g>
<g>
</g>
<g>
</g>
<g>
</g>
<g>
</g>
<g>
</g>
<g>
</g>
<g>
</g>
<g>
</g>
<g>
</g>
<g>
</g>
<g>
</g>
</svg>
