<?xml version="1.0" encoding="iso-8859-1"?>
<!-- Generator: Adobe Illustrator 19.0.0, SVG Export Plug-In . SVG Version: 6.00 Build 0)  -->
<svg xmlns="http://www.w3.org/2000/svg" xmlns:xlink="http://www.w3.org/1999/xlink" version="1.1" id="Capa_1" x="0px" y="0px" viewBox="0 0 508 508" style="enable-background:new 0 0 508 508;" xml:space="preserve">
<g>
	<g>
		<path d="M254,106.5c-81.3,0-147.5,66.2-147.5,147.5S172.7,401.5,254,401.5S401.5,335.3,401.5,254S335.3,106.5,254,106.5z     M254,385.1c-72.3,0-131.1-58.8-131.1-131.1S181.7,122.9,254,122.9S385.1,181.7,385.1,254S326.3,385.1,254,385.1z"/>
	</g>
</g>
<g>
	<g>
		<rect x="245.8" width="16.4" height="81.9"/>
	</g>
</g>
<g>
	<g>
		<rect x="245.8" y="425.9" width="16.4" height="82.1"/>
	</g>
</g>
<g>
	<g>
		<polygon points="176.9,46.5 161.8,52.8 180.6,98.2 195.7,91.9   "/>
	</g>
</g>
<g>
	<g>
		<polygon points="327.3,409.6 312.2,415.9 331.1,461.5 346.2,455.2   "/>
	</g>
</g>
<g>
	<g>
		
			<rect x="411.016" y="170.486" transform="matrix(0.9239 -0.3827 0.3827 0.9239 -35.2211 180.3082)" width="49.201" height="16.4"/>
	</g>
</g>
<g>
	<g>
		<rect x="47.688" y="321.023" transform="matrix(0.9239 -0.3827 0.3827 0.9239 -120.4796 52.7637)" width="49.401" height="16.4"/>
	</g>
</g>
<g>
	<g>
		
			<rect x="64.092" y="154.191" transform="matrix(0.3827 -0.9239 0.9239 0.3827 -120.5546 177.1591)" width="16.4" height="49.201"/>
	</g>
</g>
<g>
	<g>
		<rect x="427.331" y="304.524" transform="matrix(0.3827 -0.9239 0.9239 0.3827 -35.305 605.6116)" width="16.4" height="49.401"/>
	</g>
</g>
<g>
	<g>
		<polygon points="331.1,46.5 312.3,91.9 327.4,98.2 346.2,52.8   "/>
	</g>
</g>
<g>
	<g>
		<polygon points="180.7,409.6 161.8,455.2 176.9,461.5 195.8,415.9   "/>
	</g>
</g>
<g>
	<g>
		<rect x="363.664" y="95.13" transform="matrix(0.7071 -0.7071 0.7071 0.7071 45.4435 316.37)" width="81.899" height="16.4"/>
	</g>
</g>
<g>
	<g>
		<rect x="62.394" y="396.41" transform="matrix(0.7071 -0.7071 0.7071 0.7071 -255.8048 191.6529)" width="82.099" height="16.4"/>
	</g>
</g>
<g>
	<g>
		<rect x="426.1" y="245.8" width="81.9" height="16.4"/>
	</g>
</g>
<g>
	<g>
		<rect y="245.8" width="82.1" height="16.4"/>
	</g>
</g>
<g>
	<g>
		
			<rect x="396.395" y="363.668" transform="matrix(0.7072 -0.7071 0.7071 0.7072 -167.6065 404.562)" width="16.401" height="81.905"/>
	</g>
</g>
<g>
	<g>
		<rect x="95.275" y="62.369" transform="matrix(0.7071 -0.7071 0.7071 0.7071 -42.8211 103.4589)" width="16.4" height="82.099"/>
	</g>
</g>
<g>
</g>
<g>
</g>
<g>
</g>
<g>
</g>
<g>
</g>
<g>
</g>
<g>
</g>
<g>
</g>
<g>
</g>
<g>
</g>
<g>
</g>
<g>
</g>
<g>
</g>
<g>
</g>
<g>
</g>
</svg>
