<?xml version="1.0" encoding="iso-8859-1"?>
<!-- Generator: Adobe Illustrator 19.0.0, SVG Export Plug-In . SVG Version: 6.00 Build 0)  -->
<svg xmlns="http://www.w3.org/2000/svg" xmlns:xlink="http://www.w3.org/1999/xlink" version="1.1" id="Capa_1" x="0px" y="0px" viewBox="0 0 508 508" style="enable-background:new 0 0 508 508;" xml:space="preserve">
<g>
	<g>
		<path d="M467,147c-0.3-63-51.6-114.2-114.7-114.2c-36.1,0-69.7,16.9-91.4,45.5C245.8,55.2,219.8,41,191.7,41    C166,41,142,52.7,126.4,72.6c-6.7-2.2-13.6-3.3-20.7-3.3c-29.2,0-54.7,19.2-62.9,46.4C18,120.7,0,142.2,0,167.8    c0,29.4,24.3,53.4,54.1,53.4h28.3c4.1,36.8,35.4,65.5,73.3,65.5h278.6c40.7,0,73.7-33.1,73.7-73.7C508,184.7,492.1,159.4,467,147z     M54.1,204.8c-20.8,0-37.7-16.6-37.7-37c0-19.1,14.6-34.9,33.9-36.8l6-0.6l1.2-5.9C62,102,82.3,85.6,105.7,85.6    c7,0,13.8,1.5,20.3,4.3l6.3,2.8l3.8-5.8c12.3-18.6,33.1-29.7,55.6-29.7c16.5,0,32,6.2,44,16.7c-49.2,0-82.9,27.5-93.4,66.5    c-32.2,5.8-56.4,32-59.9,64.4H54.1z M434.3,270.4H155.7c-31.6,0-57.4-25.7-57.4-57.4c0-29.6,22.2-54.1,51.6-57.1l6-0.6l1.2-6    c6.8-34.4,37.2-59.3,72.3-59.3c10.5,0,20.7,2.2,30.4,6.6l6.4,2.9l3.8-5.9C288.3,65.7,319,49,352.3,49c54.2,0,98.3,44.1,98.3,98.3    c0,0.8-0.5,10.2-0.5,10.2l5.4,2.2c21.9,8.8,36.1,29.7,36.1,53.2C491.6,244.7,465.9,270.4,434.3,270.4z"/>
	</g>
</g>
<g>
	<g>
		<path d="M245.8,313.3c0,0-24.6,36.7-24.6,47.2c0,13.6,11,24.6,24.6,24.6c13.6,0,24.6-11,24.6-24.6    C270.4,350,245.8,313.3,245.8,313.3z M245.8,368.7c-4.5,0-8.2-3.7-8.2-8.2c0.1-2.5,3.5-9.6,8.2-17.6c4.7,7.9,8.1,15.1,8.2,17.6    C254,365,250.3,368.7,245.8,368.7z"/>
	</g>
</g>
<g>
	<g>
		<path d="M147.5,313.3c0,0-24.6,36.7-24.6,47.2c0,13.6,11,24.6,24.6,24.6c13.6,0,24.6-11,24.6-24.6    C172.1,350,147.5,313.3,147.5,313.3z M147.5,368.7c-4.5,0-8.2-3.7-8.2-8.2c0.1-2.5,3.5-9.6,8.2-17.6c4.7,7.9,8.1,15.1,8.2,17.6    C155.7,365,152,368.7,147.5,368.7z"/>
	</g>
</g>
<g>
	<g>
		<path d="M344.1,313.3c0,0-24.6,36.7-24.6,47.2c0,13.6,11,24.6,24.6,24.6c13.6,0,24.6-11,24.6-24.6    C368.7,350,344.1,313.3,344.1,313.3z M344.1,368.7c-4.5,0-8.2-3.7-8.2-8.2c0.1-2.5,3.5-9.6,8.2-17.6c4.7,7.9,8.1,15.1,8.2,17.6    C352.3,365,348.6,368.7,344.1,368.7z"/>
	</g>
</g>
<g>
	<g>
		<path d="M442.5,313.3c0,0-24.6,36.7-24.6,47.2c0,13.6,11,24.6,24.6,24.6c13.6,0,24.6-11,24.6-24.6    C467.1,350,442.5,313.3,442.5,313.3z M442.5,368.7c-4.5,0-8.2-3.7-8.2-8.2c0.1-2.5,3.5-9.6,8.2-17.6c4.7,7.9,8.1,15.1,8.2,17.6    C450.6,365,447,368.7,442.5,368.7z"/>
	</g>
</g>
<g>
	<g>
		<path d="M295,403.4c0,0-24.6,36.8-24.6,47.2c0,13.6,11,24.6,24.6,24.6c13.6,0,24.6-11,24.6-24.6C319.6,440.1,295,403.4,295,403.4z     M295,458.8c-4.5,0-8.2-3.7-8.2-8.2c0.1-2.5,3.5-9.6,8.2-17.6c4.7,7.9,8.1,15.1,8.2,17.6C303.2,455.2,299.5,458.8,295,458.8z"/>
	</g>
</g>
<g>
	<g>
		<path d="M196.7,403.4c0,0-24.6,36.8-24.6,47.2c0,13.6,11,24.6,24.6,24.6c13.6,0,24.6-11,24.6-24.6    C221.3,440.1,196.7,403.4,196.7,403.4z M196.6,458.8c-4.5,0-8.2-3.7-8.2-8.2c0.1-2.5,3.5-9.6,8.2-17.6c4.7,7.9,8.1,15.1,8.2,17.6    C204.8,455.2,201.2,458.8,196.6,458.8z"/>
	</g>
</g>
<g>
	<g>
		<path d="M393.3,403.4c0,0-24.6,36.8-24.6,47.2c0,13.6,11,24.6,24.6,24.6c13.6,0,24.6-11,24.6-24.6    C417.9,440.1,393.3,403.4,393.3,403.4z M393.3,458.8c-4.5,0-8.2-3.7-8.2-8.2c0.1-2.5,3.5-9.6,8.2-17.6c4.7,7.9,8.1,15.1,8.2,17.6    C401.5,455.2,397.8,458.8,393.3,458.8z"/>
	</g>
</g>
<g>
</g>
<g>
</g>
<g>
</g>
<g>
</g>
<g>
</g>
<g>
</g>
<g>
</g>
<g>
</g>
<g>
</g>
<g>
</g>
<g>
</g>
<g>
</g>
<g>
</g>
<g>
</g>
<g>
</g>
</svg>
