<?xml version="1.0" standalone="no"?>
<!DOCTYPE svg PUBLIC "-//W3C//DTD SVG 20010904//EN"
 "http://www.w3.org/TR/2001/REC-SVG-20010904/DTD/svg10.dtd">
<svg version="1.0" xmlns="http://www.w3.org/2000/svg"
 width="16pt" height="16pt" viewBox="0 0 512.000000 512.000000"
 preserveAspectRatio="xMidYMid meet">

<g transform="translate(0.000000,512.000000) scale(0.100000,-0.100000)"
fill="#575756" stroke="none">
<path d="M1825 4804 c-257 -30 -451 -88 -664 -200 -158 -82 -281 -174 -427
-319 -367 -366 -543 -835 -512 -1370 17 -299 120 -602 293 -860 289 -432 745
-713 1258 -776 143 -17 434 -6 562 21 193 41 430 134 574 224 l41 26 14 -28
c21 -40 69 -84 701 -643 429 -378 594 -519 635 -538 47 -22 68 -26 145 -26
129 1 175 25 300 157 129 137 150 181 150 313 0 173 32 137 -663 753 -554 491
-676 595 -702 604 -5 1 8 37 29 78 198 378 252 838 147 1251 -201 793 -919
1348 -1731 1338 -66 -1 -133 -4 -150 -5z m290 -685 c436 -53 797 -361 919
-783 75 -257 48 -534 -74 -781 -128 -259 -358 -460 -630 -550 -257 -85 -555
-68 -795 44 -298 139 -517 401 -602 719 -24 87 -27 115 -27 272 0 146 4 187
21 250 58 208 137 351 274 494 244 256 574 377 914 335z"/>
</g>
</svg>
